G04*
G04 #@! TF.GenerationSoftware,Altium Limited,Altium Designer,20.0.10 (225)*
G04*
G04 Layer_Physical_Order=1*
G04 Layer_Color=255*
%FSLAX44Y44*%
%MOMM*%
G71*
G01*
G75*
%ADD13C,0.2540*%
%ADD15C,0.3048*%
%ADD26O,1.6500X0.5500*%
%ADD27O,0.5500X1.6500*%
%ADD28R,1.1500X1.4500*%
%ADD29R,1.6000X3.1500*%
%ADD30R,1.8500X0.6000*%
%ADD31R,1.4500X1.1500*%
%ADD32R,1.0000X0.8000*%
%ADD33R,1.4000X0.9000*%
%ADD34R,1.5500X1.3000*%
%ADD35R,1.5500X1.3000*%
%ADD36R,0.6000X1.8500*%
%ADD56R,0.2000X0.2000*%
%ADD57C,1.0000*%
%ADD58C,1.0160*%
%ADD59C,0.7620*%
%ADD60C,0.5080*%
%ADD61C,0.5334*%
%ADD62C,0.5842*%
%ADD63C,0.6096*%
%ADD64C,0.7112*%
%ADD65C,2.0320*%
%ADD66C,1.5240*%
%ADD67R,4.9530X4.1910*%
%ADD68C,2.4000*%
%ADD69C,1.7780*%
%ADD70R,1.7780X1.7780*%
%ADD71R,1.7780X1.7780*%
%ADD72C,7.5000*%
%ADD73C,2.0000*%
%ADD74C,0.9144*%
G36*
X1159444Y1053456D02*
Y1003300D01*
X1159706Y1001311D01*
X1160474Y999457D01*
X1161695Y997865D01*
X1168400Y991161D01*
Y977900D01*
X1181661D01*
X1183285Y976275D01*
X1183285Y976275D01*
X1184877Y975054D01*
X1186731Y974286D01*
X1188720Y974024D01*
X1188720Y974024D01*
X1611580D01*
Y952500D01*
X1611777Y951509D01*
X1612339Y950669D01*
X1613179Y950107D01*
X1614170Y949910D01*
X1663700D01*
X1664691Y950107D01*
X1665531Y950669D01*
X1666093Y951509D01*
X1666290Y952500D01*
Y974024D01*
X1716660D01*
Y963420D01*
X1737740D01*
Y974024D01*
X1741796D01*
X1752534Y963286D01*
Y873134D01*
X1729096Y849696D01*
X1723020D01*
Y850300D01*
X1705194D01*
X1703440Y850300D01*
Y850300D01*
X1701430Y850190D01*
Y850190D01*
X1683604D01*
X1681850Y850190D01*
Y850190D01*
X1679840Y850080D01*
Y850080D01*
X1660260D01*
X1660260Y850080D01*
Y850080D01*
X1660260Y850080D01*
X1656970Y851335D01*
Y851800D01*
X1642780D01*
X1640390Y851800D01*
X1636580Y851800D01*
X1622390D01*
Y851024D01*
X1618880Y850300D01*
Y850300D01*
X1599300D01*
Y850300D01*
X1597290D01*
Y850300D01*
X1577710D01*
Y849696D01*
X1470660D01*
X1468671Y849434D01*
X1466817Y848666D01*
X1465225Y847445D01*
X1448426Y830646D01*
X1409766D01*
Y892810D01*
X1409766Y892810D01*
X1409504Y894799D01*
X1408736Y896653D01*
X1407515Y898245D01*
X1407515Y898245D01*
X1391942Y913817D01*
X1392019Y914400D01*
X1391626Y917384D01*
X1390474Y920164D01*
X1388642Y922552D01*
X1386254Y924384D01*
X1385830Y924560D01*
X1386588Y928370D01*
X1391920D01*
Y951230D01*
X1369060D01*
Y945898D01*
X1365250Y945140D01*
X1365074Y945564D01*
X1363242Y947952D01*
X1360854Y949784D01*
X1358074Y950936D01*
X1355090Y951329D01*
X1352106Y950936D01*
X1349326Y949784D01*
X1346938Y947952D01*
X1345106Y945564D01*
X1344346Y943729D01*
X1340434D01*
X1339674Y945564D01*
X1337842Y947952D01*
X1335454Y949784D01*
X1332674Y950936D01*
X1329690Y951329D01*
X1326706Y950936D01*
X1323926Y949784D01*
X1321538Y947952D01*
X1319706Y945564D01*
X1318554Y942784D01*
X1318161Y939800D01*
X1318554Y936816D01*
X1319706Y934036D01*
X1321538Y931648D01*
X1323926Y929816D01*
X1325761Y929056D01*
Y925144D01*
X1323926Y924384D01*
X1321538Y922552D01*
X1319706Y920164D01*
X1318554Y917384D01*
X1318496Y916940D01*
X1329690D01*
Y911860D01*
X1318496D01*
X1318554Y911416D01*
X1319706Y908636D01*
X1321538Y906248D01*
X1322065Y905844D01*
X1320772Y902034D01*
X1298104D01*
X1297346Y905844D01*
X1297717Y905997D01*
X1299202Y907137D01*
X1300342Y908623D01*
X1301059Y910353D01*
X1301303Y912209D01*
X1301059Y914066D01*
X1300342Y915796D01*
X1299202Y917282D01*
X1297717Y918422D01*
X1295987Y919138D01*
X1294130Y919383D01*
X1292273Y919138D01*
X1290543Y918422D01*
X1289058Y917282D01*
X1288345Y916353D01*
X1271968D01*
Y921249D01*
X1251388D01*
Y916353D01*
X1191968D01*
Y921249D01*
X1171388D01*
Y903304D01*
X1105346D01*
X1087454Y921196D01*
Y933830D01*
X1093100D01*
X1093100Y948963D01*
X1094548Y951107D01*
X1096276Y951940D01*
X1114690D01*
Y951940D01*
X1115680Y953080D01*
X1133870D01*
X1134760Y953080D01*
X1137680Y950931D01*
Y943580D01*
X1156760D01*
Y957660D01*
X1151364D01*
Y982570D01*
X1151048Y984156D01*
X1150150Y985500D01*
X1134390Y1001260D01*
X1133046Y1002158D01*
X1131460Y1002474D01*
X1115960D01*
Y1006620D01*
X1110314D01*
Y1013873D01*
X1111770Y1017080D01*
X1126850D01*
Y1019548D01*
X1128076Y1019792D01*
X1129420Y1020690D01*
X1133230Y1024500D01*
X1134128Y1025844D01*
X1134444Y1027430D01*
Y1047393D01*
X1136624Y1048296D01*
X1139244Y1050306D01*
X1141254Y1052926D01*
X1142517Y1055976D01*
X1142948Y1059250D01*
X1142731Y1060898D01*
X1145157Y1064284D01*
X1145667Y1064625D01*
X1148068Y1064833D01*
X1159444Y1053456D01*
D02*
G37*
G36*
X1370506Y908636D02*
X1372338Y906248D01*
X1374726Y904416D01*
X1377506Y903264D01*
X1380490Y902871D01*
X1381073Y902948D01*
X1394394Y889626D01*
Y830646D01*
X1378850D01*
Y831250D01*
X1361024D01*
X1359270Y831250D01*
Y831250D01*
X1357260Y831140D01*
Y831140D01*
X1337680D01*
Y831140D01*
X1335670D01*
Y831140D01*
X1316090D01*
Y828159D01*
X1311679D01*
X1309504Y830334D01*
X1307782Y831485D01*
X1305750Y831889D01*
X1305750Y831889D01*
X1295065D01*
X1294640Y831974D01*
X1283640D01*
X1281576Y831563D01*
X1279826Y830394D01*
X1278657Y828644D01*
X1278246Y826580D01*
X1278307Y826275D01*
X1277956Y825698D01*
X1273889Y824560D01*
X1273587Y824792D01*
X1271857Y825509D01*
X1270000Y825753D01*
X1268143Y825509D01*
X1266413Y824792D01*
X1264928Y823652D01*
X1263788Y822167D01*
X1263651Y821836D01*
X1259841Y822594D01*
X1259841Y824243D01*
X1259841Y824243D01*
X1259775Y824572D01*
X1259775Y824572D01*
X1259644Y825234D01*
X1259644Y825235D01*
X1259082Y826075D01*
X1259082Y826075D01*
X1258242Y826636D01*
X1257251Y826833D01*
X1257251Y826833D01*
X1257251Y824274D01*
X1216775D01*
X1216775Y826833D01*
D01*
X1216013Y826682D01*
X1215623Y828644D01*
X1214454Y830394D01*
Y830766D01*
X1215623Y832516D01*
X1216034Y834580D01*
X1215623Y836644D01*
X1214454Y838394D01*
Y838766D01*
X1215623Y840516D01*
X1216034Y842580D01*
X1215623Y844644D01*
X1214556Y846580D01*
X1215623Y848516D01*
X1216034Y850580D01*
X1215623Y852644D01*
X1214454Y854394D01*
Y854766D01*
X1215623Y856516D01*
X1216030Y858563D01*
X1216036Y858582D01*
X1217587Y860133D01*
X1219138Y861684D01*
X1219157Y861690D01*
X1221204Y862097D01*
X1222954Y863266D01*
X1223326D01*
X1225076Y862097D01*
X1227140Y861686D01*
X1229204Y862097D01*
X1230954Y863266D01*
X1231326D01*
X1233076Y862097D01*
X1235140Y861686D01*
X1237204Y862097D01*
X1239140Y863164D01*
X1241076Y862097D01*
X1243140Y861686D01*
X1245204Y862097D01*
X1246954Y863266D01*
X1247326D01*
X1249076Y862097D01*
X1251140Y861686D01*
X1253204Y862097D01*
X1254954Y863266D01*
X1255326D01*
X1257076Y862097D01*
X1259140Y861686D01*
X1261204Y862097D01*
X1262954Y863266D01*
X1263326D01*
X1265076Y862097D01*
X1267140Y861686D01*
X1269204Y862097D01*
X1270954Y863266D01*
X1271326D01*
X1273076Y862097D01*
X1275123Y861690D01*
X1275142Y861684D01*
X1276693Y860133D01*
X1278244Y858582D01*
X1278250Y858563D01*
X1278657Y856516D01*
X1279826Y854766D01*
Y854394D01*
X1278657Y852644D01*
X1278246Y850580D01*
X1278657Y848516D01*
X1279724Y846580D01*
X1278657Y844644D01*
X1278246Y842580D01*
X1278657Y840516D01*
X1279826Y838766D01*
X1281576Y837597D01*
X1283640Y837186D01*
X1294640D01*
X1296704Y837597D01*
X1298454Y838766D01*
X1299623Y840516D01*
X1300034Y842580D01*
X1299623Y844644D01*
X1298557Y846580D01*
X1299623Y848516D01*
X1299770Y849254D01*
X1300037Y849625D01*
X1302787Y851339D01*
X1303703Y851591D01*
X1305560Y851347D01*
X1307417Y851591D01*
X1309147Y852308D01*
X1310632Y853448D01*
X1311772Y854933D01*
X1312489Y856663D01*
X1312733Y858520D01*
X1312489Y860377D01*
X1311772Y862107D01*
X1310632Y863592D01*
X1309147Y864732D01*
X1307417Y865449D01*
X1305560Y865693D01*
X1303703Y865449D01*
X1301973Y864732D01*
X1300488Y863592D01*
X1300026Y862991D01*
X1296477Y863842D01*
X1295392Y867508D01*
X1296532Y868993D01*
X1297249Y870723D01*
X1297493Y872580D01*
X1297249Y874437D01*
X1296532Y876167D01*
X1295392Y877652D01*
X1293907Y878792D01*
X1294742Y882570D01*
X1306130D01*
X1309969Y878731D01*
X1309817Y877570D01*
X1310061Y875713D01*
X1310778Y873983D01*
X1311918Y872498D01*
X1313403Y871358D01*
X1315133Y870641D01*
X1316990Y870397D01*
X1318847Y870641D01*
X1320577Y871358D01*
X1322062Y872498D01*
X1323202Y873983D01*
X1323919Y875713D01*
X1323945Y875912D01*
X1324193Y876264D01*
X1327261Y878153D01*
X1327833Y878261D01*
X1329690Y878017D01*
X1331547Y878261D01*
X1333277Y878978D01*
X1334762Y880118D01*
X1335902Y881603D01*
X1336619Y883333D01*
X1336645Y883532D01*
X1336893Y883885D01*
X1339961Y885773D01*
X1340533Y885881D01*
X1342390Y885637D01*
X1344247Y885881D01*
X1345977Y886598D01*
X1347462Y887738D01*
X1348602Y889223D01*
X1349319Y890953D01*
X1349563Y892810D01*
X1349319Y894667D01*
X1348602Y896397D01*
X1347462Y897882D01*
X1345977Y899022D01*
X1344247Y899739D01*
X1342390Y899983D01*
X1341229Y899831D01*
X1340240Y900820D01*
X1338896Y901718D01*
X1338341Y901829D01*
X1337312Y904535D01*
X1337313Y905842D01*
X1337842Y906248D01*
X1339674Y908636D01*
X1340434Y910471D01*
X1344346D01*
X1345106Y908636D01*
X1346938Y906248D01*
X1349326Y904416D01*
X1352106Y903264D01*
X1355090Y902871D01*
X1358074Y903264D01*
X1360854Y904416D01*
X1363242Y906248D01*
X1365074Y908636D01*
X1365834Y910471D01*
X1369746D01*
X1370506Y908636D01*
D02*
G37*
G36*
X1042063Y1063915D02*
X1042276Y1062990D01*
X1042083Y1062524D01*
X1041652Y1059250D01*
X1042083Y1055976D01*
X1043346Y1052926D01*
X1045356Y1050306D01*
X1047826Y1048412D01*
Y1038660D01*
X1048318Y1036182D01*
X1049722Y1034082D01*
X1064762Y1019042D01*
X1066862Y1017638D01*
X1069340Y1017146D01*
X1075770D01*
Y1017080D01*
X1076836D01*
Y1006620D01*
X1073520D01*
Y992430D01*
X1073520Y990040D01*
X1073520Y986230D01*
Y972220D01*
X1073520Y972040D01*
Y968410D01*
X1073520Y968230D01*
Y954220D01*
X1073520Y951830D01*
X1073520Y948020D01*
Y933830D01*
X1079166D01*
Y919480D01*
X1079482Y917894D01*
X1080380Y916550D01*
X1095694Y901236D01*
X1094236Y897716D01*
X1044894D01*
X1025280Y917330D01*
X1023936Y918228D01*
X1022350Y918544D01*
X1013955D01*
X1013284Y920164D01*
X1011452Y922552D01*
X1009064Y924384D01*
X1007229Y925144D01*
Y929056D01*
X1009064Y929816D01*
X1011452Y931648D01*
X1013284Y934036D01*
X1014436Y936816D01*
X1014494Y937260D01*
X1003300D01*
X992106D01*
X992164Y936816D01*
X993316Y934036D01*
X995148Y931648D01*
X997536Y929816D01*
X999371Y929056D01*
Y925144D01*
X997536Y924384D01*
X995148Y922552D01*
X993316Y920164D01*
X992164Y917384D01*
X991771Y914400D01*
X992164Y911416D01*
X993316Y908636D01*
X995148Y906248D01*
X997536Y904416D01*
X997960Y904240D01*
X997203Y900430D01*
X991870D01*
Y877570D01*
X1014730D01*
Y883840D01*
X1212045D01*
X1214152Y880152D01*
X1214134Y880030D01*
X1213746Y878080D01*
Y867080D01*
X1210640Y863974D01*
X1199640D01*
X1197576Y863563D01*
X1195826Y862394D01*
X1194657Y860644D01*
X1194246Y858580D01*
X1194657Y856516D01*
X1195826Y854766D01*
Y854394D01*
X1194657Y852644D01*
X1194246Y850580D01*
X1194657Y848516D01*
X1195724Y846580D01*
X1194657Y844644D01*
X1194246Y842580D01*
X1194657Y840516D01*
X1195826Y838766D01*
Y838394D01*
X1194657Y836644D01*
X1194246Y834580D01*
X1194657Y832516D01*
X1195826Y830766D01*
Y830394D01*
X1194657Y828644D01*
X1194246Y826580D01*
X1194256Y826534D01*
X1191743Y822900D01*
X1191424Y822724D01*
X1076180D01*
Y825730D01*
X1056600D01*
X1056600Y810707D01*
X1055103Y808490D01*
X1053378Y807730D01*
X1035010D01*
X1034430Y805870D01*
X1016240D01*
X1015350Y805870D01*
X1012430Y808019D01*
Y815370D01*
X993350D01*
Y801290D01*
X999156D01*
Y772655D01*
X997536Y771984D01*
X995148Y770152D01*
X993316Y767764D01*
X992164Y764984D01*
X991771Y762000D01*
X992164Y759016D01*
X993316Y756236D01*
X995148Y753848D01*
X997536Y752016D01*
X997960Y751840D01*
X997203Y748030D01*
X991870D01*
Y747777D01*
X988060Y746199D01*
X979236Y755024D01*
Y1028056D01*
X1017979Y1066800D01*
X1039730D01*
X1042063Y1063915D01*
D02*
G37*
G36*
X1257251Y821684D02*
X1257300Y818657D01*
Y799713D01*
X1256259Y798906D01*
X1254678Y798078D01*
X1253204Y799063D01*
X1251140Y799474D01*
X1249076Y799063D01*
X1247326Y797894D01*
X1246954D01*
X1245204Y799063D01*
X1243140Y799474D01*
X1241076Y799063D01*
X1239326Y797894D01*
X1238157Y796144D01*
X1237746Y794080D01*
Y783080D01*
X1238157Y781016D01*
X1238996Y779760D01*
Y776865D01*
X1239312Y775279D01*
X1240210Y773935D01*
X1257300Y756845D01*
Y734060D01*
X1242840D01*
Y740040D01*
X1227055D01*
X1225385Y741555D01*
X1224840Y742500D01*
Y761630D01*
X1224840D01*
X1224306Y764678D01*
X1230894Y771266D01*
X1230894Y771266D01*
X1232045Y772988D01*
X1232449Y775020D01*
Y782655D01*
X1232534Y783080D01*
Y794080D01*
X1232123Y796144D01*
X1230954Y797894D01*
X1229204Y799063D01*
X1227140Y799474D01*
X1225076Y799063D01*
X1223326Y797894D01*
X1222954D01*
X1221204Y799063D01*
X1219140Y799474D01*
X1218252Y799297D01*
X1218106Y799364D01*
X1215924Y801546D01*
X1215857Y801692D01*
X1216034Y802580D01*
X1215623Y804644D01*
X1214454Y806394D01*
Y806766D01*
X1215623Y808516D01*
X1216034Y810580D01*
X1215623Y812644D01*
X1214454Y814394D01*
Y814766D01*
X1215623Y816516D01*
X1216034Y818580D01*
X1216004Y818730D01*
X1216116Y819161D01*
X1216775Y819917D01*
X1216775Y824243D01*
X1257251Y824243D01*
X1257251Y821684D01*
D02*
G37*
G36*
X1173850Y797070D02*
Y780490D01*
X1193430D01*
Y784636D01*
X1213746D01*
Y783080D01*
X1214157Y781016D01*
X1215326Y779266D01*
X1217076Y778097D01*
X1218179Y777878D01*
X1219340Y775245D01*
X1219380Y774768D01*
X1212332Y767720D01*
X1211181Y765998D01*
X1210777Y763966D01*
X1208952Y761630D01*
X1208260D01*
Y742050D01*
X1208260D01*
Y740984D01*
X1206084Y737936D01*
X1193262D01*
X1191273Y737674D01*
X1189419Y736906D01*
X1187827Y735685D01*
X1165505Y713363D01*
X1165505Y713363D01*
X1142698Y690555D01*
X1083674Y642686D01*
X1014730D01*
Y646430D01*
X1007007D01*
X1006284Y649264D01*
X1009064Y650416D01*
X1011452Y652248D01*
X1013284Y654636D01*
X1014436Y657416D01*
X1014829Y660400D01*
X1014436Y663384D01*
X1013284Y666164D01*
X1011452Y668552D01*
X1009064Y670384D01*
X1006284Y671536D01*
X1006078Y671563D01*
Y674637D01*
X1006284Y674664D01*
X1009064Y675816D01*
X1011452Y677648D01*
X1013284Y680036D01*
X1014436Y682816D01*
X1014494Y683260D01*
X1003300D01*
X992106D01*
X992164Y682816D01*
X993316Y680036D01*
X995148Y677648D01*
X997536Y675816D01*
X1000316Y674664D01*
X1000522Y674637D01*
Y671563D01*
X1000316Y671536D01*
X997536Y670384D01*
X995148Y668552D01*
X994050Y667121D01*
X991049Y666516D01*
X990216Y666645D01*
X987124Y669737D01*
Y690434D01*
X1001206Y704516D01*
X1020093D01*
X1021678Y704832D01*
X1023023Y705730D01*
X1023413Y706120D01*
X1043940D01*
X1163135Y798496D01*
X1171393D01*
X1173850Y797070D01*
D02*
G37*
G36*
X987671Y657470D02*
X989015Y656572D01*
X990601Y656256D01*
X992645D01*
X993316Y654636D01*
X995148Y652248D01*
X997536Y650416D01*
X1000316Y649264D01*
X999593Y646430D01*
X991870D01*
Y623570D01*
X1014730D01*
Y627314D01*
X1048954D01*
Y614527D01*
X1041773Y608703D01*
X1041773Y571500D01*
X1010331D01*
X1009662Y572934D01*
X1009497Y574548D01*
X1011452Y576048D01*
X1013284Y578436D01*
X1014436Y581216D01*
X1014494Y581660D01*
X1003300D01*
X992106D01*
X992164Y581216D01*
X993316Y578436D01*
X995148Y576048D01*
X997103Y574548D01*
X996938Y572934D01*
X996269Y571500D01*
X984250D01*
Y656908D01*
X987066Y658075D01*
X987671Y657470D01*
D02*
G37*
G36*
X992721Y1063280D02*
X966115Y1036675D01*
X964894Y1035083D01*
X964126Y1033229D01*
X963864Y1031240D01*
Y751840D01*
X964126Y749851D01*
X964894Y747997D01*
X966115Y746405D01*
X981355Y731165D01*
X982947Y729944D01*
X984801Y729176D01*
X986790Y728914D01*
X991870D01*
Y725170D01*
X1014730D01*
Y748030D01*
X1009398D01*
X1008640Y751840D01*
X1009064Y752016D01*
X1011452Y753848D01*
X1013284Y756236D01*
X1014436Y759016D01*
X1014829Y762000D01*
X1014436Y764984D01*
X1013284Y767764D01*
X1011452Y770152D01*
X1009064Y771984D01*
X1007444Y772655D01*
Y801290D01*
X1011540D01*
X1012430Y801290D01*
X1015350Y799141D01*
Y791790D01*
X1034430D01*
X1035010Y791150D01*
Y791150D01*
X1054590D01*
Y791150D01*
X1056600D01*
Y791150D01*
X1076180D01*
Y805340D01*
X1076180Y807730D01*
X1076180Y810626D01*
X1078386Y814436D01*
X1106718D01*
X1108296Y810626D01*
X1016062Y718392D01*
X997175D01*
X995590Y718076D01*
X994245Y717178D01*
X974462Y697395D01*
X973564Y696050D01*
X973248Y694465D01*
Y570738D01*
X973564Y569152D01*
X974462Y567808D01*
X986400Y555870D01*
X987744Y554972D01*
X989330Y554656D01*
X992645D01*
X993316Y553036D01*
X995148Y550648D01*
X997536Y548816D01*
X997960Y548640D01*
X997203Y544830D01*
X991870D01*
Y521970D01*
X1014730D01*
Y525714D01*
X1026160D01*
X1028149Y525976D01*
X1030003Y526744D01*
X1031595Y527965D01*
X1062075Y558445D01*
X1063296Y560037D01*
X1064064Y561891D01*
X1064326Y563880D01*
Y627314D01*
X1098012D01*
X1100001Y627576D01*
X1101855Y628344D01*
X1103447Y629565D01*
X1176375Y702493D01*
X1176375Y702493D01*
X1196446Y722564D01*
X1208260D01*
Y720460D01*
X1224350D01*
X1225915Y719309D01*
X1226840Y718365D01*
X1227315Y716650D01*
X1227267Y716280D01*
X1227511Y714423D01*
X1228228Y712693D01*
X1226264Y708994D01*
X1193800D01*
X1192214Y708678D01*
X1190870Y707780D01*
X1185790Y702700D01*
X1184892Y701356D01*
X1184576Y699770D01*
Y625300D01*
X1184892Y623714D01*
X1185790Y622370D01*
X1194610Y613550D01*
Y595830D01*
X1203500D01*
X1205690Y595830D01*
X1209500Y595830D01*
X1216200D01*
X1218390Y595830D01*
X1222200Y595830D01*
X1231090D01*
Y619410D01*
X1231090Y619410D01*
X1231910Y622880D01*
X1232479Y624253D01*
X1232723Y626110D01*
X1232479Y627967D01*
X1231762Y629697D01*
X1230622Y631182D01*
X1229137Y632322D01*
X1227407Y633039D01*
X1225550Y633283D01*
X1223693Y633039D01*
X1221963Y632322D01*
X1220478Y631182D01*
X1219338Y629697D01*
X1218621Y627967D01*
X1218377Y626110D01*
X1218621Y624253D01*
X1219186Y622890D01*
X1218427Y621348D01*
X1216924Y619410D01*
X1216200Y619410D01*
X1209500D01*
X1207310Y619410D01*
X1203500Y619410D01*
X1200470D01*
X1192864Y627016D01*
Y698054D01*
X1195516Y700706D01*
X1213108D01*
X1214566Y697186D01*
X1209967Y692587D01*
X1209068Y691242D01*
X1208753Y689657D01*
Y689410D01*
X1207310D01*
Y665830D01*
X1216188D01*
X1216213Y665815D01*
X1218588Y662305D01*
X1218601Y662108D01*
X1218377Y660400D01*
X1218621Y658543D01*
X1219338Y656813D01*
X1220478Y655328D01*
X1221963Y654188D01*
X1223693Y653471D01*
X1225550Y653227D01*
X1227407Y653471D01*
X1229137Y654188D01*
X1230622Y655328D01*
X1231762Y656813D01*
X1232479Y658543D01*
X1232723Y660400D01*
X1232499Y662108D01*
X1232512Y662305D01*
X1234887Y665815D01*
X1234912Y665830D01*
X1241588D01*
X1241613Y665815D01*
X1243988Y662305D01*
X1244001Y662108D01*
X1243777Y660400D01*
X1244021Y658543D01*
X1244738Y656813D01*
X1245878Y655328D01*
X1247363Y654188D01*
X1249093Y653471D01*
X1250950Y653227D01*
X1252807Y653471D01*
X1254537Y654188D01*
X1256022Y655328D01*
X1257162Y656813D01*
X1257879Y658543D01*
X1258123Y660400D01*
X1257899Y662108D01*
X1257912Y662305D01*
X1260287Y665815D01*
X1260312Y665830D01*
X1266988D01*
X1267013Y665815D01*
X1269389Y662305D01*
X1269401Y662108D01*
X1269177Y660400D01*
X1269421Y658543D01*
X1270138Y656813D01*
X1271278Y655328D01*
X1272763Y654188D01*
X1274493Y653471D01*
X1276350Y653227D01*
X1278207Y653471D01*
X1279937Y654188D01*
X1281422Y655328D01*
X1282562Y656813D01*
X1283279Y658543D01*
X1283523Y660400D01*
X1283279Y662257D01*
X1283159Y662546D01*
X1281890Y665830D01*
X1281890Y665830D01*
X1281890D01*
X1281890Y665830D01*
Y689410D01*
X1273000D01*
X1270810Y689410D01*
X1267794Y691326D01*
Y697206D01*
X1275727Y705139D01*
X1280064Y704088D01*
X1280178Y703731D01*
X1280106Y702894D01*
X1279581Y701627D01*
X1279337Y699770D01*
X1279581Y697913D01*
X1280298Y696183D01*
X1281438Y694698D01*
X1282923Y693558D01*
X1284653Y692841D01*
X1286510Y692597D01*
X1288367Y692841D01*
X1290097Y693558D01*
X1291582Y694698D01*
X1292722Y696183D01*
X1296808D01*
X1297948Y694698D01*
X1299433Y693558D01*
X1301163Y692841D01*
X1303020Y692597D01*
X1304877Y692841D01*
X1306607Y693558D01*
X1308092Y694698D01*
X1309232Y696183D01*
X1309949Y697913D01*
X1310193Y699770D01*
X1309949Y701627D01*
X1309232Y703357D01*
X1308092Y704842D01*
X1306607Y705982D01*
X1304877Y706699D01*
X1303020Y706943D01*
X1301859Y706791D01*
X1295734Y712916D01*
Y768633D01*
X1295418Y770218D01*
X1294520Y771563D01*
X1293284Y772799D01*
Y797186D01*
X1294640D01*
X1296704Y797597D01*
X1298454Y798766D01*
X1299623Y800516D01*
X1300034Y802580D01*
X1302663Y805013D01*
X1305931Y805299D01*
X1311520Y799710D01*
X1312864Y798812D01*
X1314450Y798496D01*
X1316090D01*
Y794350D01*
X1334413D01*
X1336137Y793659D01*
X1337680Y791373D01*
X1337680Y790650D01*
Y776460D01*
X1357260D01*
Y776460D01*
X1360395Y778090D01*
X1361070Y778367D01*
X1362123Y777931D01*
X1363980Y777687D01*
X1365837Y777931D01*
X1367567Y778648D01*
X1369052Y779788D01*
X1370192Y781273D01*
X1370909Y783003D01*
X1371153Y784860D01*
X1370909Y786717D01*
X1370192Y788447D01*
X1369052Y789932D01*
X1367567Y791072D01*
X1365837Y791789D01*
X1363980Y792033D01*
X1362123Y791789D01*
X1360241Y793588D01*
X1362659Y796670D01*
X1378850D01*
Y813250D01*
X1381821Y815274D01*
X1451610D01*
X1453599Y815536D01*
X1455453Y816304D01*
X1457045Y817525D01*
X1473844Y834324D01*
X1577710D01*
Y833720D01*
X1597290D01*
Y833720D01*
X1599300D01*
Y833720D01*
X1618880D01*
Y833720D01*
X1622390Y832996D01*
Y832220D01*
X1636580D01*
X1638970Y832220D01*
X1640453Y830043D01*
X1640501Y828410D01*
X1632576Y820486D01*
X1494790D01*
X1492801Y820224D01*
X1490947Y819456D01*
X1489355Y818235D01*
X1489355Y818235D01*
X1436015Y764895D01*
X1434794Y763303D01*
X1434026Y761449D01*
X1433764Y759460D01*
Y735454D01*
X1309784D01*
X1308687Y735909D01*
X1306830Y736153D01*
X1304973Y735909D01*
X1303243Y735192D01*
X1301758Y734052D01*
X1300618Y732567D01*
X1299901Y730837D01*
X1299657Y728980D01*
X1299901Y727123D01*
X1300618Y725393D01*
X1301758Y723908D01*
X1303243Y722768D01*
X1304973Y722051D01*
X1306830Y721807D01*
X1308687Y722051D01*
X1309784Y722506D01*
X1433764D01*
Y703580D01*
Y616126D01*
X1401710D01*
Y616730D01*
X1382130D01*
Y616730D01*
X1380120D01*
Y616730D01*
X1360540D01*
Y616730D01*
X1358530D01*
Y616730D01*
X1338950D01*
Y616730D01*
X1336940D01*
Y616730D01*
X1319069D01*
X1317360Y616730D01*
Y616730D01*
X1315350Y616510D01*
Y616510D01*
X1295770D01*
Y614435D01*
X1281890D01*
Y619410D01*
X1270810D01*
Y608599D01*
X1270735Y608220D01*
X1270810Y607841D01*
Y595830D01*
X1281890D01*
Y602005D01*
X1295770D01*
Y599930D01*
X1314047D01*
X1315772Y599305D01*
X1317360Y596953D01*
X1317360Y596340D01*
Y582150D01*
X1318632D01*
X1319933Y580314D01*
X1320707Y578340D01*
X1320221Y577167D01*
X1319977Y575310D01*
X1320129Y574149D01*
X1316544Y570564D01*
X1111250D01*
X1109664Y570248D01*
X1108320Y569350D01*
X1089270Y550300D01*
X1088372Y548956D01*
X1088056Y547370D01*
Y545610D01*
X1082410D01*
Y545610D01*
X1080400D01*
Y545610D01*
X1060820D01*
Y529030D01*
X1079188D01*
X1080913Y528270D01*
X1082410Y526053D01*
X1082410Y525220D01*
Y511030D01*
X1088056D01*
Y481330D01*
X1080770D01*
Y475998D01*
X1076960Y475240D01*
X1076784Y475664D01*
X1074952Y478052D01*
X1072564Y479884D01*
X1069784Y481036D01*
X1069340Y481094D01*
Y469900D01*
Y458706D01*
X1069784Y458764D01*
X1072564Y459916D01*
X1074952Y461748D01*
X1076784Y464136D01*
X1076960Y464560D01*
X1080770Y463802D01*
Y458470D01*
X1103630D01*
Y481330D01*
X1096344D01*
Y511030D01*
X1101990D01*
Y525220D01*
X1101990Y527610D01*
X1101990Y531420D01*
Y545610D01*
X1101688D01*
X1100110Y549420D01*
X1112966Y562276D01*
X1175008D01*
X1176466Y558756D01*
X1165470Y547760D01*
X1164572Y546416D01*
X1164256Y544830D01*
Y544340D01*
X1158610D01*
Y544340D01*
X1156600D01*
Y544340D01*
X1137020D01*
Y527760D01*
X1155388D01*
X1157113Y527000D01*
X1158610Y524783D01*
X1158610Y523950D01*
Y509760D01*
X1164256D01*
Y481330D01*
X1156970D01*
Y475998D01*
X1153160Y475240D01*
X1152984Y475664D01*
X1151152Y478052D01*
X1148764Y479884D01*
X1145984Y481036D01*
X1145540Y481094D01*
Y469900D01*
Y458706D01*
X1145984Y458764D01*
X1148764Y459916D01*
X1151152Y461748D01*
X1152984Y464136D01*
X1153160Y464560D01*
X1156970Y463802D01*
Y458470D01*
X1179830D01*
Y481330D01*
X1172544D01*
Y509760D01*
X1178190D01*
Y523950D01*
X1178190Y526340D01*
X1178190Y530150D01*
Y544340D01*
X1178190D01*
X1176895Y547465D01*
X1186118Y556688D01*
X1243080D01*
X1244538Y553168D01*
X1241670Y550300D01*
X1240772Y548956D01*
X1240456Y547370D01*
Y545610D01*
X1234810D01*
Y531420D01*
X1234810Y529030D01*
X1234810Y525220D01*
Y511030D01*
X1240456D01*
Y480555D01*
X1238836Y479884D01*
X1236448Y478052D01*
X1234616Y475664D01*
X1233856Y473829D01*
X1229944D01*
X1229184Y475664D01*
X1227352Y478052D01*
X1224964Y479884D01*
X1222184Y481036D01*
X1221740Y481094D01*
Y469900D01*
Y458706D01*
X1222184Y458764D01*
X1224964Y459916D01*
X1227352Y461748D01*
X1229184Y464136D01*
X1229944Y465971D01*
X1233856D01*
X1234616Y464136D01*
X1236448Y461748D01*
X1238836Y459916D01*
X1241616Y458764D01*
X1244600Y458371D01*
X1247584Y458764D01*
X1250364Y459916D01*
X1252752Y461748D01*
X1254584Y464136D01*
X1255344Y465971D01*
X1259256D01*
X1260016Y464136D01*
X1261848Y461748D01*
X1264236Y459916D01*
X1267016Y458764D01*
X1267460Y458706D01*
Y469900D01*
Y481094D01*
X1267016Y481036D01*
X1264236Y479884D01*
X1261848Y478052D01*
X1260016Y475664D01*
X1259256Y473829D01*
X1255344D01*
X1254584Y475664D01*
X1252752Y478052D01*
X1250364Y479884D01*
X1248744Y480555D01*
Y511030D01*
X1254390D01*
Y525527D01*
X1254875Y527824D01*
X1257612Y529030D01*
X1258200D01*
X1273453D01*
X1275177Y528339D01*
X1276720Y526053D01*
X1276720Y525330D01*
Y511140D01*
X1282366D01*
Y502920D01*
X1282682Y501334D01*
X1283580Y499990D01*
X1291256Y492314D01*
Y481330D01*
X1283970D01*
Y475998D01*
X1280160Y475240D01*
X1279984Y475664D01*
X1278152Y478052D01*
X1275764Y479884D01*
X1272984Y481036D01*
X1272540Y481094D01*
Y469900D01*
Y458706D01*
X1272984Y458764D01*
X1275764Y459916D01*
X1278152Y461748D01*
X1279984Y464136D01*
X1280160Y464560D01*
X1283970Y463802D01*
Y458470D01*
X1306830D01*
Y481330D01*
X1299544D01*
Y494030D01*
X1299228Y495616D01*
X1298330Y496960D01*
X1290654Y504636D01*
Y511140D01*
X1296300D01*
Y525330D01*
X1296300Y527720D01*
X1296300Y534336D01*
X1333500D01*
X1335086Y534652D01*
X1336430Y535550D01*
X1369169Y568289D01*
X1370330Y568137D01*
X1372187Y568381D01*
X1373917Y569098D01*
X1375402Y570238D01*
X1376542Y571723D01*
X1377259Y573453D01*
X1377503Y575310D01*
X1377259Y577167D01*
X1376773Y578340D01*
X1377547Y580314D01*
X1378848Y582150D01*
X1380120D01*
X1383402D01*
X1384703Y580314D01*
X1385477Y578340D01*
X1384991Y577167D01*
X1384747Y575310D01*
X1384991Y573453D01*
X1385708Y571723D01*
X1386848Y570238D01*
X1388333Y569098D01*
X1390063Y568381D01*
X1391920Y568137D01*
X1393777Y568381D01*
X1395507Y569098D01*
X1396992Y570238D01*
X1400872Y569388D01*
X1410636Y559624D01*
Y545610D01*
X1404990D01*
Y545610D01*
X1402980D01*
Y545610D01*
X1385154D01*
X1381390Y545720D01*
X1381078Y545975D01*
X1378723Y549530D01*
X1378773Y549910D01*
X1378529Y551767D01*
X1377812Y553497D01*
X1376672Y554982D01*
X1375187Y556122D01*
X1373457Y556839D01*
X1371600Y557083D01*
X1369743Y556839D01*
X1368013Y556122D01*
X1366528Y554982D01*
X1365388Y553497D01*
X1364671Y551767D01*
X1364427Y549910D01*
X1364477Y549530D01*
X1363903Y548663D01*
X1361810Y545720D01*
X1361810Y545720D01*
X1361810Y545720D01*
Y531530D01*
X1361810Y529140D01*
X1361810Y525330D01*
Y511140D01*
X1367456D01*
Y480555D01*
X1365836Y479884D01*
X1363448Y478052D01*
X1361616Y475664D01*
X1360856Y473829D01*
X1356944D01*
X1356184Y475664D01*
X1354352Y478052D01*
X1351964Y479884D01*
X1349184Y481036D01*
X1348740Y481094D01*
Y469900D01*
Y458706D01*
X1349184Y458764D01*
X1351964Y459916D01*
X1354352Y461748D01*
X1356184Y464136D01*
X1356944Y465971D01*
X1360856D01*
X1361616Y464136D01*
X1363448Y461748D01*
X1365836Y459916D01*
X1368616Y458764D01*
X1371600Y458371D01*
X1374584Y458764D01*
X1377364Y459916D01*
X1379752Y461748D01*
X1381584Y464136D01*
X1382344Y465971D01*
X1386256D01*
X1387016Y464136D01*
X1388848Y461748D01*
X1391236Y459916D01*
X1394016Y458764D01*
X1394460Y458706D01*
Y469900D01*
Y481094D01*
X1394016Y481036D01*
X1391236Y479884D01*
X1388848Y478052D01*
X1387016Y475664D01*
X1386256Y473829D01*
X1382344D01*
X1381584Y475664D01*
X1379752Y478052D01*
X1377364Y479884D01*
X1375744Y480555D01*
Y511140D01*
X1381390D01*
X1381390Y526053D01*
X1382933Y528339D01*
X1384657Y529030D01*
X1385155Y529030D01*
X1401768D01*
X1403493Y528270D01*
X1404990Y526053D01*
X1404990Y525220D01*
Y511030D01*
X1410636D01*
Y499110D01*
X1410952Y497524D01*
X1411850Y496180D01*
X1418256Y489774D01*
Y481330D01*
X1410970D01*
Y475998D01*
X1407160Y475240D01*
X1406984Y475664D01*
X1405152Y478052D01*
X1402764Y479884D01*
X1399984Y481036D01*
X1399540Y481094D01*
Y469900D01*
Y458706D01*
X1399984Y458764D01*
X1402764Y459916D01*
X1405152Y461748D01*
X1406984Y464136D01*
X1407160Y464560D01*
X1410970Y463802D01*
Y458470D01*
X1433830D01*
Y481330D01*
X1426544D01*
Y491490D01*
X1426228Y493076D01*
X1425330Y494420D01*
X1418924Y500826D01*
Y511030D01*
X1424570D01*
Y525220D01*
X1424570Y527610D01*
X1424570Y531420D01*
Y545610D01*
X1418924D01*
Y561340D01*
X1418608Y562926D01*
X1417710Y564270D01*
X1403740Y578240D01*
X1402871Y578821D01*
X1401710Y582150D01*
X1401710Y582150D01*
X1401710D01*
X1401710Y582150D01*
Y596340D01*
X1401710Y598730D01*
X1404682Y600754D01*
X1433764D01*
Y575310D01*
Y496570D01*
X1434026Y494581D01*
X1434794Y492727D01*
X1436015Y491135D01*
X1452525Y474625D01*
X1454117Y473404D01*
X1455971Y472636D01*
X1457960Y472374D01*
X1457960Y472374D01*
X1464800D01*
Y470270D01*
X1481380D01*
Y489850D01*
X1481380D01*
X1481597Y493570D01*
X1484990D01*
Y502639D01*
X1485570Y503354D01*
X1488618Y505091D01*
X1489123Y504881D01*
X1490980Y504637D01*
X1492837Y504881D01*
X1494567Y505598D01*
X1496052Y506738D01*
X1497192Y508223D01*
X1497909Y509953D01*
X1498153Y511810D01*
X1497909Y513667D01*
X1497192Y515397D01*
X1496052Y516882D01*
X1494567Y518022D01*
X1492837Y518739D01*
X1490980Y518983D01*
X1489123Y518739D01*
X1488618Y518529D01*
X1485570Y520266D01*
X1484990Y520981D01*
Y528039D01*
X1485570Y528754D01*
X1488618Y530491D01*
X1489123Y530281D01*
X1490980Y530037D01*
X1492837Y530281D01*
X1494567Y530998D01*
X1496052Y532138D01*
X1497192Y533623D01*
X1497909Y535353D01*
X1498153Y537210D01*
X1497909Y539067D01*
X1497192Y540797D01*
X1496052Y542282D01*
X1494567Y543422D01*
X1492837Y544139D01*
X1490980Y544383D01*
X1489123Y544139D01*
X1488618Y543929D01*
X1485570Y545666D01*
X1484990Y546381D01*
Y553439D01*
X1485570Y554154D01*
X1488618Y555891D01*
X1489123Y555681D01*
X1490980Y555437D01*
X1492837Y555681D01*
X1494567Y556398D01*
X1496052Y557538D01*
X1497192Y559023D01*
X1497909Y560753D01*
X1498153Y562610D01*
X1497909Y564467D01*
X1497192Y566197D01*
X1496052Y567682D01*
X1494567Y568822D01*
X1492837Y569539D01*
X1490980Y569783D01*
X1489123Y569539D01*
X1488618Y569329D01*
X1485570Y571066D01*
X1484990Y571781D01*
Y578660D01*
X1484990Y580850D01*
X1484990Y584660D01*
Y593550D01*
X1461410D01*
X1461410Y582470D01*
X1458259Y580878D01*
X1449136D01*
Y597231D01*
X1451610Y600644D01*
X1464800D01*
Y598540D01*
X1481380D01*
Y618120D01*
X1481380D01*
X1481597Y621840D01*
X1484870D01*
Y626896D01*
X1488663Y628788D01*
X1490393Y628071D01*
X1492250Y627827D01*
X1494107Y628071D01*
X1495837Y628788D01*
X1497322Y629928D01*
X1498462Y631413D01*
X1499179Y633143D01*
X1499423Y635000D01*
X1499179Y636857D01*
X1498462Y638587D01*
X1497322Y640072D01*
X1495837Y641212D01*
X1494107Y641929D01*
X1492250Y642173D01*
X1490766Y641978D01*
X1489917Y642827D01*
X1488657Y643669D01*
X1487170Y643965D01*
X1486161D01*
X1484870Y647240D01*
X1484870Y649430D01*
Y656402D01*
X1485581Y657209D01*
X1488473Y658821D01*
X1489123Y658551D01*
X1490980Y658307D01*
X1492837Y658551D01*
X1494567Y659268D01*
X1496052Y660408D01*
X1497192Y661893D01*
X1497909Y663623D01*
X1498153Y665480D01*
X1497909Y667337D01*
X1497192Y669067D01*
X1496052Y670552D01*
X1494567Y671692D01*
X1492837Y672409D01*
X1490980Y672653D01*
X1489123Y672409D01*
X1488473Y672139D01*
X1485581Y673751D01*
X1484870Y674558D01*
Y681802D01*
X1485581Y682609D01*
X1488473Y684221D01*
X1489123Y683951D01*
X1490980Y683707D01*
X1492837Y683951D01*
X1494567Y684668D01*
X1496052Y685808D01*
X1497192Y687293D01*
X1497909Y689023D01*
X1498153Y690880D01*
X1497909Y692737D01*
X1497192Y694467D01*
X1496052Y695952D01*
X1494567Y697092D01*
X1492837Y697809D01*
X1490980Y698053D01*
X1489123Y697809D01*
X1488473Y697539D01*
X1485581Y699151D01*
X1484870Y699958D01*
Y707202D01*
X1485581Y708009D01*
X1488473Y709621D01*
X1489123Y709351D01*
X1490980Y709107D01*
X1492837Y709351D01*
X1494567Y710068D01*
X1496052Y711208D01*
X1497192Y712693D01*
X1497909Y714423D01*
X1498153Y716280D01*
X1497909Y718137D01*
X1497192Y719867D01*
X1496052Y721352D01*
X1494567Y722492D01*
X1492837Y723209D01*
X1490980Y723453D01*
X1489123Y723209D01*
X1488254Y722849D01*
X1484870Y721820D01*
X1484870Y721820D01*
Y721820D01*
X1484870Y721820D01*
X1461290D01*
X1461290Y710740D01*
X1458139Y709148D01*
X1449136D01*
Y731520D01*
Y756276D01*
X1497973Y805114D01*
X1635760D01*
X1637749Y805376D01*
X1639603Y806144D01*
X1641195Y807365D01*
X1654115Y820285D01*
X1655336Y821877D01*
X1656104Y823731D01*
X1656366Y825720D01*
X1656366Y825720D01*
Y832220D01*
X1656970D01*
Y832244D01*
X1660260Y833500D01*
Y833500D01*
X1678086D01*
X1679840Y833500D01*
Y833500D01*
X1681850Y833610D01*
Y833610D01*
X1699676D01*
X1701430Y833610D01*
Y833610D01*
X1703004Y833696D01*
X1706102Y832890D01*
X1706814Y832668D01*
Y811530D01*
X1703070D01*
Y788670D01*
X1708403D01*
X1709160Y784860D01*
X1708736Y784684D01*
X1706348Y782852D01*
X1704516Y780464D01*
X1703364Y777684D01*
X1703306Y777240D01*
X1714500D01*
X1725694D01*
X1725636Y777684D01*
X1724484Y780464D01*
X1722652Y782852D01*
X1720264Y784684D01*
X1719840Y784860D01*
X1720598Y788670D01*
X1725930D01*
Y811530D01*
X1722186D01*
Y833720D01*
X1723020D01*
Y834324D01*
X1732280D01*
X1734269Y834586D01*
X1736123Y835354D01*
X1737715Y836575D01*
X1765655Y864515D01*
X1766876Y866107D01*
X1767644Y867961D01*
X1767906Y869950D01*
Y966470D01*
X1767644Y968459D01*
X1766876Y970313D01*
X1765655Y971905D01*
X1750415Y987145D01*
X1748823Y988366D01*
X1746969Y989134D01*
X1744980Y989396D01*
X1737740D01*
Y1000000D01*
X1734776D01*
Y1012129D01*
X1736800Y1015100D01*
X1739190Y1015100D01*
X1753380D01*
Y1034680D01*
X1753380D01*
Y1036690D01*
X1753380D01*
Y1056270D01*
X1736800D01*
Y1037902D01*
X1736040Y1036177D01*
X1733823Y1034680D01*
X1732990Y1034680D01*
X1718800D01*
Y1015100D01*
X1719404D01*
Y1000000D01*
X1716660D01*
Y989396D01*
X1666290D01*
Y994410D01*
X1666093Y995401D01*
X1665531Y996241D01*
X1664691Y996803D01*
X1663700Y997000D01*
X1614170D01*
X1613179Y996803D01*
X1612339Y996241D01*
X1611777Y995401D01*
X1611580Y994410D01*
Y989396D01*
X1562100D01*
X1562100Y1066800D01*
X1772920Y1066800D01*
X1772920Y411480D01*
X944880D01*
X944880Y1066800D01*
X991263D01*
X992721Y1063280D01*
D02*
G37*
%LPC*%
G36*
X1640840Y930001D02*
Y918210D01*
X1652631D01*
X1652466Y919466D01*
X1651001Y923003D01*
X1648670Y926040D01*
X1645633Y928371D01*
X1642096Y929836D01*
X1640840Y930001D01*
D02*
G37*
G36*
X1635760D02*
X1634504Y929836D01*
X1630967Y928371D01*
X1627930Y926040D01*
X1625599Y923003D01*
X1624134Y919466D01*
X1623969Y918210D01*
X1635760D01*
Y930001D01*
D02*
G37*
G36*
X1652631Y913130D02*
X1640840D01*
Y901339D01*
X1642096Y901504D01*
X1645633Y902969D01*
X1648670Y905300D01*
X1651001Y908337D01*
X1652466Y911874D01*
X1652631Y913130D01*
D02*
G37*
G36*
X1635760D02*
X1623969D01*
X1624134Y911874D01*
X1625599Y908337D01*
X1627930Y905300D01*
X1630967Y902969D01*
X1634504Y901504D01*
X1635760Y901339D01*
Y913130D01*
D02*
G37*
G36*
X1460500Y930335D02*
X1456704Y929836D01*
X1453167Y928371D01*
X1450130Y926040D01*
X1447799Y923003D01*
X1446334Y919466D01*
X1445835Y915670D01*
X1446334Y911874D01*
X1447799Y908337D01*
X1450130Y905300D01*
X1453167Y902969D01*
X1456704Y901504D01*
X1460500Y901004D01*
X1464296Y901504D01*
X1467833Y902969D01*
X1470870Y905300D01*
X1473201Y908337D01*
X1474666Y911874D01*
X1475166Y915670D01*
X1474666Y919466D01*
X1473201Y923003D01*
X1470870Y926040D01*
X1467833Y928371D01*
X1464296Y929836D01*
X1460500Y930335D01*
D02*
G37*
G36*
X1005840Y950994D02*
Y942340D01*
X1014494D01*
X1014436Y942784D01*
X1013284Y945564D01*
X1011452Y947952D01*
X1009064Y949784D01*
X1006284Y950936D01*
X1005840Y950994D01*
D02*
G37*
G36*
X1000760D02*
X1000316Y950936D01*
X997536Y949784D01*
X995148Y947952D01*
X993316Y945564D01*
X992164Y942784D01*
X992106Y942340D01*
X1000760D01*
Y950994D01*
D02*
G37*
G36*
X1005840Y696994D02*
Y688340D01*
X1014494D01*
X1014436Y688784D01*
X1013284Y691564D01*
X1011452Y693952D01*
X1009064Y695784D01*
X1006284Y696936D01*
X1005840Y696994D01*
D02*
G37*
G36*
X1000760D02*
X1000316Y696936D01*
X997536Y695784D01*
X995148Y693952D01*
X993316Y691564D01*
X992164Y688784D01*
X992106Y688340D01*
X1000760D01*
Y696994D01*
D02*
G37*
G36*
X1005840Y595394D02*
Y586740D01*
X1014494D01*
X1014436Y587184D01*
X1013284Y589964D01*
X1011452Y592352D01*
X1009064Y594184D01*
X1006284Y595336D01*
X1005840Y595394D01*
D02*
G37*
G36*
X1000760D02*
X1000316Y595336D01*
X997536Y594184D01*
X995148Y592352D01*
X993316Y589964D01*
X992164Y587184D01*
X992106Y586740D01*
X1000760D01*
Y595394D01*
D02*
G37*
G36*
X1725694Y772160D02*
X1717040D01*
Y763506D01*
X1717484Y763564D01*
X1720264Y764716D01*
X1722652Y766548D01*
X1724484Y768936D01*
X1725636Y771716D01*
X1725694Y772160D01*
D02*
G37*
G36*
X1711960D02*
X1703306D01*
X1703364Y771716D01*
X1704516Y768936D01*
X1706348Y766548D01*
X1708736Y764716D01*
X1711516Y763564D01*
X1711960Y763506D01*
Y772160D01*
D02*
G37*
G36*
X1618090Y776793D02*
X1616233Y776549D01*
X1614503Y775832D01*
X1613018Y774692D01*
X1611878Y773207D01*
X1611161Y771477D01*
X1610917Y769620D01*
X1611161Y767763D01*
X1611597Y766710D01*
X1610412Y763823D01*
X1609800Y762900D01*
X1605990Y762900D01*
X1591800D01*
Y757254D01*
X1591310D01*
X1589724Y756938D01*
X1588380Y756040D01*
X1543737Y711397D01*
X1540870Y709120D01*
Y709120D01*
X1540870Y709120D01*
X1517290D01*
Y700230D01*
X1517290Y698040D01*
X1517290Y694230D01*
Y687530D01*
X1517290Y685340D01*
X1517290Y681530D01*
Y674830D01*
X1517290Y672640D01*
X1517290Y668830D01*
Y662130D01*
X1517290Y659940D01*
X1517290Y656130D01*
Y649430D01*
X1517290Y647240D01*
X1517290Y643430D01*
Y636730D01*
X1517290Y634540D01*
X1517290Y630730D01*
Y621840D01*
X1540870D01*
Y623236D01*
X1564194D01*
X1566790Y620640D01*
X1568134Y619742D01*
X1569720Y619426D01*
X1591910D01*
X1591910Y612775D01*
X1591910Y609970D01*
Y606124D01*
X1588205D01*
X1587492Y607052D01*
X1586007Y608192D01*
X1584277Y608909D01*
X1582420Y609153D01*
X1580563Y608909D01*
X1578833Y608192D01*
X1577348Y607052D01*
X1576208Y605567D01*
X1575491Y603837D01*
X1575247Y601980D01*
X1575491Y600123D01*
X1576208Y598393D01*
X1577348Y596908D01*
X1578833Y595768D01*
X1580563Y595051D01*
X1582420Y594807D01*
X1584277Y595051D01*
X1586007Y595768D01*
X1587492Y596908D01*
X1588205Y597836D01*
X1591910D01*
X1591910Y591185D01*
X1591910Y588380D01*
Y584534D01*
X1578610D01*
X1577024Y584218D01*
X1575680Y583320D01*
X1571814Y579454D01*
X1540990D01*
Y580850D01*
X1517410D01*
Y571960D01*
X1517410Y569770D01*
X1517410Y565960D01*
Y559260D01*
X1517410Y557070D01*
X1517410Y553260D01*
Y546560D01*
X1517410Y544370D01*
X1517410Y540560D01*
Y533860D01*
X1517410Y531670D01*
X1517410Y527860D01*
Y521160D01*
X1517410Y518970D01*
X1517410Y515160D01*
Y508460D01*
X1517410Y506270D01*
X1517410Y502460D01*
Y493570D01*
X1540990D01*
X1544194Y492106D01*
X1588380Y447920D01*
X1589724Y447022D01*
X1591310Y446706D01*
X1591800D01*
X1591800Y440055D01*
X1591800Y437398D01*
X1591681Y436200D01*
X1591109Y435643D01*
X1587492Y434332D01*
X1586007Y435472D01*
X1584277Y436189D01*
X1582420Y436433D01*
X1580563Y436189D01*
X1578833Y435472D01*
X1577348Y434332D01*
X1576208Y432847D01*
X1575491Y431117D01*
X1575247Y429260D01*
X1575491Y427403D01*
X1576208Y425673D01*
X1577348Y424188D01*
X1578833Y423048D01*
X1580563Y422331D01*
X1582420Y422087D01*
X1584277Y422331D01*
X1586007Y423048D01*
X1587492Y424188D01*
X1591109Y422878D01*
X1591800Y422204D01*
Y419470D01*
X1605990D01*
X1608380Y419470D01*
X1612190Y419470D01*
X1626380D01*
Y425116D01*
X1628140D01*
X1629726Y425432D01*
X1631070Y426330D01*
X1646593Y441853D01*
X1647491Y443197D01*
X1647806Y444783D01*
Y448851D01*
X1696462Y497506D01*
X1709923D01*
X1710681Y493696D01*
X1708966Y492986D01*
X1703592Y489693D01*
X1698800Y485600D01*
X1694707Y480808D01*
X1691414Y475434D01*
X1689002Y469611D01*
X1687531Y463483D01*
X1687236Y459740D01*
X1727200D01*
X1767164D01*
X1766869Y463483D01*
X1765398Y469611D01*
X1762986Y475434D01*
X1759693Y480808D01*
X1755600Y485600D01*
X1750808Y489693D01*
X1745434Y492986D01*
X1743719Y493696D01*
X1744477Y497506D01*
X1755705D01*
X1756418Y496578D01*
X1757903Y495438D01*
X1759633Y494721D01*
X1761490Y494477D01*
X1763347Y494721D01*
X1765077Y495438D01*
X1766562Y496578D01*
X1767702Y498063D01*
X1768419Y499793D01*
X1768663Y501650D01*
X1768419Y503507D01*
X1767702Y505237D01*
X1766562Y506722D01*
X1765077Y507862D01*
X1763347Y508579D01*
X1761490Y508823D01*
X1759633Y508579D01*
X1757903Y507862D01*
X1756418Y506722D01*
X1755705Y505794D01*
X1744722D01*
X1743264Y509314D01*
X1747995Y514045D01*
X1749616Y513374D01*
X1752600Y512981D01*
X1755584Y513374D01*
X1758364Y514526D01*
X1760752Y516358D01*
X1762584Y518746D01*
X1763736Y521526D01*
X1764129Y524510D01*
X1763736Y527494D01*
X1762584Y530274D01*
X1760752Y532662D01*
X1758364Y534494D01*
X1756529Y535254D01*
Y539166D01*
X1758364Y539926D01*
X1760752Y541758D01*
X1762584Y544146D01*
X1763736Y546926D01*
X1764129Y549910D01*
X1763736Y552894D01*
X1762584Y555674D01*
X1760752Y558062D01*
X1758364Y559894D01*
X1756529Y560654D01*
Y564566D01*
X1758364Y565326D01*
X1760752Y567158D01*
X1762584Y569546D01*
X1763736Y572326D01*
X1764129Y575310D01*
X1763736Y578294D01*
X1762584Y581074D01*
X1760752Y583462D01*
X1758364Y585294D01*
X1756529Y586054D01*
Y589966D01*
X1758364Y590726D01*
X1760752Y592558D01*
X1762584Y594946D01*
X1763736Y597726D01*
X1763794Y598170D01*
X1752600D01*
Y603250D01*
X1763794D01*
X1763736Y603694D01*
X1762584Y606474D01*
X1760752Y608862D01*
X1758364Y610694D01*
X1756529Y611454D01*
Y615366D01*
X1758364Y616126D01*
X1760752Y617958D01*
X1762584Y620346D01*
X1763736Y623126D01*
X1763794Y623570D01*
X1752600D01*
Y628650D01*
X1763794D01*
X1763736Y629094D01*
X1762584Y631874D01*
X1760752Y634262D01*
X1758364Y636094D01*
X1756529Y636854D01*
Y640766D01*
X1758364Y641526D01*
X1760752Y643358D01*
X1762584Y645746D01*
X1763736Y648526D01*
X1764129Y651510D01*
X1763736Y654494D01*
X1762584Y657274D01*
X1760752Y659662D01*
X1758364Y661494D01*
X1756529Y662254D01*
Y666166D01*
X1758364Y666926D01*
X1760752Y668758D01*
X1762584Y671146D01*
X1763736Y673926D01*
X1764129Y676910D01*
X1763736Y679894D01*
X1762584Y682674D01*
X1760752Y685062D01*
X1758364Y686894D01*
X1756529Y687654D01*
Y691566D01*
X1758364Y692326D01*
X1760752Y694158D01*
X1762584Y696546D01*
X1763736Y699326D01*
X1764129Y702310D01*
X1763736Y705294D01*
X1762584Y708074D01*
X1760752Y710462D01*
X1758364Y712294D01*
X1756529Y713054D01*
Y716966D01*
X1758364Y717726D01*
X1760752Y719558D01*
X1762584Y721946D01*
X1763736Y724726D01*
X1764129Y727710D01*
X1763736Y730694D01*
X1762584Y733474D01*
X1760752Y735862D01*
X1758364Y737694D01*
X1756744Y738365D01*
Y739140D01*
X1756428Y740726D01*
X1755530Y742070D01*
X1749942Y747658D01*
X1748598Y748556D01*
X1747012Y748872D01*
X1690878D01*
X1689292Y748556D01*
X1687948Y747658D01*
X1651824Y711534D01*
X1626380D01*
X1626380Y720725D01*
X1626380Y723382D01*
X1626499Y724580D01*
X1627071Y725137D01*
X1630688Y726448D01*
X1632173Y725308D01*
X1633903Y724591D01*
X1635760Y724347D01*
X1637617Y724591D01*
X1639347Y725308D01*
X1640832Y726448D01*
X1641972Y727933D01*
X1642689Y729663D01*
X1642933Y731520D01*
X1642689Y733377D01*
X1641972Y735107D01*
X1640832Y736592D01*
X1639347Y737732D01*
X1637617Y738449D01*
X1635760Y738693D01*
X1633903Y738449D01*
X1632173Y737732D01*
X1630688Y736592D01*
X1627071Y737903D01*
X1626380Y738576D01*
X1626380Y742315D01*
X1626380Y745120D01*
Y762900D01*
X1626380D01*
X1624844Y766074D01*
X1624583Y766710D01*
X1625019Y767763D01*
X1625263Y769620D01*
X1625019Y771477D01*
X1624302Y773207D01*
X1623162Y774692D01*
X1621677Y775832D01*
X1619947Y776549D01*
X1618090Y776793D01*
D02*
G37*
G36*
X1256490Y619410D02*
X1245410D01*
Y595830D01*
X1256490D01*
Y619410D01*
D02*
G37*
G36*
X1343660Y481094D02*
X1343216Y481036D01*
X1340436Y479884D01*
X1338048Y478052D01*
X1336216Y475664D01*
X1335064Y472884D01*
X1335006Y472440D01*
X1343660D01*
Y481094D01*
D02*
G37*
G36*
X1216660D02*
X1216216Y481036D01*
X1213436Y479884D01*
X1211048Y478052D01*
X1209216Y475664D01*
X1208064Y472884D01*
X1208006Y472440D01*
X1216660D01*
Y481094D01*
D02*
G37*
G36*
X1140460D02*
X1140016Y481036D01*
X1137236Y479884D01*
X1134848Y478052D01*
X1133016Y475664D01*
X1131864Y472884D01*
X1131806Y472440D01*
X1140460D01*
Y481094D01*
D02*
G37*
G36*
X1064260D02*
X1063816Y481036D01*
X1061036Y479884D01*
X1058648Y478052D01*
X1056816Y475664D01*
X1055664Y472884D01*
X1055606Y472440D01*
X1064260D01*
Y481094D01*
D02*
G37*
G36*
X993140Y497164D02*
Y459740D01*
X1030564D01*
X1030269Y463483D01*
X1028798Y469611D01*
X1026386Y475434D01*
X1023093Y480808D01*
X1019000Y485600D01*
X1014208Y489693D01*
X1008834Y492986D01*
X1003011Y495398D01*
X996883Y496869D01*
X993140Y497164D01*
D02*
G37*
G36*
X988060D02*
X984317Y496869D01*
X978189Y495398D01*
X972366Y492986D01*
X966992Y489693D01*
X962200Y485600D01*
X958107Y480808D01*
X954814Y475434D01*
X952402Y469611D01*
X950931Y463483D01*
X950636Y459740D01*
X988060D01*
Y497164D01*
D02*
G37*
G36*
X1343660Y467360D02*
X1335006D01*
X1335064Y466916D01*
X1336216Y464136D01*
X1338048Y461748D01*
X1340436Y459916D01*
X1343216Y458764D01*
X1343660Y458706D01*
Y467360D01*
D02*
G37*
G36*
X1216660D02*
X1208006D01*
X1208064Y466916D01*
X1209216Y464136D01*
X1211048Y461748D01*
X1213436Y459916D01*
X1216216Y458764D01*
X1216660Y458706D01*
Y467360D01*
D02*
G37*
G36*
X1140460D02*
X1131806D01*
X1131864Y466916D01*
X1133016Y464136D01*
X1134848Y461748D01*
X1137236Y459916D01*
X1140016Y458764D01*
X1140460Y458706D01*
Y467360D01*
D02*
G37*
G36*
X1064260D02*
X1055606D01*
X1055664Y466916D01*
X1056816Y464136D01*
X1058648Y461748D01*
X1061036Y459916D01*
X1063816Y458764D01*
X1064260Y458706D01*
Y467360D01*
D02*
G37*
G36*
X1767164Y454660D02*
X1729740D01*
Y417236D01*
X1733483Y417531D01*
X1739611Y419002D01*
X1745434Y421414D01*
X1750808Y424707D01*
X1755600Y428800D01*
X1759693Y433592D01*
X1762986Y438966D01*
X1765398Y444789D01*
X1766869Y450917D01*
X1767164Y454660D01*
D02*
G37*
G36*
X1030564D02*
X993140D01*
Y417236D01*
X996883Y417531D01*
X1003011Y419002D01*
X1008834Y421414D01*
X1014208Y424707D01*
X1019000Y428800D01*
X1023093Y433592D01*
X1026386Y438966D01*
X1028798Y444789D01*
X1030269Y450917D01*
X1030564Y454660D01*
D02*
G37*
G36*
X1724660D02*
X1687236D01*
X1687531Y450917D01*
X1689002Y444789D01*
X1691414Y438966D01*
X1694707Y433592D01*
X1698800Y428800D01*
X1703592Y424707D01*
X1708966Y421414D01*
X1714789Y419002D01*
X1720917Y417531D01*
X1724660Y417236D01*
Y454660D01*
D02*
G37*
G36*
X988060D02*
X950636D01*
X950931Y450917D01*
X952402Y444789D01*
X954814Y438966D01*
X958107Y433592D01*
X962200Y428800D01*
X966992Y424707D01*
X972366Y421414D01*
X978189Y419002D01*
X984317Y417531D01*
X988060Y417236D01*
Y454660D01*
D02*
G37*
G36*
X1469390Y452719D02*
X1465804Y452365D01*
X1462357Y451320D01*
X1459180Y449621D01*
X1456394Y447336D01*
X1454109Y444551D01*
X1452410Y441373D01*
X1451365Y437925D01*
X1451012Y434340D01*
X1451365Y430755D01*
X1452410Y427307D01*
X1454109Y424129D01*
X1456394Y421344D01*
X1459180Y419059D01*
X1462357Y417360D01*
X1465804Y416315D01*
X1469390Y415961D01*
X1472975Y416315D01*
X1476423Y417360D01*
X1479601Y419059D01*
X1482386Y421344D01*
X1484671Y424129D01*
X1486369Y427307D01*
X1487415Y430755D01*
X1487769Y434340D01*
X1487415Y437925D01*
X1486369Y441373D01*
X1484671Y444551D01*
X1482386Y447336D01*
X1479601Y449621D01*
X1476423Y451320D01*
X1472975Y452365D01*
X1469390Y452719D01*
D02*
G37*
%LPD*%
D13*
X1714500Y664210D02*
X1739900D01*
X1487170Y640080D02*
X1492250Y635000D01*
X1473080Y640080D02*
X1487170D01*
X1270000Y818580D02*
X1289140D01*
X1739900Y664210D02*
X1752600Y676910D01*
X1739900Y562610D02*
X1752600Y575310D01*
X1714500Y562610D02*
X1739900D01*
D15*
X1067530Y818580D02*
X1205140D01*
X1066390Y817440D02*
X1067530Y818580D01*
X1114073Y802640D02*
X1205080D01*
X1020093Y708660D02*
X1114073Y802640D01*
X1205080D02*
X1205140Y802580D01*
X1188720Y625300D02*
Y699770D01*
X1193800Y704850D02*
X1245870D01*
X1188720Y699770D02*
X1193800Y704850D01*
X1263650Y722630D02*
Y756355D01*
X1245870Y704850D02*
X1263650Y722630D01*
X1243140Y776865D02*
X1263650Y756355D01*
X1269238Y720315D02*
Y758669D01*
X1248185Y699262D02*
X1269238Y720315D01*
X1251140Y776767D02*
X1269238Y758669D01*
X1274826Y718001D02*
Y760984D01*
X1250499Y693674D02*
X1274826Y718001D01*
X1259140Y776670D02*
X1274826Y760984D01*
X1280414Y715686D02*
Y764003D01*
X1263650Y698922D02*
X1280414Y715686D01*
X1267140Y777277D02*
X1280414Y764003D01*
X1267140Y777277D02*
Y788580D01*
X1263650Y677620D02*
Y698922D01*
X1240338Y693674D02*
X1250499D01*
X1238553Y691889D02*
X1240338Y693674D01*
X1238553Y677923D02*
Y691889D01*
X1212896Y689657D02*
X1222502Y699262D01*
X1248185D01*
X1238250Y677620D02*
X1238553Y677923D01*
X1212850Y677620D02*
X1212896Y677666D01*
Y689657D01*
X1618090Y753110D02*
Y769620D01*
X1618200Y580390D02*
X1633220D01*
X1643380Y570230D02*
X1668780D01*
X1633220Y580390D02*
X1643380Y570230D01*
X1618200Y537210D02*
X1659890D01*
X1675892Y553212D01*
X1692685D01*
X1618200Y515620D02*
X1677105D01*
X1689100Y527615D02*
Y541020D01*
X1677105Y515620D02*
X1689100Y527615D01*
X1618200Y494030D02*
X1663417D01*
X1703956Y540636D02*
X1704340Y541020D01*
X1703956Y534568D02*
Y540636D01*
X1663417Y494030D02*
X1703956Y534568D01*
X1692431Y507238D02*
X1735328D01*
X1636043Y450850D02*
X1692431Y507238D01*
X1735328D02*
X1752600Y524510D01*
X1643663Y450567D02*
X1694745Y501650D01*
X1628140Y429260D02*
X1643663Y444783D01*
Y450567D01*
X1618090Y429260D02*
X1628140D01*
X1694745Y501650D02*
X1761490D01*
X1618090Y429260D02*
Y430760D01*
X1621790Y450850D02*
X1636043D01*
X1618200Y472440D02*
X1649730D01*
X1727200Y549910D01*
X1618200Y558800D02*
X1690370D01*
X1692685Y553212D02*
X1702083Y562610D01*
X1690370Y558800D02*
X1706880Y575310D01*
X1659890Y623570D02*
X1697990Y661670D01*
X1618200Y623570D02*
X1659890D01*
X1654810Y604520D02*
X1714500Y664210D01*
X1620740Y604520D02*
X1654810D01*
X1618090Y645160D02*
X1657633D01*
X1689383Y676910D01*
X1336802Y560832D02*
X1346200Y570230D01*
X1184402Y560832D02*
X1336802D01*
X1346200Y570230D02*
Y587900D01*
X1168400Y536050D02*
Y544830D01*
X999490Y708660D02*
X1020093D01*
X1114110Y810580D02*
X1205140D01*
X997175Y714248D02*
X1017778D01*
X1114110Y810580D01*
X989330Y558800D02*
X1003300D01*
X977392Y570738D02*
Y694465D01*
Y570738D02*
X989330Y558800D01*
X977392Y694465D02*
X997175Y714248D01*
X990601Y660400D02*
X1003300D01*
X982980Y668020D02*
Y692150D01*
Y668020D02*
X990601Y660400D01*
X982980Y692150D02*
X999490Y708660D01*
X1289140Y771083D02*
Y802580D01*
X1291590Y711200D02*
Y768633D01*
X1289140Y771083D02*
X1291590Y768633D01*
Y711200D02*
X1303020Y699770D01*
X1286002Y700278D02*
Y766318D01*
Y700278D02*
X1286510Y699770D01*
X1243140Y776865D02*
Y788580D01*
X1251140Y776767D02*
Y788580D01*
X1259140Y776670D02*
Y788580D01*
X1275140Y777180D02*
X1286002Y766318D01*
X1275140Y777180D02*
Y788580D01*
X1200150Y607620D02*
Y613870D01*
X1188720Y625300D02*
X1200150Y613870D01*
X1244600Y547370D02*
X1252474Y555244D01*
X1297686D02*
X1303020Y549910D01*
X1252474Y555244D02*
X1297686D01*
X1168400Y544830D02*
X1184402Y560832D01*
X1111250Y566420D02*
X1318260D01*
X1092200Y547370D02*
X1111250Y566420D01*
X1318260D02*
X1327150Y575310D01*
X1303020Y549910D02*
X1323340D01*
X1244600Y537320D02*
Y547370D01*
X1288010Y537430D02*
X1289060Y538480D01*
X1333500D02*
X1370330Y575310D01*
X1289060Y538480D02*
X1333500D01*
X1265030Y537430D02*
X1288010D01*
X1371600D02*
Y549910D01*
X1371380Y537210D02*
X1371600Y537430D01*
X1183640Y788780D02*
X1218940D01*
X1219140Y788580D01*
X1044800Y799440D02*
X1066390D01*
X1181678Y912209D02*
X1261678D01*
X1367900Y821800D02*
X1369060Y820640D01*
X1473080Y716280D02*
X1490980D01*
X1473080Y652780D02*
X1474350Y654050D01*
X1529080Y690880D02*
X1545590D01*
X1529080Y640080D02*
X1568450D01*
X1529080Y678180D02*
X1546860D01*
X1529080Y627380D02*
X1565910D01*
X1473080Y690880D02*
X1490980D01*
X1529080Y665480D02*
X1549400D01*
X1474096D02*
X1490980D01*
X1529080Y703580D02*
X1541780D01*
X1529080Y652780D02*
X1559560D01*
X1455420Y524510D02*
X1473200D01*
X1270762Y886714D02*
X1307846D01*
X1267140Y883092D02*
X1270762Y886714D01*
X1267140Y872580D02*
Y883092D01*
X1268447Y892302D02*
X1322578D01*
X1259140Y882995D02*
X1268447Y892302D01*
X1259140Y872580D02*
Y882995D01*
X1251140Y882897D02*
X1266133Y897890D01*
X1251140Y872580D02*
Y882897D01*
X1266133Y897890D02*
X1337310D01*
X1342390Y892810D01*
X1322578Y892302D02*
X1329690Y885190D01*
X1307846Y886714D02*
X1316990Y877570D01*
X1275140Y872580D02*
X1290320D01*
X1289140Y858580D02*
X1305500D01*
X1473200Y537210D02*
X1490980D01*
X1473200Y562610D02*
X1490980D01*
X1473200Y511810D02*
X1490980D01*
X1473080Y665480D02*
X1473588Y665988D01*
X1455420Y678180D02*
X1473080D01*
X1455420Y652780D02*
X1473080D01*
X1455420Y549910D02*
X1473200D01*
X1745090Y1024890D02*
Y1046480D01*
X1003300Y914400D02*
X1022350D01*
X1043178Y893572D01*
X1092200Y537320D02*
Y547370D01*
X1130300Y1027430D02*
Y1059250D01*
X1126490Y1023620D02*
X1130300Y1027430D01*
X1119310Y1023620D02*
X1126490D01*
X1002890Y808330D02*
X1003300Y807920D01*
Y762000D02*
Y807920D01*
X1582420Y429260D02*
X1600090D01*
X1582420Y601980D02*
X1600200D01*
X1225550Y660400D02*
Y677620D01*
X1250950Y660400D02*
Y677620D01*
X1276350Y660400D02*
Y677620D01*
X1346200Y587900D02*
X1348740Y590440D01*
X1327150Y575310D02*
Y590440D01*
X1400810Y575310D02*
X1414780Y561340D01*
X1391920Y575310D02*
X1400810D01*
X1391920D02*
Y590440D01*
X1370330Y575310D02*
Y590440D01*
X1225550Y607620D02*
Y626110D01*
X1414780Y537320D02*
Y561340D01*
X1393190Y537320D02*
X1414780D01*
X1422400Y469900D02*
Y491490D01*
X1414780Y499110D02*
X1422400Y491490D01*
X1414780Y499110D02*
Y519320D01*
X1371600Y469900D02*
Y519430D01*
X1264920Y537320D02*
X1265030Y537430D01*
X1295400Y469900D02*
Y494030D01*
X1286510Y502920D02*
X1295400Y494030D01*
X1286510Y502920D02*
Y519430D01*
X1244600Y469900D02*
Y519320D01*
X1146810Y536050D02*
X1168400D01*
X1070610Y537320D02*
X1092200D01*
Y469900D02*
Y519320D01*
X1168400Y469900D02*
Y518050D01*
X1314450Y802640D02*
X1325880D01*
X1306510Y810580D02*
X1314450Y802640D01*
X1289140Y810580D02*
X1306510D01*
X1083310Y960120D02*
X1125220D01*
X1618090Y731520D02*
X1635760D01*
X1347470Y802750D02*
X1349680Y804960D01*
X1369060D01*
X1325880Y802640D02*
X1325990Y802750D01*
X1347470D01*
X1572260Y688340D02*
X1600090D01*
X1549400Y665480D02*
X1572260Y688340D01*
X1578610Y709930D02*
X1600090D01*
X1546860Y678180D02*
X1578610Y709930D01*
X1586230Y731520D02*
X1600090D01*
X1545590Y690880D02*
X1586230Y731520D01*
X1591310Y753110D02*
X1600090D01*
X1541780Y703580D02*
X1591310Y753110D01*
X1529200Y499110D02*
X1543050D01*
X1588770Y472440D02*
X1600200D01*
X1549400Y511810D02*
X1588770Y472440D01*
X1529200Y511810D02*
X1549400D01*
X1579880Y494030D02*
X1600200D01*
X1549400Y524510D02*
X1579880Y494030D01*
X1529200Y524510D02*
X1549400D01*
X1576070Y515620D02*
X1600200D01*
X1554480Y537210D02*
X1576070Y515620D01*
X1529200Y537210D02*
X1554480D01*
X1569720D02*
X1600200D01*
X1557020Y549910D02*
X1569720Y537210D01*
X1529200Y549910D02*
X1557020D01*
X1573530Y666750D02*
X1600090D01*
X1559560Y652780D02*
X1573530Y666750D01*
Y645160D02*
X1600090D01*
X1568450Y640080D02*
X1573530Y645160D01*
X1576070Y558800D02*
X1600200D01*
X1572260Y562610D02*
X1576070Y558800D01*
X1529200Y562610D02*
X1572260D01*
X1578610Y580390D02*
X1600200D01*
X1573530Y575310D02*
X1578610Y580390D01*
X1529200Y575310D02*
X1573530D01*
X1569720Y623570D02*
X1600200D01*
X1565910Y627380D02*
X1569720Y623570D01*
X1591310Y450850D02*
X1600090D01*
X1543050Y499110D02*
X1591310Y450850D01*
X1390550Y1243330D02*
X1390650Y1243430D01*
X1332230Y1271270D02*
X1332710Y1270790D01*
X1282710Y1121920D02*
X1283380Y1121250D01*
X1596390Y605790D02*
X1600200Y601980D01*
X1347470Y784750D02*
X1363980Y784860D01*
X1713120Y859900D02*
X1713230Y860010D01*
X1024890Y798830D02*
X1044190D01*
X1044800Y799440D01*
X1083310Y980330D02*
X1106170D01*
Y998330D02*
Y1018540D01*
X1147220Y950620D02*
Y982570D01*
X1131460Y998330D02*
X1147220Y982570D01*
X1106170Y998330D02*
X1131460D01*
X1261678Y912209D02*
X1294130D01*
X1618090Y688340D02*
X1620630Y690880D01*
X1644933D01*
X1618090Y709930D02*
X1620630Y707390D01*
X1653540D01*
X1618200Y601980D02*
X1620740Y604520D01*
X1111250Y1023620D02*
X1119310D01*
X1106170Y1018540D02*
X1111250Y1023620D01*
X1689383Y676910D02*
X1727200D01*
X1618090Y666750D02*
X1671320D01*
X1706880Y702310D01*
X1727200D01*
X1644933Y690880D02*
X1693193Y739140D01*
X1715770D01*
X1727200Y727710D01*
X1653540Y707390D02*
X1690878Y744728D01*
X1747012D01*
X1752600Y739140D01*
Y727710D02*
Y739140D01*
X1003300Y889000D02*
X1004316Y887984D01*
X1083310Y919480D02*
Y942120D01*
Y919480D02*
X1103630Y899160D01*
X1702083Y562610D02*
X1714500D01*
X1706880Y575310D02*
X1727200D01*
X1305500Y858580D02*
X1305560Y858520D01*
X1473588Y665988D02*
X1474096Y665480D01*
X1004316Y887984D02*
X1222756D01*
X1227140Y883600D01*
Y872580D02*
Y883600D01*
X1043178Y893572D02*
X1225071D01*
X1235140Y883503D01*
Y872580D02*
Y883503D01*
X1103630Y899160D02*
X1227385D01*
X1243140Y883405D01*
Y872580D02*
Y883405D01*
D26*
X1289140Y858580D02*
D03*
Y850580D02*
D03*
Y842580D02*
D03*
Y834580D02*
D03*
Y826580D02*
D03*
Y818580D02*
D03*
Y810580D02*
D03*
Y802580D02*
D03*
X1205140D02*
D03*
Y810580D02*
D03*
Y818580D02*
D03*
Y826580D02*
D03*
Y834580D02*
D03*
Y842580D02*
D03*
Y850580D02*
D03*
Y858580D02*
D03*
D27*
X1275140Y788580D02*
D03*
X1267140D02*
D03*
X1259140D02*
D03*
X1251140D02*
D03*
X1243140D02*
D03*
X1235140D02*
D03*
X1227140D02*
D03*
X1219140D02*
D03*
Y872580D02*
D03*
X1227140D02*
D03*
X1235140D02*
D03*
X1243140D02*
D03*
X1251140D02*
D03*
X1259140D02*
D03*
X1267140D02*
D03*
X1275140D02*
D03*
D28*
X1618090Y709930D02*
D03*
X1600090D02*
D03*
X1618090Y731520D02*
D03*
X1600090D02*
D03*
X1745090Y1046480D02*
D03*
X1727090D02*
D03*
X1618200Y601980D02*
D03*
X1600200D02*
D03*
X1618090Y429260D02*
D03*
X1600090D02*
D03*
X1618200Y623570D02*
D03*
X1600200D02*
D03*
X1618090Y450850D02*
D03*
X1600090D02*
D03*
X1618090Y645160D02*
D03*
X1600090D02*
D03*
X1618200Y472440D02*
D03*
X1600200D02*
D03*
X1618090Y666750D02*
D03*
X1600090D02*
D03*
X1618200Y494030D02*
D03*
X1600200D02*
D03*
X1618090Y688340D02*
D03*
X1600090D02*
D03*
X1618200Y515620D02*
D03*
X1600200D02*
D03*
X1618200Y537210D02*
D03*
X1600200D02*
D03*
X1618200Y558800D02*
D03*
X1600200D02*
D03*
X1618200Y580390D02*
D03*
X1600200D02*
D03*
X1630680Y842010D02*
D03*
X1648680D02*
D03*
X1216550Y730250D02*
D03*
X1234550D02*
D03*
X1216550Y751840D02*
D03*
X1234550D02*
D03*
X1473090Y480060D02*
D03*
X1491090D02*
D03*
X1473090Y608330D02*
D03*
X1491090D02*
D03*
X1745090Y1024890D02*
D03*
X1727090D02*
D03*
X1618090Y753110D02*
D03*
X1600090D02*
D03*
D29*
X1727200Y981710D02*
D03*
Y923710D02*
D03*
D30*
X1529200Y499110D02*
D03*
Y511810D02*
D03*
Y524510D02*
D03*
Y537210D02*
D03*
Y549910D02*
D03*
Y562610D02*
D03*
Y575310D02*
D03*
X1473200Y499110D02*
D03*
Y511810D02*
D03*
Y524510D02*
D03*
Y537210D02*
D03*
Y549910D02*
D03*
Y562610D02*
D03*
Y575310D02*
D03*
Y588010D02*
D03*
X1529200D02*
D03*
X1529080Y627380D02*
D03*
Y640080D02*
D03*
Y652780D02*
D03*
Y665480D02*
D03*
Y678180D02*
D03*
Y690880D02*
D03*
Y703580D02*
D03*
X1473080Y627380D02*
D03*
Y640080D02*
D03*
Y652780D02*
D03*
Y665480D02*
D03*
Y678180D02*
D03*
Y690880D02*
D03*
Y703580D02*
D03*
Y716280D02*
D03*
X1529080D02*
D03*
D31*
X1670050Y841790D02*
D03*
Y859790D02*
D03*
X1691640Y841900D02*
D03*
Y859900D02*
D03*
X1713230Y842010D02*
D03*
Y860010D02*
D03*
X1609090Y842010D02*
D03*
Y860010D02*
D03*
X1587500Y842010D02*
D03*
Y860010D02*
D03*
X1347470Y822850D02*
D03*
Y840850D02*
D03*
X1325880Y822850D02*
D03*
Y840850D02*
D03*
Y802640D02*
D03*
Y784640D02*
D03*
X1183640Y770780D02*
D03*
Y788780D02*
D03*
X1347470Y784750D02*
D03*
Y802750D02*
D03*
X1369060Y804960D02*
D03*
Y822960D02*
D03*
X1106170Y980330D02*
D03*
Y998330D02*
D03*
X1083310Y980330D02*
D03*
Y998330D02*
D03*
X1104900Y942230D02*
D03*
Y960230D02*
D03*
X1083310Y942120D02*
D03*
Y960120D02*
D03*
X1044800Y817440D02*
D03*
Y799440D02*
D03*
X1066390Y817440D02*
D03*
Y799440D02*
D03*
X1286510Y519430D02*
D03*
Y537430D02*
D03*
X1414780Y519320D02*
D03*
Y537320D02*
D03*
X1092200Y519320D02*
D03*
Y537320D02*
D03*
X1168400Y518050D02*
D03*
Y536050D02*
D03*
X1348740Y590440D02*
D03*
Y608440D02*
D03*
X1327150Y590440D02*
D03*
Y608440D02*
D03*
X1391920Y590440D02*
D03*
Y608440D02*
D03*
X1370330Y590440D02*
D03*
Y608440D02*
D03*
X1264920Y537320D02*
D03*
Y519320D02*
D03*
X1393190Y537320D02*
D03*
Y519320D02*
D03*
X1070610Y537320D02*
D03*
Y519320D02*
D03*
X1146810Y536050D02*
D03*
Y518050D02*
D03*
X1371600Y537430D02*
D03*
Y519430D02*
D03*
X1244600Y537320D02*
D03*
Y519320D02*
D03*
X1305560Y608220D02*
D03*
Y626220D02*
D03*
D32*
X1083310Y1023620D02*
D03*
X1119310D02*
D03*
D33*
X1147220Y950620D02*
D03*
X1125220Y941120D02*
D03*
Y960120D02*
D03*
X1002890Y808330D02*
D03*
X1024890Y817830D02*
D03*
Y798830D02*
D03*
D34*
X1181678Y912209D02*
D03*
X1261678Y957209D02*
D03*
Y912209D02*
D03*
D35*
X1181678Y957209D02*
D03*
D36*
X1276350Y677620D02*
D03*
X1263650D02*
D03*
X1250950D02*
D03*
X1238250D02*
D03*
X1225550D02*
D03*
X1212850D02*
D03*
X1200150D02*
D03*
X1276350Y607620D02*
D03*
X1263650D02*
D03*
X1250950D02*
D03*
X1238250D02*
D03*
X1225550D02*
D03*
X1212850D02*
D03*
X1200150D02*
D03*
D56*
X1234525Y825261D02*
D03*
Y823261D02*
D03*
D57*
X1469390Y434340D02*
D03*
X1049020Y1275080D02*
D03*
X1748790Y1182370D02*
D03*
D58*
X1098012Y635000D02*
X1170940Y707928D01*
X1056640Y635000D02*
X1098012D01*
X1170940Y707928D02*
Y707928D01*
X1193262Y730250D01*
X1216550D01*
X1056640Y563880D02*
Y635000D01*
X1026160Y533400D02*
X1056640Y563880D01*
X1003300Y635000D02*
X1056640D01*
X1216550Y730250D02*
X1216660Y730360D01*
X1188720Y981710D02*
X1727200D01*
X1648680Y842010D02*
X1713230D01*
X1441450Y731520D02*
Y759460D01*
X1494790Y812800D01*
X1441450Y703580D02*
Y731520D01*
X1003300Y533400D02*
X1026160D01*
X1216550Y751840D02*
X1216660Y751730D01*
Y730360D02*
Y751730D01*
X1441450Y608440D02*
Y703580D01*
Y575310D02*
Y608440D01*
X1448960D01*
X1391920D02*
X1441450D01*
Y496570D02*
Y575310D01*
Y496570D02*
X1457960Y480060D01*
X1054300Y1059250D02*
Y1079500D01*
X1019810D02*
X1054300D01*
X971550Y1031240D02*
X1019810Y1079500D01*
X1167130Y1003300D02*
X1188720Y981710D01*
X971550Y751840D02*
Y1031240D01*
X986790Y736600D02*
X1003300D01*
X971550Y751840D02*
X986790Y736600D01*
X1054300Y1079500D02*
X1144270D01*
X1451610Y608330D02*
X1473090D01*
X1473080Y608340D02*
X1473090Y608330D01*
X1457960Y480060D02*
X1473090D01*
X1473200Y480170D01*
X1370330Y608440D02*
X1391920D01*
X1348740D02*
X1370330D01*
X1327150D02*
X1348740D01*
X1305780D02*
X1327150D01*
X1305560Y608220D02*
X1305780Y608440D01*
X1347470Y822850D02*
X1366850D01*
X1325880D02*
X1347470D01*
X1369060Y822960D02*
X1402080D01*
Y892810D01*
X1380490Y914400D02*
X1402080Y892810D01*
X1167130Y1003300D02*
Y1056640D01*
X1144270Y1079500D02*
X1167130Y1056640D01*
X1609090Y842010D02*
X1630680D01*
X1587500D02*
X1609090D01*
X1402080Y822960D02*
X1451610D01*
X1470660Y842010D01*
X1587500D01*
X1713230D02*
X1732280D01*
X1760220Y869950D01*
X1648680Y825720D02*
Y842010D01*
X1727200Y981710D02*
X1744980D01*
X1760220Y966470D01*
Y869950D02*
Y966470D01*
X1727090Y981820D02*
Y1024890D01*
Y981820D02*
X1727200Y981710D01*
X1635760Y812800D02*
X1648680Y825720D01*
X1494790Y812800D02*
X1635760D01*
X1714500Y800100D02*
Y840740D01*
X1713230Y842010D02*
X1714500Y840740D01*
D59*
X1306830Y728980D02*
X1438910D01*
X1441450Y731520D01*
X1234440Y716280D02*
Y730140D01*
X1234550Y730250D01*
X1069340Y1023620D02*
X1083310D01*
X1054300Y1038660D02*
X1069340Y1023620D01*
X1054300Y1038660D02*
Y1059250D01*
X1083310Y998330D02*
Y1023620D01*
D60*
X1235140Y788580D02*
Y805880D01*
X1235150Y753780D02*
Y765100D01*
X1235140Y765110D02*
X1235150Y765100D01*
X1235140Y765110D02*
Y788580D01*
X1325880Y840850D02*
X1347470D01*
X1691640Y859900D02*
X1713120D01*
X1670160D02*
X1691640D01*
X1670050Y859790D02*
X1670160Y859900D01*
X1025280Y817440D02*
X1044800D01*
X1024890Y817830D02*
X1025280Y817440D01*
X1106010Y941120D02*
X1125220D01*
X1104900Y942230D02*
X1106010Y941120D01*
X1587500Y860010D02*
X1609090D01*
D61*
X1227140Y775020D02*
Y788580D01*
X1216086Y752304D02*
X1216550Y751840D01*
X1216086Y763966D02*
X1227140Y775020D01*
X1216086Y752304D02*
Y763966D01*
X1289140Y834580D02*
X1306830D01*
X1309480Y822850D02*
X1325880D01*
X1277620Y834580D02*
X1289140D01*
Y826580D02*
X1305750D01*
X1309480Y822850D01*
D62*
X1473080Y608340D02*
Y627380D01*
X1441450Y703580D02*
X1473080D01*
X1441450Y575310D02*
X1473200D01*
D63*
Y480170D02*
Y499110D01*
D64*
X1276950Y608220D02*
X1305560D01*
D65*
X1130300Y1161250D02*
X1149040D01*
X1130300Y1238250D02*
X1163320Y1271270D01*
X1332230D01*
X1149040Y1161250D02*
X1182710Y1194920D01*
X1232710D02*
X1282710D01*
X1332710D02*
Y1270790D01*
X1332230Y1271270D02*
X1357730D01*
X1390650Y1238350D01*
D66*
X1283380Y1075010D02*
Y1121250D01*
X1368380Y1101250D02*
X1390650Y1123520D01*
X1410870Y1187350D02*
X1443990Y1220470D01*
X1283380Y1075010D02*
X1308100Y1050290D01*
X1399540D02*
X1460500Y1111250D01*
X1308100Y1050290D02*
X1399540D01*
X1282710Y1121920D02*
Y1194920D01*
X1460500Y1111250D02*
Y1169670D01*
X1443990Y1220470D02*
X1460500D01*
X1390650Y1187350D02*
X1410870D01*
X1390650Y1123520D02*
Y1187350D01*
D67*
X1638935Y973455D02*
D03*
D68*
X1390650Y1238350D02*
D03*
Y1187350D02*
D03*
X1368380Y1101250D02*
D03*
X1283380Y1121250D02*
D03*
X1182710Y1194920D02*
D03*
X1232710D02*
D03*
X1282710D02*
D03*
X1332710D02*
D03*
X1460500Y1220470D02*
D03*
Y1169670D02*
D03*
Y915670D02*
D03*
X1638300D02*
D03*
Y966470D02*
D03*
X1130300Y1238250D02*
D03*
Y1161250D02*
D03*
D69*
X1003300Y660400D02*
D03*
Y685800D02*
D03*
Y584200D02*
D03*
Y558800D02*
D03*
Y914400D02*
D03*
Y939800D02*
D03*
X1380490Y914400D02*
D03*
X1355090Y939800D02*
D03*
Y914400D02*
D03*
X1329690Y939800D02*
D03*
Y914400D02*
D03*
X1397000Y469900D02*
D03*
X1371600D02*
D03*
X1346200D02*
D03*
X1270000D02*
D03*
X1244600D02*
D03*
X1219200D02*
D03*
X1143000D02*
D03*
X1066800D02*
D03*
X1714500Y774700D02*
D03*
X1003300Y762000D02*
D03*
X1752600Y524510D02*
D03*
Y549910D02*
D03*
Y575310D02*
D03*
Y600710D02*
D03*
Y626110D02*
D03*
Y651510D02*
D03*
Y676910D02*
D03*
Y702310D02*
D03*
Y727710D02*
D03*
X1727200Y524510D02*
D03*
Y549910D02*
D03*
Y575310D02*
D03*
Y600710D02*
D03*
Y626110D02*
D03*
Y651510D02*
D03*
Y676910D02*
D03*
Y702310D02*
D03*
D70*
X1003300Y635000D02*
D03*
Y533400D02*
D03*
Y889000D02*
D03*
X1714500Y800100D02*
D03*
X1003300Y736600D02*
D03*
X1727200Y727710D02*
D03*
D71*
X1380490Y939800D02*
D03*
X1422400Y469900D02*
D03*
X1295400D02*
D03*
X1168400D02*
D03*
X1092200D02*
D03*
D72*
X1727200Y457200D02*
D03*
X990600D02*
D03*
Y1244600D02*
D03*
X1727200D02*
D03*
D73*
X1130300Y1059250D02*
D03*
X1054300D02*
D03*
D74*
X1104900Y928370D02*
D03*
X1239520Y589280D02*
D03*
X1149061Y751924D02*
D03*
X1176958Y636431D02*
D03*
X1129968Y609761D02*
D03*
X1199818Y579281D02*
D03*
X1318260Y525780D02*
D03*
X1118870Y534670D02*
D03*
X1200150Y532130D02*
D03*
X1545590Y588010D02*
D03*
X1544320Y725170D02*
D03*
X1504950Y603250D02*
D03*
X1506220Y478790D02*
D03*
X1320800Y457200D02*
D03*
X1193800D02*
D03*
X1117600D02*
D03*
X1435100Y419100D02*
D03*
X1308100D02*
D03*
X1193800D02*
D03*
X1371600Y635000D02*
D03*
X1333500D02*
D03*
Y673100D02*
D03*
X1371600D02*
D03*
X1306830Y728980D02*
D03*
X1162050Y786130D02*
D03*
X1056640Y650240D02*
D03*
X1062990Y709930D02*
D03*
X1198880Y769620D02*
D03*
X1234440Y716280D02*
D03*
X1249680Y740410D02*
D03*
Y754380D02*
D03*
X1243330Y817880D02*
D03*
X1235140Y805880D02*
D03*
X1618090Y769620D02*
D03*
X1689100Y541020D02*
D03*
X1704340D02*
D03*
X1761490Y501650D02*
D03*
X1668780Y570230D02*
D03*
X1697990Y661670D02*
D03*
X1303020Y699770D02*
D03*
X1286510D02*
D03*
X1305560Y642620D02*
D03*
X1333500Y711200D02*
D03*
X1304290Y744220D02*
D03*
X1323340Y549910D02*
D03*
X1371600D02*
D03*
X1182370Y756920D02*
D03*
X1360170Y742950D02*
D03*
X1398270D02*
D03*
X1422400Y797560D02*
D03*
X1457960Y802640D02*
D03*
X1508760Y828040D02*
D03*
X1544320D02*
D03*
X1579880Y792480D02*
D03*
X1615440D02*
D03*
X1508760Y741680D02*
D03*
X1544320D02*
D03*
X1508760Y767080D02*
D03*
X1544320D02*
D03*
X1508760Y792480D02*
D03*
X1544320D02*
D03*
X1010920Y975360D02*
D03*
X1041400D02*
D03*
X1010920Y1000760D02*
D03*
X1041400D02*
D03*
X1010920Y1026160D02*
D03*
X1041400D02*
D03*
X995680Y838200D02*
D03*
X1026160D02*
D03*
X995680Y858520D02*
D03*
X1026160D02*
D03*
X1087120Y838200D02*
D03*
X1117600D02*
D03*
X1148080D02*
D03*
X1178560D02*
D03*
X1087120Y868680D02*
D03*
X1117600D02*
D03*
X1148080D02*
D03*
X1178560D02*
D03*
X1108710Y746760D02*
D03*
X952500Y787400D02*
D03*
X1503680Y421640D02*
D03*
Y447040D02*
D03*
X1409700Y635000D02*
D03*
X1263650Y589280D02*
D03*
X1200150Y694690D02*
D03*
X1409700Y673100D02*
D03*
X1200150Y660400D02*
D03*
X1371600Y711200D02*
D03*
X1409700D02*
D03*
X1083310Y619760D02*
D03*
X1129030Y642620D02*
D03*
X1108710Y674370D02*
D03*
X1156970Y669290D02*
D03*
X1103630Y709930D02*
D03*
X1154430Y715010D02*
D03*
X1701800Y889000D02*
D03*
X1737360D02*
D03*
X1562100Y914400D02*
D03*
X1600200D02*
D03*
X1485900D02*
D03*
X1524000D02*
D03*
X1562100Y952500D02*
D03*
X1600200D02*
D03*
X1524000D02*
D03*
X1485900D02*
D03*
X1492250Y635000D02*
D03*
X1490980Y716280D02*
D03*
X1455420Y524510D02*
D03*
X1342390Y892810D02*
D03*
X1316990Y877570D02*
D03*
X1329690Y885190D02*
D03*
X1290320Y872580D02*
D03*
X1490980Y537210D02*
D03*
Y562610D02*
D03*
Y511810D02*
D03*
Y690880D02*
D03*
Y665480D02*
D03*
X1455420Y678180D02*
D03*
Y652780D02*
D03*
Y549910D02*
D03*
X1582420Y429260D02*
D03*
Y601980D02*
D03*
X1346200Y570230D02*
D03*
X1276350Y660400D02*
D03*
X1327150Y575310D02*
D03*
X1391920D02*
D03*
X1370330D02*
D03*
X1225550Y626110D02*
D03*
Y660400D02*
D03*
X1250950D02*
D03*
X1270000Y818580D02*
D03*
X1635760Y731520D02*
D03*
X1363980Y784860D02*
D03*
X1294130Y912209D02*
D03*
X952500Y825500D02*
D03*
Y863600D02*
D03*
Y965200D02*
D03*
Y1003300D02*
D03*
Y1041400D02*
D03*
Y711200D02*
D03*
Y596900D02*
D03*
Y520700D02*
D03*
X1539240Y447040D02*
D03*
Y421640D02*
D03*
X1737360Y828040D02*
D03*
X1762760D02*
D03*
Y751840D02*
D03*
X1473200Y767080D02*
D03*
X1651000Y792480D02*
D03*
Y767080D02*
D03*
Y741680D02*
D03*
X1447800Y952500D02*
D03*
X1376680Y873760D02*
D03*
Y848360D02*
D03*
X1422400Y863600D02*
D03*
X1559560D02*
D03*
X1529080D02*
D03*
X1493520D02*
D03*
X1457960D02*
D03*
X1422400Y843280D02*
D03*
X1229360Y848360D02*
D03*
X1228090Y817880D02*
D03*
X1254760Y833120D02*
D03*
X1061720Y914400D02*
D03*
X1123950Y925830D02*
D03*
X1203960Y955040D02*
D03*
X1239520D02*
D03*
Y929640D02*
D03*
X1203960D02*
D03*
X1173480Y934720D02*
D03*
X1270000D02*
D03*
X1291590Y963930D02*
D03*
X1762760Y995680D02*
D03*
X1574800Y1051560D02*
D03*
X1630680D02*
D03*
X1686560D02*
D03*
X1574800Y1010920D02*
D03*
X1630680D02*
D03*
X1762760Y1051560D02*
D03*
X1305560Y858520D02*
D03*
X1402080Y966470D02*
D03*
X1352550D02*
D03*
X1140460Y580390D02*
D03*
X1076960D02*
D03*
M02*
