G04*
G04 #@! TF.GenerationSoftware,Altium Limited,Altium Designer,20.0.10 (225)*
G04*
G04 Layer_Color=32768*
%FSLAX44Y44*%
%MOMM*%
G71*
G01*
G75*
%ADD13C,0.2540*%
%ADD75C,0.1000*%
%ADD76C,0.1270*%
%ADD80C,0.0500*%
D13*
X1679400Y873070D02*
Y1263070D01*
X1419400Y873070D02*
X1679400D01*
X1419400D02*
Y1263070D01*
X1679400D01*
X1529400Y1068070D02*
X1569400D01*
X1549400Y1048070D02*
Y1068070D01*
Y1088070D01*
D75*
X1385650Y1212850D02*
X1395650D01*
X1390650Y1207850D02*
Y1217850D01*
X1415650Y1162850D02*
Y1262850D01*
X1365650Y1162850D02*
X1415650D01*
X1365650D02*
Y1262850D01*
X1415650D01*
X1240880Y1081250D02*
Y1141250D01*
Y1081250D02*
X1410880D01*
Y1141250D01*
X1240880D02*
X1410880D01*
X1320880Y1111250D02*
X1330880D01*
X1325880Y1106250D02*
Y1116250D01*
X1259710Y1142920D02*
Y1241920D01*
X1156040D02*
X1259710D01*
X1156040Y1142920D02*
Y1241920D01*
Y1142920D02*
X1259710D01*
X1182710Y1189920D02*
Y1199920D01*
X1177710Y1194920D02*
X1187710D01*
X1359710Y1142920D02*
Y1241920D01*
X1256040D02*
X1359710D01*
X1256040Y1142920D02*
Y1241920D01*
Y1142920D02*
X1359710D01*
X1282710Y1189920D02*
Y1199920D01*
X1277710Y1194920D02*
X1287710D01*
X969010Y703580D02*
X1036320D01*
X998300Y660400D02*
X1008300D01*
X1003300Y655400D02*
Y665400D01*
X969010Y617220D02*
X1036320D01*
Y703580D01*
X969010Y617220D02*
Y703580D01*
Y515620D02*
Y601980D01*
X1036320Y515620D02*
Y601980D01*
X969010Y515620D02*
X1036320D01*
X1003300Y553800D02*
Y563800D01*
X998300Y558800D02*
X1008300D01*
X969010Y601980D02*
X1036320D01*
X969010Y957580D02*
X1036320D01*
X998300Y914400D02*
X1008300D01*
X1003300Y909400D02*
Y919400D01*
X969010Y871220D02*
X1036320D01*
Y957580D01*
X969010Y871220D02*
Y957580D01*
X1242140Y830580D02*
X1252140D01*
X1247140Y825580D02*
Y835580D01*
X1464390Y434340D02*
X1474390D01*
X1469390Y429340D02*
Y439340D01*
X1044020Y1275080D02*
X1054020D01*
X1049020Y1270080D02*
Y1280080D01*
X1748790Y1177370D02*
Y1187370D01*
X1743790Y1182370D02*
X1753790D01*
X1384300Y464900D02*
Y474900D01*
X1379300Y469900D02*
X1389300D01*
X1328420Y435610D02*
Y502920D01*
X1440180Y435610D02*
Y502920D01*
X1328420D02*
X1440180D01*
X1328420Y435610D02*
X1440180D01*
X1257300Y464900D02*
Y474900D01*
X1252300Y469900D02*
X1262300D01*
X1201420Y435610D02*
Y502920D01*
X1313180Y435610D02*
Y502920D01*
X1201420D02*
X1313180D01*
X1201420Y435610D02*
X1313180D01*
X1150700Y469900D02*
X1160700D01*
X1155700Y464900D02*
Y474900D01*
X1186180Y435610D02*
Y502920D01*
X1125220Y435610D02*
Y502920D01*
X1186180D01*
X1125220Y435610D02*
X1186180D01*
X1074500Y469900D02*
X1084500D01*
X1079500Y464900D02*
Y474900D01*
X1109980Y435610D02*
Y502920D01*
X1049020Y435610D02*
Y502920D01*
X1109980D01*
X1049020Y435610D02*
X1109980D01*
X1609090Y704930D02*
Y714930D01*
X1604090Y709930D02*
X1614090D01*
X1591090Y700180D02*
X1627090D01*
X1591090Y719680D02*
X1627090D01*
Y700180D02*
Y719680D01*
X1591090Y700180D02*
Y719680D01*
X1609090Y726520D02*
Y736520D01*
X1604090Y731520D02*
X1614090D01*
X1591090Y721770D02*
X1627090D01*
X1591090Y741270D02*
X1627090D01*
Y721770D02*
Y741270D01*
X1591090Y721770D02*
Y741270D01*
X1727200Y947710D02*
Y957710D01*
X1722200Y952710D02*
X1732200D01*
X1727200Y452200D02*
Y462200D01*
X1722200Y457200D02*
X1732200D01*
X990600Y452200D02*
Y462200D01*
X985600Y457200D02*
X995600D01*
X990600Y1239600D02*
Y1249600D01*
X985600Y1244600D02*
X995600D01*
X1727200Y1239600D02*
Y1249600D01*
X1722200Y1244600D02*
X1732200D01*
X1736090Y1041480D02*
Y1051480D01*
X1731090Y1046480D02*
X1741090D01*
X1718090Y1036730D02*
X1754090D01*
X1718090Y1056230D02*
X1754090D01*
Y1036730D02*
Y1056230D01*
X1718090Y1036730D02*
Y1056230D01*
X1541200Y491510D02*
Y596210D01*
X1461200Y491510D02*
Y596210D01*
Y491510D02*
X1541200D01*
X1461200Y596210D02*
X1541200D01*
X1501200Y538560D02*
Y548560D01*
X1496200Y543560D02*
X1506200D01*
X1541080Y619780D02*
Y724480D01*
X1461080Y619780D02*
Y724480D01*
Y619780D02*
X1541080D01*
X1461080Y724480D02*
X1541080D01*
X1501080Y666830D02*
Y676830D01*
X1496080Y671830D02*
X1506080D01*
X1609200Y596980D02*
Y606980D01*
X1604200Y601980D02*
X1614200D01*
X1591200Y592230D02*
X1627200D01*
X1591200Y611730D02*
X1627200D01*
Y592230D02*
Y611730D01*
X1591200Y592230D02*
Y611730D01*
X1609090Y424260D02*
Y434260D01*
X1604090Y429260D02*
X1614090D01*
X1591090Y419510D02*
X1627090D01*
X1591090Y439010D02*
X1627090D01*
Y419510D02*
Y439010D01*
X1591090Y419510D02*
Y439010D01*
X1609200Y618570D02*
Y628570D01*
X1604200Y623570D02*
X1614200D01*
X1591200Y613820D02*
X1627200D01*
X1591200Y633320D02*
X1627200D01*
Y613820D02*
Y633320D01*
X1591200Y613820D02*
Y633320D01*
X1609090Y445850D02*
Y455850D01*
X1604090Y450850D02*
X1614090D01*
X1591090Y441100D02*
X1627090D01*
X1591090Y460600D02*
X1627090D01*
Y441100D02*
Y460600D01*
X1591090Y441100D02*
Y460600D01*
X1609090Y640160D02*
Y650160D01*
X1604090Y645160D02*
X1614090D01*
X1591090Y635410D02*
X1627090D01*
X1591090Y654910D02*
X1627090D01*
Y635410D02*
Y654910D01*
X1591090Y635410D02*
Y654910D01*
X1609200Y467440D02*
Y477440D01*
X1604200Y472440D02*
X1614200D01*
X1591200Y462690D02*
X1627200D01*
X1591200Y482190D02*
X1627200D01*
Y462690D02*
Y482190D01*
X1591200Y462690D02*
Y482190D01*
X1609090Y661750D02*
Y671750D01*
X1604090Y666750D02*
X1614090D01*
X1591090Y657000D02*
X1627090D01*
X1591090Y676500D02*
X1627090D01*
Y657000D02*
Y676500D01*
X1591090Y657000D02*
Y676500D01*
X1609200Y489030D02*
Y499030D01*
X1604200Y494030D02*
X1614200D01*
X1591200Y484280D02*
X1627200D01*
X1591200Y503780D02*
X1627200D01*
Y484280D02*
Y503780D01*
X1591200Y484280D02*
Y503780D01*
X1609090Y683340D02*
Y693340D01*
X1604090Y688340D02*
X1614090D01*
X1591090Y678590D02*
X1627090D01*
X1591090Y698090D02*
X1627090D01*
Y678590D02*
Y698090D01*
X1591090Y678590D02*
Y698090D01*
X1609200Y510620D02*
Y520620D01*
X1604200Y515620D02*
X1614200D01*
X1591200Y505870D02*
X1627200D01*
X1591200Y525370D02*
X1627200D01*
Y505870D02*
Y525370D01*
X1591200Y505870D02*
Y525370D01*
X1609200Y532210D02*
Y542210D01*
X1604200Y537210D02*
X1614200D01*
X1591200Y527460D02*
X1627200D01*
X1591200Y546960D02*
X1627200D01*
Y527460D02*
Y546960D01*
X1591200Y527460D02*
Y546960D01*
X1609200Y553800D02*
Y563800D01*
X1604200Y558800D02*
X1614200D01*
X1591200Y549050D02*
X1627200D01*
X1591200Y568550D02*
X1627200D01*
Y549050D02*
Y568550D01*
X1591200Y549050D02*
Y568550D01*
X1609200Y575390D02*
Y585390D01*
X1604200Y580390D02*
X1614200D01*
X1591200Y570640D02*
X1627200D01*
X1591200Y590140D02*
X1627200D01*
Y570640D02*
Y590140D01*
X1591200Y570640D02*
Y590140D01*
X1665050Y850790D02*
X1675050D01*
X1670050Y845790D02*
Y855790D01*
X1660300Y832790D02*
Y868790D01*
X1679800Y832790D02*
Y868790D01*
X1660300Y832790D02*
X1679800D01*
X1660300Y868790D02*
X1679800D01*
X1686640Y850900D02*
X1696640D01*
X1691640Y845900D02*
Y855900D01*
X1681890Y832900D02*
Y868900D01*
X1701390Y832900D02*
Y868900D01*
X1681890Y832900D02*
X1701390D01*
X1681890Y868900D02*
X1701390D01*
X1708230Y851010D02*
X1718230D01*
X1713230Y846010D02*
Y856010D01*
X1703480Y833010D02*
Y869010D01*
X1722980Y833010D02*
Y869010D01*
X1703480Y833010D02*
X1722980D01*
X1703480Y869010D02*
X1722980D01*
X1604090Y851010D02*
X1614090D01*
X1609090Y846010D02*
Y856010D01*
X1599340Y833010D02*
Y869010D01*
X1618840Y833010D02*
Y869010D01*
X1599340Y833010D02*
X1618840D01*
X1599340Y869010D02*
X1618840D01*
X1639680Y837010D02*
Y847010D01*
X1634680Y842010D02*
X1644680D01*
X1621680Y851760D02*
X1657680D01*
X1621680Y832260D02*
X1657680D01*
X1621680D02*
Y851760D01*
X1657680Y832260D02*
Y851760D01*
X1582500Y851010D02*
X1592500D01*
X1587500Y846010D02*
Y856010D01*
X1577750Y833010D02*
Y869010D01*
X1597250Y833010D02*
Y869010D01*
X1577750Y833010D02*
X1597250D01*
X1577750Y869010D02*
X1597250D01*
X1342470Y831850D02*
X1352470D01*
X1347470Y826850D02*
Y836850D01*
X1337720Y813850D02*
Y849850D01*
X1357220Y813850D02*
Y849850D01*
X1337720Y813850D02*
X1357220D01*
X1337720Y849850D02*
X1357220D01*
X1320880Y831850D02*
X1330880D01*
X1325880Y826850D02*
Y836850D01*
X1316130Y813850D02*
Y849850D01*
X1335630Y813850D02*
Y849850D01*
X1316130Y813850D02*
X1335630D01*
X1316130Y849850D02*
X1335630D01*
X1320880Y793640D02*
X1330880D01*
X1325880Y788640D02*
Y798640D01*
X1335630Y775640D02*
Y811640D01*
X1316130Y775640D02*
Y811640D01*
X1335630D01*
X1316130Y775640D02*
X1335630D01*
X1225550Y725250D02*
Y735250D01*
X1220550Y730250D02*
X1230550D01*
X1207550Y740000D02*
X1243550D01*
X1207550Y720500D02*
X1243550D01*
X1207550D02*
Y740000D01*
X1243550Y720500D02*
Y740000D01*
X1225550Y746840D02*
Y756840D01*
X1220550Y751840D02*
X1230550D01*
X1207550Y761590D02*
X1243550D01*
X1207550Y742090D02*
X1243550D01*
X1207550D02*
Y761590D01*
X1243550Y742090D02*
Y761590D01*
X1178640Y779780D02*
X1188640D01*
X1183640Y774780D02*
Y784780D01*
X1173890Y761780D02*
Y797780D01*
X1193390Y761780D02*
Y797780D01*
X1173890Y761780D02*
X1193390D01*
X1173890Y797780D02*
X1193390D01*
X1337720Y775750D02*
X1357220D01*
X1337720Y811750D02*
X1357220D01*
X1337720Y775750D02*
Y811750D01*
X1357220Y775750D02*
Y811750D01*
X1347470Y788750D02*
Y798750D01*
X1342470Y793750D02*
X1352470D01*
X1359310Y795960D02*
X1378810D01*
X1359310Y831960D02*
X1378810D01*
X1359310Y795960D02*
Y831960D01*
X1378810Y795960D02*
Y831960D01*
X1369060Y808960D02*
Y818960D01*
X1364060Y813960D02*
X1374060D01*
X1482090Y475060D02*
Y485060D01*
X1477090Y480060D02*
X1487090D01*
X1464090Y489810D02*
X1500090D01*
X1464090Y470310D02*
X1500090D01*
X1464090D02*
Y489810D01*
X1500090Y470310D02*
Y489810D01*
X1482090Y603330D02*
Y613330D01*
X1477090Y608330D02*
X1487090D01*
X1464090Y618080D02*
X1500090D01*
X1464090Y598580D02*
X1500090D01*
X1464090D02*
Y618080D01*
X1500090Y598580D02*
Y618080D01*
X1079310Y1012120D02*
Y1035120D01*
X1123310Y1012120D02*
Y1035120D01*
X1079310D02*
X1123310D01*
X1079310Y1012120D02*
X1123310D01*
X1096310Y1023620D02*
X1106310D01*
X1101310Y1018620D02*
Y1028620D01*
X1101170Y989330D02*
X1111170D01*
X1106170Y984330D02*
Y994330D01*
X1096420Y971330D02*
Y1007330D01*
X1115920Y971330D02*
Y1007330D01*
X1096420Y971330D02*
X1115920D01*
X1096420Y1007330D02*
X1115920D01*
X1073560Y971330D02*
X1093060D01*
X1073560Y1007330D02*
X1093060D01*
X1073560Y971330D02*
Y1007330D01*
X1093060Y971330D02*
Y1007330D01*
X1083310Y984330D02*
Y994330D01*
X1078310Y989330D02*
X1088310D01*
X1136220Y945620D02*
Y955620D01*
X1131220Y950620D02*
X1141220D01*
X1117220Y933120D02*
X1155220D01*
X1117220Y968120D02*
X1155220D01*
Y933120D02*
Y968120D01*
X1117220Y933120D02*
Y968120D01*
X1095150Y933230D02*
X1114650D01*
X1095150Y969230D02*
X1114650D01*
X1095150Y933230D02*
Y969230D01*
X1114650Y933230D02*
Y969230D01*
X1104900Y946230D02*
Y956230D01*
X1099900Y951230D02*
X1109900D01*
X1073560Y933120D02*
X1093060D01*
X1073560Y969120D02*
X1093060D01*
X1073560Y933120D02*
Y969120D01*
X1093060Y933120D02*
Y969120D01*
X1083310Y946120D02*
Y956120D01*
X1078310Y951120D02*
X1088310D01*
X1035050Y826440D02*
X1054550D01*
X1035050Y790440D02*
X1054550D01*
Y826440D01*
X1035050Y790440D02*
Y826440D01*
X1044800Y803440D02*
Y813440D01*
X1039800Y808440D02*
X1049800D01*
X1056640Y826440D02*
X1076140D01*
X1056640Y790440D02*
X1076140D01*
Y826440D01*
X1056640Y790440D02*
Y826440D01*
X1066390Y803440D02*
Y813440D01*
X1061390Y808440D02*
X1071390D01*
X1276760Y510430D02*
X1296260D01*
X1276760Y546430D02*
X1296260D01*
X1276760Y510430D02*
Y546430D01*
X1296260Y510430D02*
Y546430D01*
X1286510Y523430D02*
Y533430D01*
X1281510Y528430D02*
X1291510D01*
X1405030Y510320D02*
X1424530D01*
X1405030Y546320D02*
X1424530D01*
X1405030Y510320D02*
Y546320D01*
X1424530Y510320D02*
Y546320D01*
X1414780Y523320D02*
Y533320D01*
X1409780Y528320D02*
X1419780D01*
X1082450Y510320D02*
X1101950D01*
X1082450Y546320D02*
X1101950D01*
X1082450Y510320D02*
Y546320D01*
X1101950Y510320D02*
Y546320D01*
X1092200Y523320D02*
Y533320D01*
X1087200Y528320D02*
X1097200D01*
X1158650Y509050D02*
X1178150D01*
X1158650Y545050D02*
X1178150D01*
X1158650Y509050D02*
Y545050D01*
X1178150Y509050D02*
Y545050D01*
X1168400Y522050D02*
Y532050D01*
X1163400Y527050D02*
X1173400D01*
X1338990Y581440D02*
X1358490D01*
X1338990Y617440D02*
X1358490D01*
X1338990Y581440D02*
Y617440D01*
X1358490Y581440D02*
Y617440D01*
X1348740Y594440D02*
Y604440D01*
X1343740Y599440D02*
X1353740D01*
X1317400Y581440D02*
X1336900D01*
X1317400Y617440D02*
X1336900D01*
X1317400Y581440D02*
Y617440D01*
X1336900Y581440D02*
Y617440D01*
X1327150Y594440D02*
Y604440D01*
X1322150Y599440D02*
X1332150D01*
X1382170Y581440D02*
X1401670D01*
X1382170Y617440D02*
X1401670D01*
X1382170Y581440D02*
Y617440D01*
X1401670Y581440D02*
Y617440D01*
X1391920Y594440D02*
Y604440D01*
X1386920Y599440D02*
X1396920D01*
X1360580Y581440D02*
X1380080D01*
X1360580Y617440D02*
X1380080D01*
X1360580Y581440D02*
Y617440D01*
X1380080Y581440D02*
Y617440D01*
X1370330Y594440D02*
Y604440D01*
X1365330Y599440D02*
X1375330D01*
X1259920Y528320D02*
X1269920D01*
X1264920Y523320D02*
Y533320D01*
X1274670Y510320D02*
Y546320D01*
X1255170Y510320D02*
Y546320D01*
X1274670D01*
X1255170Y510320D02*
X1274670D01*
X1388190Y528320D02*
X1398190D01*
X1393190Y523320D02*
Y533320D01*
X1402940Y510320D02*
Y546320D01*
X1383440Y510320D02*
Y546320D01*
X1402940D01*
X1383440Y510320D02*
X1402940D01*
X1065610Y528320D02*
X1075610D01*
X1070610Y523320D02*
Y533320D01*
X1080360Y510320D02*
Y546320D01*
X1060860Y510320D02*
Y546320D01*
X1080360D01*
X1060860Y510320D02*
X1080360D01*
X1141810Y527050D02*
X1151810D01*
X1146810Y522050D02*
Y532050D01*
X1156560Y509050D02*
Y545050D01*
X1137060Y509050D02*
Y545050D01*
X1156560D01*
X1137060Y509050D02*
X1156560D01*
X1361850Y546430D02*
X1381350D01*
X1361850Y510430D02*
X1381350D01*
Y546430D01*
X1361850Y510430D02*
Y546430D01*
X1371600Y523430D02*
Y533430D01*
X1366600Y528430D02*
X1376600D01*
X1234850Y546320D02*
X1254350D01*
X1234850Y510320D02*
X1254350D01*
Y546320D01*
X1234850Y510320D02*
Y546320D01*
X1244600Y523320D02*
Y533320D01*
X1239600Y528320D02*
X1249600D01*
X1714500Y782400D02*
Y792400D01*
X1709500Y787400D02*
X1719500D01*
X1681480Y817880D02*
X1748790D01*
X1681480Y756920D02*
X1748790D01*
X1681480D02*
Y817880D01*
X1748790Y756920D02*
Y817880D01*
X1092400Y1143850D02*
Y1153850D01*
X1087400Y1148850D02*
X1097400D01*
X1037300Y1041750D02*
Y1255750D01*
X1147300D01*
Y1041750D02*
Y1255750D01*
X1037300Y1041750D02*
X1147300D01*
X1003300Y744300D02*
Y754300D01*
X998300Y749300D02*
X1008300D01*
X969010Y718820D02*
X1036320D01*
X969010Y779780D02*
X1036320D01*
Y718820D02*
Y779780D01*
X969010Y718820D02*
Y779780D01*
X1013890Y803330D02*
Y813330D01*
X1008890Y808330D02*
X1018890D01*
X994890Y825830D02*
X1032890D01*
X994890Y790830D02*
X1032890D01*
X994890D02*
Y825830D01*
X1032890Y790830D02*
Y825830D01*
X1183250Y689620D02*
X1293250D01*
X1183250Y595620D02*
X1293250D01*
Y689620D01*
X1183250Y595620D02*
Y689620D01*
X1238250Y637620D02*
Y647620D01*
X1233250Y642620D02*
X1243250D01*
X1754090Y1015140D02*
Y1034640D01*
X1718090Y1015140D02*
Y1034640D01*
Y1015140D02*
X1754090D01*
X1718090Y1034640D02*
X1754090D01*
X1731090Y1024890D02*
X1741090D01*
X1736090Y1019890D02*
Y1029890D01*
X1609090Y748110D02*
Y758110D01*
X1604090Y753110D02*
X1614090D01*
X1591090Y743360D02*
X1627090D01*
X1591090Y762860D02*
X1627090D01*
Y743360D02*
Y762860D01*
X1591090Y743360D02*
Y762860D01*
X1300560Y617220D02*
X1310560D01*
X1305560Y612220D02*
Y622220D01*
X1295810Y599220D02*
Y635220D01*
X1315310Y599220D02*
Y635220D01*
X1295810Y599220D02*
X1315310D01*
X1295810Y635220D02*
X1315310D01*
D76*
X1272540Y899160D02*
Y970280D01*
X1170940D02*
X1272540D01*
X1170940Y899160D02*
Y970280D01*
Y899160D02*
X1272540D01*
X1215390Y934720D02*
X1228090D01*
X1221740Y928370D02*
Y941070D01*
D80*
X1194640Y778080D02*
Y883080D01*
X1299640Y778080D02*
Y883080D01*
X1194640Y778080D02*
X1299640D01*
X1194640Y883080D02*
X1299640D01*
X1688200Y1002710D02*
X1766200D01*
X1688200Y902710D02*
X1766200D01*
Y1002710D01*
X1688200Y902710D02*
Y1002710D01*
M02*
