G04*
G04 #@! TF.GenerationSoftware,Altium Limited,Altium Designer,20.0.10 (225)*
G04*
G04 Layer_Color=255*
%FSLAX44Y44*%
%MOMM*%
G71*
G01*
G75*
%ADD26O,1.6500X0.5500*%
%ADD27O,0.5500X1.6500*%
%ADD28R,1.1500X1.4500*%
%ADD29R,1.6000X3.1500*%
%ADD30R,1.8500X0.6000*%
%ADD31R,1.4500X1.1500*%
%ADD32R,1.0000X0.8000*%
%ADD33R,1.4000X0.9000*%
%ADD34R,1.5500X1.3000*%
%ADD35R,1.5500X1.3000*%
%ADD36R,0.6000X1.8500*%
%ADD56R,0.2000X0.2000*%
%ADD57C,1.0000*%
%ADD68C,2.4000*%
%ADD69C,1.7780*%
%ADD70R,1.7780X1.7780*%
%ADD71R,1.7780X1.7780*%
%ADD72C,7.5000*%
%ADD73C,2.0000*%
D26*
X1289140Y858580D02*
D03*
Y850580D02*
D03*
Y842580D02*
D03*
Y834580D02*
D03*
Y826580D02*
D03*
Y818580D02*
D03*
Y810580D02*
D03*
Y802580D02*
D03*
X1205140D02*
D03*
Y810580D02*
D03*
Y818580D02*
D03*
Y826580D02*
D03*
Y834580D02*
D03*
Y842580D02*
D03*
Y850580D02*
D03*
Y858580D02*
D03*
D27*
X1275140Y788580D02*
D03*
X1267140D02*
D03*
X1259140D02*
D03*
X1251140D02*
D03*
X1243140D02*
D03*
X1235140D02*
D03*
X1227140D02*
D03*
X1219140D02*
D03*
Y872580D02*
D03*
X1227140D02*
D03*
X1235140D02*
D03*
X1243140D02*
D03*
X1251140D02*
D03*
X1259140D02*
D03*
X1267140D02*
D03*
X1275140D02*
D03*
D28*
X1618090Y709930D02*
D03*
X1600090D02*
D03*
X1618090Y731520D02*
D03*
X1600090D02*
D03*
X1745090Y1046480D02*
D03*
X1727090D02*
D03*
X1618200Y601980D02*
D03*
X1600200D02*
D03*
X1618090Y429260D02*
D03*
X1600090D02*
D03*
X1618200Y623570D02*
D03*
X1600200D02*
D03*
X1618090Y450850D02*
D03*
X1600090D02*
D03*
X1618090Y645160D02*
D03*
X1600090D02*
D03*
X1618200Y472440D02*
D03*
X1600200D02*
D03*
X1618090Y666750D02*
D03*
X1600090D02*
D03*
X1618200Y494030D02*
D03*
X1600200D02*
D03*
X1618090Y688340D02*
D03*
X1600090D02*
D03*
X1618200Y515620D02*
D03*
X1600200D02*
D03*
X1618200Y537210D02*
D03*
X1600200D02*
D03*
X1618200Y558800D02*
D03*
X1600200D02*
D03*
X1618200Y580390D02*
D03*
X1600200D02*
D03*
X1630680Y842010D02*
D03*
X1648680D02*
D03*
X1216550Y730250D02*
D03*
X1234550D02*
D03*
X1216550Y751840D02*
D03*
X1234550D02*
D03*
X1473090Y480060D02*
D03*
X1491090D02*
D03*
X1473090Y608330D02*
D03*
X1491090D02*
D03*
X1745090Y1024890D02*
D03*
X1727090D02*
D03*
X1618090Y753110D02*
D03*
X1600090D02*
D03*
D29*
X1727200Y981710D02*
D03*
Y923710D02*
D03*
D30*
X1529200Y499110D02*
D03*
Y511810D02*
D03*
Y524510D02*
D03*
Y537210D02*
D03*
Y549910D02*
D03*
Y562610D02*
D03*
Y575310D02*
D03*
X1473200Y499110D02*
D03*
Y511810D02*
D03*
Y524510D02*
D03*
Y537210D02*
D03*
Y549910D02*
D03*
Y562610D02*
D03*
Y575310D02*
D03*
Y588010D02*
D03*
X1529200D02*
D03*
X1529080Y627380D02*
D03*
Y640080D02*
D03*
Y652780D02*
D03*
Y665480D02*
D03*
Y678180D02*
D03*
Y690880D02*
D03*
Y703580D02*
D03*
X1473080Y627380D02*
D03*
Y640080D02*
D03*
Y652780D02*
D03*
Y665480D02*
D03*
Y678180D02*
D03*
Y690880D02*
D03*
Y703580D02*
D03*
Y716280D02*
D03*
X1529080D02*
D03*
D31*
X1670050Y841790D02*
D03*
Y859790D02*
D03*
X1691640Y841900D02*
D03*
Y859900D02*
D03*
X1713230Y842010D02*
D03*
Y860010D02*
D03*
X1609090Y842010D02*
D03*
Y860010D02*
D03*
X1587500Y842010D02*
D03*
Y860010D02*
D03*
X1347470Y822850D02*
D03*
Y840850D02*
D03*
X1325880Y822850D02*
D03*
Y840850D02*
D03*
Y802640D02*
D03*
Y784640D02*
D03*
X1183640Y770780D02*
D03*
Y788780D02*
D03*
X1347470Y784750D02*
D03*
Y802750D02*
D03*
X1369060Y804960D02*
D03*
Y822960D02*
D03*
X1106170Y980330D02*
D03*
Y998330D02*
D03*
X1083310Y980330D02*
D03*
Y998330D02*
D03*
X1104900Y942230D02*
D03*
Y960230D02*
D03*
X1083310Y942120D02*
D03*
Y960120D02*
D03*
X1044800Y817440D02*
D03*
Y799440D02*
D03*
X1066390Y817440D02*
D03*
Y799440D02*
D03*
X1286510Y519430D02*
D03*
Y537430D02*
D03*
X1414780Y519320D02*
D03*
Y537320D02*
D03*
X1092200Y519320D02*
D03*
Y537320D02*
D03*
X1168400Y518050D02*
D03*
Y536050D02*
D03*
X1348740Y590440D02*
D03*
Y608440D02*
D03*
X1327150Y590440D02*
D03*
Y608440D02*
D03*
X1391920Y590440D02*
D03*
Y608440D02*
D03*
X1370330Y590440D02*
D03*
Y608440D02*
D03*
X1264920Y537320D02*
D03*
Y519320D02*
D03*
X1393190Y537320D02*
D03*
Y519320D02*
D03*
X1070610Y537320D02*
D03*
Y519320D02*
D03*
X1146810Y536050D02*
D03*
Y518050D02*
D03*
X1371600Y537430D02*
D03*
Y519430D02*
D03*
X1244600Y537320D02*
D03*
Y519320D02*
D03*
X1305560Y608220D02*
D03*
Y626220D02*
D03*
D32*
X1083310Y1023620D02*
D03*
X1119310D02*
D03*
D33*
X1147220Y950620D02*
D03*
X1125220Y941120D02*
D03*
Y960120D02*
D03*
X1002890Y808330D02*
D03*
X1024890Y817830D02*
D03*
Y798830D02*
D03*
D34*
X1181678Y912209D02*
D03*
X1261678Y957209D02*
D03*
Y912209D02*
D03*
D35*
X1181678Y957209D02*
D03*
D36*
X1276350Y677620D02*
D03*
X1263650D02*
D03*
X1250950D02*
D03*
X1238250D02*
D03*
X1225550D02*
D03*
X1212850D02*
D03*
X1200150D02*
D03*
X1276350Y607620D02*
D03*
X1263650D02*
D03*
X1250950D02*
D03*
X1238250D02*
D03*
X1225550D02*
D03*
X1212850D02*
D03*
X1200150D02*
D03*
D56*
X1234525Y825261D02*
D03*
Y823261D02*
D03*
D57*
X1469390Y434340D02*
D03*
X1049020Y1275080D02*
D03*
X1748790Y1182370D02*
D03*
D68*
X1390650Y1238350D02*
D03*
Y1187350D02*
D03*
X1368380Y1101250D02*
D03*
X1283380Y1121250D02*
D03*
X1182710Y1194920D02*
D03*
X1232710D02*
D03*
X1282710D02*
D03*
X1332710D02*
D03*
X1460500Y1220470D02*
D03*
Y1169670D02*
D03*
Y915670D02*
D03*
X1638300D02*
D03*
Y966470D02*
D03*
X1130300Y1238250D02*
D03*
Y1161250D02*
D03*
D69*
X1003300Y660400D02*
D03*
Y685800D02*
D03*
Y584200D02*
D03*
Y558800D02*
D03*
Y914400D02*
D03*
Y939800D02*
D03*
X1380490Y914400D02*
D03*
X1355090Y939800D02*
D03*
Y914400D02*
D03*
X1329690Y939800D02*
D03*
Y914400D02*
D03*
X1397000Y469900D02*
D03*
X1371600D02*
D03*
X1346200D02*
D03*
X1270000D02*
D03*
X1244600D02*
D03*
X1219200D02*
D03*
X1143000D02*
D03*
X1066800D02*
D03*
X1714500Y774700D02*
D03*
X1003300Y762000D02*
D03*
X1752600Y524510D02*
D03*
Y549910D02*
D03*
Y575310D02*
D03*
Y600710D02*
D03*
Y626110D02*
D03*
Y651510D02*
D03*
Y676910D02*
D03*
Y702310D02*
D03*
Y727710D02*
D03*
X1727200Y524510D02*
D03*
Y549910D02*
D03*
Y575310D02*
D03*
Y600710D02*
D03*
Y626110D02*
D03*
Y651510D02*
D03*
Y676910D02*
D03*
Y702310D02*
D03*
D70*
X1003300Y635000D02*
D03*
Y533400D02*
D03*
Y889000D02*
D03*
X1714500Y800100D02*
D03*
X1003300Y736600D02*
D03*
X1727200Y727710D02*
D03*
D71*
X1380490Y939800D02*
D03*
X1422400Y469900D02*
D03*
X1295400D02*
D03*
X1168400D02*
D03*
X1092200D02*
D03*
D72*
X1727200Y457200D02*
D03*
X990600D02*
D03*
Y1244600D02*
D03*
X1727200D02*
D03*
D73*
X1130300Y1059250D02*
D03*
X1054300D02*
D03*
M02*
