G04*
G04 #@! TF.GenerationSoftware,Altium Limited,Altium Designer,20.0.10 (225)*
G04*
G04 Layer_Physical_Order=2*
G04 Layer_Color=16711680*
%FSLAX44Y44*%
%MOMM*%
G71*
G01*
G75*
%ADD13C,0.2540*%
%ADD15C,0.3048*%
%ADD59C,0.7620*%
%ADD65C,2.0320*%
%ADD66C,1.5240*%
%ADD68C,2.4000*%
%ADD69C,1.7780*%
%ADD70R,1.7780X1.7780*%
%ADD71R,1.7780X1.7780*%
%ADD72C,7.5000*%
%ADD73C,2.0000*%
%ADD74C,0.9144*%
G36*
X1772920Y411480D02*
X944880D01*
Y1066800D01*
X1039730D01*
X1042276Y1062990D01*
X1042083Y1062524D01*
X1041652Y1059250D01*
X1042083Y1055976D01*
X1043346Y1052926D01*
X1045356Y1050306D01*
X1047976Y1048296D01*
X1051026Y1047033D01*
X1054300Y1046602D01*
X1057574Y1047033D01*
X1060624Y1048296D01*
X1063244Y1050306D01*
X1065254Y1052926D01*
X1066517Y1055976D01*
X1066948Y1059250D01*
X1066517Y1062524D01*
X1066324Y1062990D01*
X1068870Y1066800D01*
X1115730D01*
X1118276Y1062990D01*
X1118083Y1062524D01*
X1117652Y1059250D01*
X1118083Y1055976D01*
X1119346Y1052926D01*
X1121356Y1050306D01*
X1123976Y1048296D01*
X1127026Y1047033D01*
X1130300Y1046602D01*
X1133574Y1047033D01*
X1136624Y1048296D01*
X1139244Y1050306D01*
X1141254Y1052926D01*
X1142517Y1055976D01*
X1142948Y1059250D01*
X1142517Y1062524D01*
X1142324Y1062990D01*
X1144870Y1066800D01*
X1168400D01*
Y977900D01*
X1562100D01*
Y1066800D01*
X1772920D01*
Y411480D01*
D02*
G37*
%LPC*%
G36*
X1638300Y981135D02*
X1634504Y980636D01*
X1630967Y979171D01*
X1627930Y976840D01*
X1625599Y973803D01*
X1624134Y970266D01*
X1623634Y966470D01*
X1624134Y962674D01*
X1625599Y959137D01*
X1627930Y956100D01*
X1630967Y953769D01*
X1634504Y952304D01*
X1638300Y951805D01*
X1642096Y952304D01*
X1645633Y953769D01*
X1648670Y956100D01*
X1651001Y959137D01*
X1652466Y962674D01*
X1652966Y966470D01*
X1652466Y970266D01*
X1651001Y973803D01*
X1648670Y976840D01*
X1645633Y979171D01*
X1642096Y980636D01*
X1638300Y981135D01*
D02*
G37*
G36*
X1005840Y950994D02*
Y942340D01*
X1014494D01*
X1014436Y942784D01*
X1013284Y945564D01*
X1011452Y947952D01*
X1009064Y949784D01*
X1006284Y950936D01*
X1005840Y950994D01*
D02*
G37*
G36*
X1000760D02*
X1000316Y950936D01*
X997536Y949784D01*
X995148Y947952D01*
X993316Y945564D01*
X992164Y942784D01*
X992106Y942340D01*
X1000760D01*
Y950994D01*
D02*
G37*
G36*
X1640840Y930001D02*
Y918210D01*
X1652631D01*
X1652466Y919466D01*
X1651001Y923003D01*
X1648670Y926040D01*
X1645633Y928371D01*
X1642096Y929836D01*
X1640840Y930001D01*
D02*
G37*
G36*
X1635760D02*
X1634504Y929836D01*
X1630967Y928371D01*
X1627930Y926040D01*
X1625599Y923003D01*
X1624134Y919466D01*
X1623969Y918210D01*
X1635760D01*
Y930001D01*
D02*
G37*
G36*
X1327150Y911860D02*
X1318496D01*
X1318554Y911416D01*
X1319706Y908636D01*
X1321538Y906248D01*
X1323926Y904416D01*
X1326706Y903264D01*
X1327150Y903206D01*
Y911860D01*
D02*
G37*
G36*
X1363980Y960454D02*
X1320800D01*
X1319214Y960138D01*
X1317870Y959240D01*
X1279770Y921140D01*
X1278872Y919796D01*
X1278556Y918210D01*
Y906780D01*
X1278872Y905194D01*
X1279770Y903850D01*
X1284398Y899222D01*
Y896841D01*
X1271642Y884085D01*
X1270744Y882740D01*
X1270428Y881155D01*
Y866365D01*
X1270744Y864780D01*
X1271642Y863435D01*
X1282366Y852711D01*
Y836806D01*
X1271161Y825601D01*
X1270000Y825753D01*
X1268143Y825509D01*
X1266413Y824792D01*
X1264928Y823652D01*
X1263788Y822167D01*
X1263700Y821954D01*
X1259890Y822712D01*
Y824230D01*
X1259693Y825221D01*
X1259131Y826061D01*
X1258291Y826623D01*
X1257300Y826820D01*
X1196340D01*
X1196002Y826752D01*
X1195658Y826728D01*
X1195510Y826655D01*
X1195349Y826623D01*
X1195062Y826431D01*
X1194754Y826277D01*
X1043054Y708710D01*
X984250D01*
X983259Y708513D01*
X982419Y707951D01*
X981857Y707111D01*
X981660Y706120D01*
Y571500D01*
X981857Y570509D01*
X982419Y569669D01*
X983259Y569107D01*
X984250Y568910D01*
X991848D01*
X993727Y565100D01*
X993316Y564564D01*
X992164Y561784D01*
X991771Y558800D01*
X992164Y555816D01*
X993316Y553036D01*
X995148Y550648D01*
X997536Y548816D01*
X997960Y548640D01*
X997203Y544830D01*
X991870D01*
Y521970D01*
X1014730D01*
Y544830D01*
X1009398D01*
X1008640Y548640D01*
X1009064Y548816D01*
X1011452Y550648D01*
X1013284Y553036D01*
X1014436Y555816D01*
X1014829Y558800D01*
X1014436Y561784D01*
X1013284Y564564D01*
X1012873Y565100D01*
X1014752Y568910D01*
X1041773D01*
X1042764Y569107D01*
X1043604Y569669D01*
X1044166Y570509D01*
X1044363Y571500D01*
X1044363Y607469D01*
X1197258Y731470D01*
X1257300D01*
X1258291Y731667D01*
X1259131Y732229D01*
X1259693Y733069D01*
X1259890Y734060D01*
Y814448D01*
X1263700Y815206D01*
X1263788Y814993D01*
X1264928Y813508D01*
X1266413Y812368D01*
X1268143Y811651D01*
X1270000Y811407D01*
X1271857Y811651D01*
X1273587Y812368D01*
X1275072Y813508D01*
X1276212Y814993D01*
X1276929Y816723D01*
X1277173Y818580D01*
X1277021Y819741D01*
X1289440Y832160D01*
X1290338Y833504D01*
X1290654Y835090D01*
Y847348D01*
X1294174Y848806D01*
X1298820Y844160D01*
X1300164Y843262D01*
X1301750Y842946D01*
X1301750Y842946D01*
X1307371D01*
X1358999Y791319D01*
X1358908Y789932D01*
X1357768Y788447D01*
X1357051Y786717D01*
X1356807Y784860D01*
X1357051Y783003D01*
X1357768Y781273D01*
X1358908Y779788D01*
X1360393Y778648D01*
X1362123Y777931D01*
X1363980Y777687D01*
X1365837Y777931D01*
X1367567Y778648D01*
X1369052Y779788D01*
X1370192Y781273D01*
X1370592Y782239D01*
X1373036Y783227D01*
X1374806Y783414D01*
X1425876Y732344D01*
Y560070D01*
X1426192Y558484D01*
X1427090Y557140D01*
X1449950Y534280D01*
X1450228Y534095D01*
X1450423Y533684D01*
X1450694Y530641D01*
X1450486Y529688D01*
X1450348Y529582D01*
X1449208Y528097D01*
X1448491Y526367D01*
X1448247Y524510D01*
X1448491Y522653D01*
X1449208Y520923D01*
X1450348Y519438D01*
X1451833Y518298D01*
X1453563Y517581D01*
X1455420Y517337D01*
X1457277Y517581D01*
X1459007Y518298D01*
X1460492Y519438D01*
X1461205Y520366D01*
X1484189D01*
X1485381Y517950D01*
X1485658Y516556D01*
X1484768Y515397D01*
X1484051Y513667D01*
X1483807Y511810D01*
X1484051Y509953D01*
X1484768Y508223D01*
X1485908Y506738D01*
X1487393Y505598D01*
X1489123Y504881D01*
X1490980Y504637D01*
X1492837Y504881D01*
X1494567Y505598D01*
X1496052Y506738D01*
X1499933Y505887D01*
X1575399Y430421D01*
X1575247Y429260D01*
X1575491Y427403D01*
X1576208Y425673D01*
X1577348Y424188D01*
X1578833Y423048D01*
X1580563Y422331D01*
X1582420Y422087D01*
X1584277Y422331D01*
X1586007Y423048D01*
X1587492Y424188D01*
X1588632Y425673D01*
X1589349Y427403D01*
X1589593Y429260D01*
X1589349Y431117D01*
X1588632Y432847D01*
X1587492Y434332D01*
X1586007Y435472D01*
X1584277Y436189D01*
X1582420Y436433D01*
X1581259Y436281D01*
X1502800Y514740D01*
X1501456Y515638D01*
X1499870Y515954D01*
X1499535D01*
X1498683Y516465D01*
X1496566Y519681D01*
X1496902Y521033D01*
X1497720Y521580D01*
X1506610Y530470D01*
X1507508Y531814D01*
X1507824Y533400D01*
Y566420D01*
X1507508Y568006D01*
X1506610Y569350D01*
X1495180Y580780D01*
X1493836Y581678D01*
X1492250Y581994D01*
X1479996D01*
X1470740Y591250D01*
Y626114D01*
X1481478Y636852D01*
X1485086Y635073D01*
X1485077Y635000D01*
X1485321Y633143D01*
X1486038Y631413D01*
X1487178Y629928D01*
X1488663Y628788D01*
X1490393Y628071D01*
X1492250Y627827D01*
X1493411Y627979D01*
X1522340Y599050D01*
X1523684Y598152D01*
X1525270Y597836D01*
X1576635D01*
X1577348Y596908D01*
X1578833Y595768D01*
X1580563Y595051D01*
X1582420Y594807D01*
X1584277Y595051D01*
X1586007Y595768D01*
X1587492Y596908D01*
X1588632Y598393D01*
X1589349Y600123D01*
X1589593Y601980D01*
X1589349Y603837D01*
X1588632Y605567D01*
X1587492Y607052D01*
X1586007Y608192D01*
X1584277Y608909D01*
X1582420Y609153D01*
X1580563Y608909D01*
X1578833Y608192D01*
X1577348Y607052D01*
X1576635Y606124D01*
X1526986D01*
X1499271Y633839D01*
X1499423Y635000D01*
X1499179Y636857D01*
X1498462Y638587D01*
X1497572Y639746D01*
X1497583Y640751D01*
X1498746Y643782D01*
X1499198Y643872D01*
X1500543Y644770D01*
X1512198Y656425D01*
X1513096Y657770D01*
X1513412Y659355D01*
Y687832D01*
X1513096Y689418D01*
X1512198Y690762D01*
X1495901Y707059D01*
X1496052Y711208D01*
X1497192Y712693D01*
X1497909Y714423D01*
X1498153Y716280D01*
X1497909Y718137D01*
X1497192Y719867D01*
X1496052Y721352D01*
X1494567Y722492D01*
X1492837Y723209D01*
X1490980Y723453D01*
X1489123Y723209D01*
X1487393Y722492D01*
X1485908Y721352D01*
X1484768Y719867D01*
X1484051Y718137D01*
X1483807Y716280D01*
X1484051Y714423D01*
X1484768Y712693D01*
X1485908Y711208D01*
X1486836Y710495D01*
Y706120D01*
X1487152Y704534D01*
X1488050Y703190D01*
X1489534Y701706D01*
X1489348Y699936D01*
X1488359Y697493D01*
X1487393Y697092D01*
X1485908Y695952D01*
X1485195Y695024D01*
X1475199D01*
X1456516Y713707D01*
Y743318D01*
X1456200Y744904D01*
X1455302Y746248D01*
X1346397Y855153D01*
X1346534Y855840D01*
Y887025D01*
X1347462Y887738D01*
X1348602Y889223D01*
X1349319Y890953D01*
X1349563Y892810D01*
X1349319Y894667D01*
X1348602Y896397D01*
X1347462Y897882D01*
X1345977Y899022D01*
X1344247Y899739D01*
X1342390Y899983D01*
X1340533Y899739D01*
X1338803Y899022D01*
X1337318Y897882D01*
X1336178Y896397D01*
X1335461Y894667D01*
X1335435Y894468D01*
X1335187Y894116D01*
X1332119Y892227D01*
X1331547Y892119D01*
X1329690Y892363D01*
X1327833Y892119D01*
X1326103Y891402D01*
X1324618Y890262D01*
X1323478Y888777D01*
X1322761Y887047D01*
X1322735Y886848D01*
X1322487Y886496D01*
X1319419Y884607D01*
X1318847Y884499D01*
X1316990Y884743D01*
X1315133Y884499D01*
X1313403Y883782D01*
X1311918Y882642D01*
X1310778Y881157D01*
X1310147Y879635D01*
X1310003Y879380D01*
X1306993Y876929D01*
X1306085Y876724D01*
X1296105D01*
X1295392Y877652D01*
X1293907Y878792D01*
X1292177Y879509D01*
X1292089Y879520D01*
X1290672Y883492D01*
X1297060Y889880D01*
X1297958Y891224D01*
X1298274Y892810D01*
Y906424D01*
X1299202Y907137D01*
X1300342Y908623D01*
X1301059Y910353D01*
X1301303Y912209D01*
X1301059Y914066D01*
X1300342Y915796D01*
X1299202Y917282D01*
X1297717Y918422D01*
X1295987Y919138D01*
X1295006Y919268D01*
X1293764Y921540D01*
X1293492Y923142D01*
X1315347Y944997D01*
X1318577Y942839D01*
X1318554Y942784D01*
X1318161Y939800D01*
X1318554Y936816D01*
X1319706Y934036D01*
X1321538Y931648D01*
X1323926Y929816D01*
X1325761Y929056D01*
Y925144D01*
X1323926Y924384D01*
X1321538Y922552D01*
X1319706Y920164D01*
X1318554Y917384D01*
X1318496Y916940D01*
X1329690D01*
Y914400D01*
X1332230D01*
Y903206D01*
X1332674Y903264D01*
X1335454Y904416D01*
X1337842Y906248D01*
X1339674Y908636D01*
X1340434Y910471D01*
X1344346D01*
X1345106Y908636D01*
X1346938Y906248D01*
X1349326Y904416D01*
X1352106Y903264D01*
X1355090Y902871D01*
X1358074Y903264D01*
X1360854Y904416D01*
X1363242Y906248D01*
X1365074Y908636D01*
X1365834Y910471D01*
X1369746D01*
X1370506Y908636D01*
X1372338Y906248D01*
X1374726Y904416D01*
X1377506Y903264D01*
X1380490Y902871D01*
X1383474Y903264D01*
X1386254Y904416D01*
X1388642Y906248D01*
X1390474Y908636D01*
X1391626Y911416D01*
X1392019Y914400D01*
X1391626Y917384D01*
X1390474Y920164D01*
X1388642Y922552D01*
X1386254Y924384D01*
X1385830Y924560D01*
X1386588Y928370D01*
X1391920D01*
Y951230D01*
X1374920D01*
X1366910Y959240D01*
X1365566Y960138D01*
X1363980Y960454D01*
D02*
G37*
G36*
X1652631Y913130D02*
X1640840D01*
Y901339D01*
X1642096Y901504D01*
X1645633Y902969D01*
X1648670Y905300D01*
X1651001Y908337D01*
X1652466Y911874D01*
X1652631Y913130D01*
D02*
G37*
G36*
X1635760D02*
X1623969D01*
X1624134Y911874D01*
X1625599Y908337D01*
X1627930Y905300D01*
X1630967Y902969D01*
X1634504Y901504D01*
X1635760Y901339D01*
Y913130D01*
D02*
G37*
G36*
X1460500Y930335D02*
X1456704Y929836D01*
X1453167Y928371D01*
X1450130Y926040D01*
X1447799Y923003D01*
X1446334Y919466D01*
X1445835Y915670D01*
X1446334Y911874D01*
X1447799Y908337D01*
X1450130Y905300D01*
X1453167Y902969D01*
X1456704Y901504D01*
X1460500Y901004D01*
X1464296Y901504D01*
X1467833Y902969D01*
X1470870Y905300D01*
X1473201Y908337D01*
X1474666Y911874D01*
X1475166Y915670D01*
X1474666Y919466D01*
X1473201Y923003D01*
X1470870Y926040D01*
X1467833Y928371D01*
X1464296Y929836D01*
X1460500Y930335D01*
D02*
G37*
G36*
X1014494Y937260D02*
X1003300D01*
X992106D01*
X992164Y936816D01*
X993316Y934036D01*
X995148Y931648D01*
X997536Y929816D01*
X999371Y929056D01*
Y925144D01*
X997536Y924384D01*
X995148Y922552D01*
X993316Y920164D01*
X992164Y917384D01*
X991771Y914400D01*
X992164Y911416D01*
X993316Y908636D01*
X995148Y906248D01*
X997536Y904416D01*
X997960Y904240D01*
X997203Y900430D01*
X991870D01*
Y877570D01*
X1014730D01*
Y900430D01*
X1009398D01*
X1008640Y904240D01*
X1009064Y904416D01*
X1011452Y906248D01*
X1013284Y908636D01*
X1014436Y911416D01*
X1014829Y914400D01*
X1014436Y917384D01*
X1013284Y920164D01*
X1011452Y922552D01*
X1009064Y924384D01*
X1007229Y925144D01*
Y929056D01*
X1009064Y929816D01*
X1011452Y931648D01*
X1013284Y934036D01*
X1014436Y936816D01*
X1014494Y937260D01*
D02*
G37*
G36*
X1725930Y811530D02*
X1703070D01*
Y788670D01*
X1708403D01*
X1709160Y784860D01*
X1708736Y784684D01*
X1706348Y782852D01*
X1704516Y780464D01*
X1703364Y777684D01*
X1703306Y777240D01*
X1714500D01*
X1725694D01*
X1725636Y777684D01*
X1724484Y780464D01*
X1722652Y782852D01*
X1720264Y784684D01*
X1719840Y784860D01*
X1720598Y788670D01*
X1725930D01*
Y811530D01*
D02*
G37*
G36*
X1725694Y772160D02*
X1717040D01*
Y763506D01*
X1717484Y763564D01*
X1720264Y764716D01*
X1722652Y766548D01*
X1724484Y768936D01*
X1725636Y771716D01*
X1725694Y772160D01*
D02*
G37*
G36*
X1711960D02*
X1703306D01*
X1703364Y771716D01*
X1704516Y768936D01*
X1706348Y766548D01*
X1708736Y764716D01*
X1711516Y763564D01*
X1711960Y763506D01*
Y772160D01*
D02*
G37*
G36*
X1003300Y773529D02*
X1000316Y773136D01*
X997536Y771984D01*
X995148Y770152D01*
X993316Y767764D01*
X992164Y764984D01*
X991771Y762000D01*
X992164Y759016D01*
X993316Y756236D01*
X995148Y753848D01*
X997536Y752016D01*
X997960Y751840D01*
X997203Y748030D01*
X991870D01*
Y725170D01*
X1014730D01*
Y748030D01*
X1009398D01*
X1008640Y751840D01*
X1009064Y752016D01*
X1011452Y753848D01*
X1013284Y756236D01*
X1014436Y759016D01*
X1014829Y762000D01*
X1014436Y764984D01*
X1013284Y767764D01*
X1011452Y770152D01*
X1009064Y771984D01*
X1006284Y773136D01*
X1003300Y773529D01*
D02*
G37*
G36*
X1306830Y736153D02*
X1304973Y735909D01*
X1303243Y735192D01*
X1301758Y734052D01*
X1300618Y732567D01*
X1300163Y731469D01*
X1291448Y722754D01*
X1237394D01*
X1236297Y723209D01*
X1234440Y723453D01*
X1232583Y723209D01*
X1230853Y722492D01*
X1229368Y721352D01*
X1228228Y719867D01*
X1227511Y718137D01*
X1227267Y716280D01*
X1227511Y714423D01*
X1228228Y712693D01*
X1229368Y711208D01*
X1230853Y710068D01*
X1232583Y709351D01*
X1234440Y709107D01*
X1236297Y709351D01*
X1237394Y709806D01*
X1282198D01*
X1282955Y705996D01*
X1282923Y705982D01*
X1281438Y704842D01*
X1280298Y703357D01*
X1279581Y701627D01*
X1279337Y699770D01*
X1279581Y697913D01*
X1280298Y696183D01*
X1281438Y694698D01*
X1282366Y693985D01*
Y669550D01*
X1281802Y668868D01*
X1278556Y667184D01*
X1278207Y667329D01*
X1276350Y667573D01*
X1274493Y667329D01*
X1272763Y666612D01*
X1271278Y665472D01*
X1270138Y663987D01*
X1269421Y662257D01*
X1269177Y660400D01*
X1269421Y658543D01*
X1270138Y656813D01*
X1271278Y655328D01*
X1272206Y654615D01*
Y648994D01*
X1268686Y647536D01*
X1257820Y658402D01*
X1257879Y658543D01*
X1258123Y660400D01*
X1257879Y662257D01*
X1257162Y663987D01*
X1256022Y665472D01*
X1254537Y666612D01*
X1252807Y667329D01*
X1250950Y667573D01*
X1249093Y667329D01*
X1247363Y666612D01*
X1245878Y665472D01*
X1244738Y663987D01*
X1244021Y662257D01*
X1243777Y660400D01*
X1244021Y658543D01*
X1244738Y656813D01*
X1245878Y655328D01*
X1247363Y654188D01*
X1249093Y653471D01*
X1249796Y653379D01*
X1250904Y651844D01*
X1249013Y648034D01*
X1243776D01*
X1232571Y659239D01*
X1232723Y660400D01*
X1232479Y662257D01*
X1231762Y663987D01*
X1230622Y665472D01*
X1229137Y666612D01*
X1227407Y667329D01*
X1225550Y667573D01*
X1223693Y667329D01*
X1221963Y666612D01*
X1220478Y665472D01*
X1219338Y663987D01*
X1218621Y662257D01*
X1218377Y660400D01*
X1218621Y658543D01*
X1219338Y656813D01*
X1220478Y655328D01*
X1221963Y654188D01*
X1223693Y653471D01*
X1225550Y653227D01*
X1226711Y653379D01*
X1239130Y640960D01*
X1240474Y640062D01*
X1242060Y639746D01*
X1256854D01*
X1262826Y633774D01*
X1261368Y630254D01*
X1231335D01*
X1230622Y631182D01*
X1229137Y632322D01*
X1227407Y633039D01*
X1225550Y633283D01*
X1223693Y633039D01*
X1221963Y632322D01*
X1220478Y631182D01*
X1219338Y629697D01*
X1218621Y627967D01*
X1218377Y626110D01*
X1218621Y624253D01*
X1219338Y622523D01*
X1220478Y621038D01*
X1221963Y619898D01*
X1223693Y619181D01*
X1225550Y618937D01*
X1227407Y619181D01*
X1229137Y619898D01*
X1230622Y621038D01*
X1231335Y621966D01*
X1266731D01*
X1310306Y578391D01*
Y572770D01*
X1310622Y571184D01*
X1311520Y569840D01*
X1320410Y560950D01*
X1320945Y560593D01*
X1321173Y559005D01*
X1321054Y557687D01*
X1320708Y556518D01*
X1319753Y556122D01*
X1318268Y554982D01*
X1317128Y553497D01*
X1316411Y551767D01*
X1316167Y549910D01*
X1316411Y548053D01*
X1317128Y546323D01*
X1318268Y544838D01*
X1319753Y543698D01*
X1321483Y542981D01*
X1323340Y542737D01*
X1325197Y542981D01*
X1326927Y543698D01*
X1328412Y544838D01*
X1329125Y545766D01*
X1350834D01*
X1361050Y535550D01*
X1362394Y534652D01*
X1363980Y534336D01*
X1380773D01*
X1382358Y534652D01*
X1383703Y535550D01*
X1391972Y543819D01*
X1391972Y543819D01*
X1410598Y562445D01*
X1411496Y563790D01*
X1411812Y565375D01*
Y591079D01*
X1411812Y591079D01*
X1411496Y592665D01*
X1410598Y594009D01*
X1405539Y599068D01*
X1404195Y599966D01*
X1402609Y600282D01*
X1367024D01*
X1355537Y611768D01*
X1354193Y612666D01*
X1352607Y612982D01*
X1326949D01*
X1296242Y643689D01*
Y687132D01*
X1301859Y692749D01*
X1303020Y692597D01*
X1304877Y692841D01*
X1306607Y693558D01*
X1308092Y694698D01*
X1309232Y696183D01*
X1309949Y697913D01*
X1310193Y699770D01*
X1309949Y701627D01*
X1309232Y703357D01*
X1308092Y704842D01*
X1306607Y705982D01*
X1304877Y706699D01*
X1303020Y706943D01*
X1301163Y706699D01*
X1299433Y705982D01*
X1297948Y704842D01*
X1296808Y703357D01*
X1292722D01*
X1291582Y704842D01*
X1290097Y705982D01*
X1290065Y705996D01*
X1290822Y709806D01*
X1294130D01*
X1296608Y710298D01*
X1298708Y711702D01*
X1309319Y722313D01*
X1310417Y722768D01*
X1311902Y723908D01*
X1313042Y725393D01*
X1313759Y727123D01*
X1314003Y728980D01*
X1313759Y730837D01*
X1313042Y732567D01*
X1311902Y734052D01*
X1310417Y735192D01*
X1308687Y735909D01*
X1306830Y736153D01*
D02*
G37*
G36*
X1618090Y776793D02*
X1616233Y776549D01*
X1614503Y775832D01*
X1613018Y774692D01*
X1611878Y773207D01*
X1611161Y771477D01*
X1610917Y769620D01*
X1611161Y767763D01*
X1611878Y766033D01*
X1613018Y764548D01*
X1613946Y763835D01*
Y732680D01*
X1614262Y731094D01*
X1615160Y729750D01*
X1663818Y681092D01*
X1665162Y680194D01*
X1666748Y679878D01*
X1692972D01*
X1700651Y672199D01*
X1698714Y668748D01*
X1697990Y668843D01*
X1696133Y668599D01*
X1694403Y667882D01*
X1692918Y666742D01*
X1691778Y665257D01*
X1691061Y663527D01*
X1690817Y661670D01*
X1691061Y659813D01*
X1691778Y658083D01*
X1692918Y656598D01*
X1694107Y655685D01*
Y648709D01*
X1694423Y647123D01*
X1695321Y645779D01*
X1705220Y635880D01*
X1706564Y634982D01*
X1708150Y634666D01*
X1709452Y634925D01*
X1714755D01*
X1715879Y633532D01*
X1716902Y631115D01*
X1716064Y629094D01*
X1715671Y626110D01*
X1716064Y623126D01*
X1716736Y621506D01*
X1679312Y584082D01*
X1678414Y582738D01*
X1678098Y581152D01*
Y575825D01*
X1674288Y574734D01*
X1673852Y575302D01*
X1672367Y576442D01*
X1670637Y577159D01*
X1668780Y577403D01*
X1666923Y577159D01*
X1665193Y576442D01*
X1663708Y575302D01*
X1662568Y573817D01*
X1661851Y572087D01*
X1661607Y570230D01*
X1661851Y568373D01*
X1662568Y566643D01*
X1663708Y565158D01*
X1664636Y564445D01*
Y544830D01*
X1664952Y543244D01*
X1665850Y541900D01*
X1686170Y521580D01*
X1687514Y520682D01*
X1689100Y520366D01*
X1716545D01*
X1717216Y518746D01*
X1719048Y516358D01*
X1721436Y514526D01*
X1724216Y513374D01*
X1727200Y512981D01*
X1730184Y513374D01*
X1732205Y514212D01*
X1733640Y513797D01*
X1733894Y513648D01*
X1735770Y511876D01*
X1735756Y511810D01*
Y507492D01*
X1736072Y505906D01*
X1736970Y504562D01*
X1742812Y498720D01*
X1744156Y497822D01*
X1745742Y497506D01*
X1755705D01*
X1756418Y496578D01*
X1757903Y495438D01*
X1759633Y494721D01*
X1761490Y494477D01*
X1763347Y494721D01*
X1765077Y495438D01*
X1766562Y496578D01*
X1767702Y498063D01*
X1768419Y499793D01*
X1768663Y501650D01*
X1768419Y503507D01*
X1767702Y505237D01*
X1766562Y506722D01*
X1765077Y507862D01*
X1763347Y508579D01*
X1761490Y508823D01*
X1759633Y508579D01*
X1757903Y507862D01*
X1756418Y506722D01*
X1755705Y505794D01*
X1747546D01*
X1744837Y508518D01*
X1744869Y511960D01*
X1748142Y513985D01*
X1749616Y513374D01*
X1752600Y512981D01*
X1755584Y513374D01*
X1758364Y514526D01*
X1760752Y516358D01*
X1762584Y518746D01*
X1763736Y521526D01*
X1764129Y524510D01*
X1763736Y527494D01*
X1762584Y530274D01*
X1760752Y532662D01*
X1758364Y534494D01*
X1756529Y535254D01*
Y539166D01*
X1758364Y539926D01*
X1760752Y541758D01*
X1762584Y544146D01*
X1763736Y546926D01*
X1764129Y549910D01*
X1763736Y552894D01*
X1762584Y555674D01*
X1760752Y558062D01*
X1758364Y559894D01*
X1756529Y560654D01*
Y564566D01*
X1758364Y565326D01*
X1760752Y567158D01*
X1762584Y569546D01*
X1763736Y572326D01*
X1764129Y575310D01*
X1763736Y578294D01*
X1762584Y581074D01*
X1760752Y583462D01*
X1758364Y585294D01*
X1756529Y586054D01*
Y589966D01*
X1758364Y590726D01*
X1760752Y592558D01*
X1762584Y594946D01*
X1763736Y597726D01*
X1763794Y598170D01*
X1752600D01*
Y603250D01*
X1763794D01*
X1763736Y603694D01*
X1762584Y606474D01*
X1760752Y608862D01*
X1758364Y610694D01*
X1756529Y611454D01*
Y615366D01*
X1758364Y616126D01*
X1760752Y617958D01*
X1762584Y620346D01*
X1763736Y623126D01*
X1763794Y623570D01*
X1752600D01*
Y628650D01*
X1763794D01*
X1763736Y629094D01*
X1762584Y631874D01*
X1760752Y634262D01*
X1758364Y636094D01*
X1756529Y636854D01*
Y640766D01*
X1758364Y641526D01*
X1760752Y643358D01*
X1762584Y645746D01*
X1763736Y648526D01*
X1764129Y651510D01*
X1763736Y654494D01*
X1762584Y657274D01*
X1760752Y659662D01*
X1758364Y661494D01*
X1756529Y662254D01*
Y666166D01*
X1758364Y666926D01*
X1760752Y668758D01*
X1762584Y671146D01*
X1763736Y673926D01*
X1764129Y676910D01*
X1763736Y679894D01*
X1762584Y682674D01*
X1760752Y685062D01*
X1758364Y686894D01*
X1756529Y687654D01*
Y691566D01*
X1758364Y692326D01*
X1760752Y694158D01*
X1762584Y696546D01*
X1763736Y699326D01*
X1764129Y702310D01*
X1763736Y705294D01*
X1762584Y708074D01*
X1760752Y710462D01*
X1758364Y712294D01*
X1756529Y713054D01*
Y716966D01*
X1758364Y717726D01*
X1760752Y719558D01*
X1762584Y721946D01*
X1763736Y724726D01*
X1764129Y727710D01*
X1763736Y730694D01*
X1762584Y733474D01*
X1760752Y735862D01*
X1758364Y737694D01*
X1755584Y738846D01*
X1752600Y739239D01*
X1749616Y738846D01*
X1746836Y737694D01*
X1744448Y735862D01*
X1742616Y733474D01*
X1742440Y733050D01*
X1738630Y733808D01*
Y739140D01*
X1715770D01*
Y716280D01*
X1721102D01*
X1721860Y712470D01*
X1721436Y712294D01*
X1719048Y710462D01*
X1717216Y708074D01*
X1716064Y705294D01*
X1715671Y702310D01*
X1716064Y699326D01*
X1716902Y697305D01*
X1716487Y695870D01*
X1716338Y695616D01*
X1714566Y693740D01*
X1714500Y693754D01*
X1670779D01*
X1641905Y722627D01*
X1640832Y726448D01*
X1641972Y727933D01*
X1642689Y729663D01*
X1642933Y731520D01*
X1642689Y733377D01*
X1641972Y735107D01*
X1640832Y736592D01*
X1639347Y737732D01*
X1637617Y738449D01*
X1635760Y738693D01*
X1633903Y738449D01*
X1632173Y737732D01*
X1630688Y736592D01*
X1629548Y735107D01*
X1628831Y733377D01*
X1628809Y733209D01*
X1624881Y731749D01*
X1622234Y734396D01*
Y763835D01*
X1623162Y764548D01*
X1624302Y766033D01*
X1625019Y767763D01*
X1625263Y769620D01*
X1625019Y771477D01*
X1624302Y773207D01*
X1623162Y774692D01*
X1621677Y775832D01*
X1619947Y776549D01*
X1618090Y776793D01*
D02*
G37*
G36*
X1433830Y481330D02*
X1410970D01*
Y475998D01*
X1407160Y475240D01*
X1406984Y475664D01*
X1405152Y478052D01*
X1402764Y479884D01*
X1399984Y481036D01*
X1399540Y481094D01*
Y469900D01*
Y458706D01*
X1399984Y458764D01*
X1402764Y459916D01*
X1405152Y461748D01*
X1406984Y464136D01*
X1407160Y464560D01*
X1410970Y463802D01*
Y458470D01*
X1433830D01*
Y481330D01*
D02*
G37*
G36*
X1306830D02*
X1283970D01*
Y475998D01*
X1280160Y475240D01*
X1279984Y475664D01*
X1278152Y478052D01*
X1275764Y479884D01*
X1272984Y481036D01*
X1272540Y481094D01*
Y469900D01*
Y458706D01*
X1272984Y458764D01*
X1275764Y459916D01*
X1278152Y461748D01*
X1279984Y464136D01*
X1280160Y464560D01*
X1283970Y463802D01*
Y458470D01*
X1306830D01*
Y481330D01*
D02*
G37*
G36*
X1179830D02*
X1156970D01*
Y475998D01*
X1153160Y475240D01*
X1152984Y475664D01*
X1151152Y478052D01*
X1148764Y479884D01*
X1145984Y481036D01*
X1145540Y481094D01*
Y469900D01*
Y458706D01*
X1145984Y458764D01*
X1148764Y459916D01*
X1151152Y461748D01*
X1152984Y464136D01*
X1153160Y464560D01*
X1156970Y463802D01*
Y458470D01*
X1179830D01*
Y481330D01*
D02*
G37*
G36*
X1103630D02*
X1080770D01*
Y475998D01*
X1076960Y475240D01*
X1076784Y475664D01*
X1074952Y478052D01*
X1072564Y479884D01*
X1069784Y481036D01*
X1069340Y481094D01*
Y469900D01*
Y458706D01*
X1069784Y458764D01*
X1072564Y459916D01*
X1074952Y461748D01*
X1076784Y464136D01*
X1076960Y464560D01*
X1080770Y463802D01*
Y458470D01*
X1103630D01*
Y481330D01*
D02*
G37*
G36*
X1371600Y481429D02*
X1368616Y481036D01*
X1365836Y479884D01*
X1363448Y478052D01*
X1361616Y475664D01*
X1360856Y473829D01*
X1356944D01*
X1356184Y475664D01*
X1354352Y478052D01*
X1351964Y479884D01*
X1349184Y481036D01*
X1348740Y481094D01*
Y469900D01*
Y458706D01*
X1349184Y458764D01*
X1351964Y459916D01*
X1354352Y461748D01*
X1356184Y464136D01*
X1356944Y465971D01*
X1360856D01*
X1361616Y464136D01*
X1363448Y461748D01*
X1365836Y459916D01*
X1368616Y458764D01*
X1371600Y458371D01*
X1374584Y458764D01*
X1377364Y459916D01*
X1379752Y461748D01*
X1381584Y464136D01*
X1382344Y465971D01*
X1386256D01*
X1387016Y464136D01*
X1388848Y461748D01*
X1391236Y459916D01*
X1394016Y458764D01*
X1394460Y458706D01*
Y469900D01*
Y481094D01*
X1394016Y481036D01*
X1391236Y479884D01*
X1388848Y478052D01*
X1387016Y475664D01*
X1386256Y473829D01*
X1382344D01*
X1381584Y475664D01*
X1379752Y478052D01*
X1377364Y479884D01*
X1374584Y481036D01*
X1371600Y481429D01*
D02*
G37*
G36*
X1244600D02*
X1241616Y481036D01*
X1238836Y479884D01*
X1236448Y478052D01*
X1234616Y475664D01*
X1233856Y473829D01*
X1229944D01*
X1229184Y475664D01*
X1227352Y478052D01*
X1224964Y479884D01*
X1222184Y481036D01*
X1221740Y481094D01*
Y469900D01*
Y458706D01*
X1222184Y458764D01*
X1224964Y459916D01*
X1227352Y461748D01*
X1229184Y464136D01*
X1229944Y465971D01*
X1233856D01*
X1234616Y464136D01*
X1236448Y461748D01*
X1238836Y459916D01*
X1241616Y458764D01*
X1244600Y458371D01*
X1247584Y458764D01*
X1250364Y459916D01*
X1252752Y461748D01*
X1254584Y464136D01*
X1255344Y465971D01*
X1259256D01*
X1260016Y464136D01*
X1261848Y461748D01*
X1264236Y459916D01*
X1267016Y458764D01*
X1267460Y458706D01*
Y469900D01*
Y481094D01*
X1267016Y481036D01*
X1264236Y479884D01*
X1261848Y478052D01*
X1260016Y475664D01*
X1259256Y473829D01*
X1255344D01*
X1254584Y475664D01*
X1252752Y478052D01*
X1250364Y479884D01*
X1247584Y481036D01*
X1244600Y481429D01*
D02*
G37*
G36*
X1343660Y481094D02*
X1343216Y481036D01*
X1340436Y479884D01*
X1338048Y478052D01*
X1336216Y475664D01*
X1335064Y472884D01*
X1335006Y472440D01*
X1343660D01*
Y481094D01*
D02*
G37*
G36*
X1216660D02*
X1216216Y481036D01*
X1213436Y479884D01*
X1211048Y478052D01*
X1209216Y475664D01*
X1208064Y472884D01*
X1208006Y472440D01*
X1216660D01*
Y481094D01*
D02*
G37*
G36*
X1140460D02*
X1140016Y481036D01*
X1137236Y479884D01*
X1134848Y478052D01*
X1133016Y475664D01*
X1131864Y472884D01*
X1131806Y472440D01*
X1140460D01*
Y481094D01*
D02*
G37*
G36*
X1064260D02*
X1063816Y481036D01*
X1061036Y479884D01*
X1058648Y478052D01*
X1056816Y475664D01*
X1055664Y472884D01*
X1055606Y472440D01*
X1064260D01*
Y481094D01*
D02*
G37*
G36*
X1729740Y497164D02*
Y459740D01*
X1767164D01*
X1766869Y463483D01*
X1765398Y469611D01*
X1762986Y475434D01*
X1759693Y480808D01*
X1755600Y485600D01*
X1750808Y489693D01*
X1745434Y492986D01*
X1739611Y495398D01*
X1733483Y496869D01*
X1729740Y497164D01*
D02*
G37*
G36*
X993140D02*
Y459740D01*
X1030564D01*
X1030269Y463483D01*
X1028798Y469611D01*
X1026386Y475434D01*
X1023093Y480808D01*
X1019000Y485600D01*
X1014208Y489693D01*
X1008834Y492986D01*
X1003011Y495398D01*
X996883Y496869D01*
X993140Y497164D01*
D02*
G37*
G36*
X988060D02*
X984317Y496869D01*
X978189Y495398D01*
X972366Y492986D01*
X966992Y489693D01*
X962200Y485600D01*
X958107Y480808D01*
X954814Y475434D01*
X952402Y469611D01*
X950931Y463483D01*
X950636Y459740D01*
X988060D01*
Y497164D01*
D02*
G37*
G36*
X1724660D02*
X1720917Y496869D01*
X1714789Y495398D01*
X1708966Y492986D01*
X1703592Y489693D01*
X1698800Y485600D01*
X1694707Y480808D01*
X1691414Y475434D01*
X1689002Y469611D01*
X1687531Y463483D01*
X1687236Y459740D01*
X1724660D01*
Y497164D01*
D02*
G37*
G36*
X1343660Y467360D02*
X1335006D01*
X1335064Y466916D01*
X1336216Y464136D01*
X1338048Y461748D01*
X1340436Y459916D01*
X1343216Y458764D01*
X1343660Y458706D01*
Y467360D01*
D02*
G37*
G36*
X1216660D02*
X1208006D01*
X1208064Y466916D01*
X1209216Y464136D01*
X1211048Y461748D01*
X1213436Y459916D01*
X1216216Y458764D01*
X1216660Y458706D01*
Y467360D01*
D02*
G37*
G36*
X1140460D02*
X1131806D01*
X1131864Y466916D01*
X1133016Y464136D01*
X1134848Y461748D01*
X1137236Y459916D01*
X1140016Y458764D01*
X1140460Y458706D01*
Y467360D01*
D02*
G37*
G36*
X1064260D02*
X1055606D01*
X1055664Y466916D01*
X1056816Y464136D01*
X1058648Y461748D01*
X1061036Y459916D01*
X1063816Y458764D01*
X1064260Y458706D01*
Y467360D01*
D02*
G37*
G36*
X1767164Y454660D02*
X1729740D01*
Y417236D01*
X1733483Y417531D01*
X1739611Y419002D01*
X1745434Y421414D01*
X1750808Y424707D01*
X1755600Y428800D01*
X1759693Y433592D01*
X1762986Y438966D01*
X1765398Y444789D01*
X1766869Y450917D01*
X1767164Y454660D01*
D02*
G37*
G36*
X1030564D02*
X993140D01*
Y417236D01*
X996883Y417531D01*
X1003011Y419002D01*
X1008834Y421414D01*
X1014208Y424707D01*
X1019000Y428800D01*
X1023093Y433592D01*
X1026386Y438966D01*
X1028798Y444789D01*
X1030269Y450917D01*
X1030564Y454660D01*
D02*
G37*
G36*
X1724660D02*
X1687236D01*
X1687531Y450917D01*
X1689002Y444789D01*
X1691414Y438966D01*
X1694707Y433592D01*
X1698800Y428800D01*
X1703592Y424707D01*
X1708966Y421414D01*
X1714789Y419002D01*
X1720917Y417531D01*
X1724660Y417236D01*
Y454660D01*
D02*
G37*
G36*
X988060D02*
X950636D01*
X950931Y450917D01*
X952402Y444789D01*
X954814Y438966D01*
X958107Y433592D01*
X962200Y428800D01*
X966992Y424707D01*
X972366Y421414D01*
X978189Y419002D01*
X984317Y417531D01*
X988060Y417236D01*
Y454660D01*
D02*
G37*
%LPD*%
G36*
X1257300Y734060D02*
X1196340D01*
X1041773Y608703D01*
X1041773Y571500D01*
X1010331D01*
X1009662Y572934D01*
X1009497Y574548D01*
X1011452Y576048D01*
X1013284Y578436D01*
X1014436Y581216D01*
X1014494Y581660D01*
X1003300D01*
X992106D01*
X992164Y581216D01*
X993316Y578436D01*
X995148Y576048D01*
X997103Y574548D01*
X996938Y572934D01*
X996269Y571500D01*
X984250D01*
Y706120D01*
X1043940D01*
X1196340Y824230D01*
X1257300D01*
Y734060D01*
D02*
G37*
%LPC*%
G36*
X1005840Y696994D02*
Y688340D01*
X1014494D01*
X1014436Y688784D01*
X1013284Y691564D01*
X1011452Y693952D01*
X1009064Y695784D01*
X1006284Y696936D01*
X1005840Y696994D01*
D02*
G37*
G36*
X1000760D02*
X1000316Y696936D01*
X997536Y695784D01*
X995148Y693952D01*
X993316Y691564D01*
X992164Y688784D01*
X992106Y688340D01*
X1000760D01*
Y696994D01*
D02*
G37*
G36*
X1014494Y683260D02*
X1003300D01*
X992106D01*
X992164Y682816D01*
X993316Y680036D01*
X995148Y677648D01*
X997536Y675816D01*
X1000316Y674664D01*
X1000522Y674637D01*
Y671563D01*
X1000316Y671536D01*
X997536Y670384D01*
X995148Y668552D01*
X993316Y666164D01*
X992164Y663384D01*
X991771Y660400D01*
X992164Y657416D01*
X993316Y654636D01*
X995148Y652248D01*
X997536Y650416D01*
X1000316Y649264D01*
X999593Y646430D01*
X991870D01*
Y623570D01*
X1014730D01*
Y646430D01*
X1007007D01*
X1006284Y649264D01*
X1009064Y650416D01*
X1011452Y652248D01*
X1013284Y654636D01*
X1014436Y657416D01*
X1014829Y660400D01*
X1014436Y663384D01*
X1013284Y666164D01*
X1011452Y668552D01*
X1009064Y670384D01*
X1006284Y671536D01*
X1006078Y671563D01*
Y674637D01*
X1006284Y674664D01*
X1009064Y675816D01*
X1011452Y677648D01*
X1013284Y680036D01*
X1014436Y682816D01*
X1014494Y683260D01*
D02*
G37*
G36*
X1005840Y595394D02*
Y586740D01*
X1014494D01*
X1014436Y587184D01*
X1013284Y589964D01*
X1011452Y592352D01*
X1009064Y594184D01*
X1006284Y595336D01*
X1005840Y595394D01*
D02*
G37*
G36*
X1000760D02*
X1000316Y595336D01*
X997536Y594184D01*
X995148Y592352D01*
X993316Y589964D01*
X992164Y587184D01*
X992106Y586740D01*
X1000760D01*
Y595394D01*
D02*
G37*
%LPD*%
D13*
X1708150Y638810D02*
X1739900D01*
Y689610D02*
X1752600Y702310D01*
X1739900Y638810D02*
X1752600Y651510D01*
X1659852Y698462D02*
X1668703Y689610D01*
X1714500D02*
X1739900D01*
Y537210D02*
X1752600Y549910D01*
X1739900Y511810D02*
Y537210D01*
D15*
X1618090Y732680D02*
Y769620D01*
Y732680D02*
X1666748Y684022D01*
X1668780Y544830D02*
X1689100Y524510D01*
X1727200D01*
X1668780Y544830D02*
Y570230D01*
X1682242Y550672D02*
X1689100Y543814D01*
Y541020D02*
Y543814D01*
X1682242Y550672D02*
Y581152D01*
X1727200Y626110D01*
X1712472Y600710D02*
X1727200D01*
X1704340Y592578D02*
X1712472Y600710D01*
X1704340Y541020D02*
Y592578D01*
X1739900Y507492D02*
X1745742Y501650D01*
X1739900Y507492D02*
Y511810D01*
X1745742Y501650D02*
X1761490D01*
X1698251Y648709D02*
Y659760D01*
Y648709D02*
X1708150Y638810D01*
X1314450Y572770D02*
X1323340Y563880D01*
X1340096D02*
X1346200Y569983D01*
X1323340Y563880D02*
X1340096D01*
X1346200Y569983D02*
Y570230D01*
X1379220Y562610D02*
X1391920Y575310D01*
X1341120Y590550D02*
X1369060Y562610D01*
X1379220D01*
X1371600Y549910D02*
X1384300D01*
X1402080Y567690D01*
X1323340Y549910D02*
X1352550D01*
X1363980Y538480D01*
X1380773D01*
X1389042Y546749D01*
Y546749D01*
X1407668Y565375D01*
X1292098Y641972D02*
X1325232Y608838D01*
X1292098Y688848D02*
X1303020Y699770D01*
X1292098Y641972D02*
Y688848D01*
X1325232Y608838D02*
X1352607D01*
X1286510Y639658D02*
Y699770D01*
X1305560Y858520D02*
X1430020Y734060D01*
X1321054Y850929D02*
X1435608Y736375D01*
X1326642Y853243D02*
X1441196Y738689D01*
X1334770Y853018D02*
X1446784Y741004D01*
X1341120Y854570D02*
X1452372Y743318D01*
X1341120Y854570D02*
X1342390Y855840D01*
X1452372Y711991D02*
Y743318D01*
X1342390Y855840D02*
Y892810D01*
X1334770Y853018D02*
Y880110D01*
X1446784Y709676D02*
Y741004D01*
X1326642Y853243D02*
Y867918D01*
X1441196Y667004D02*
Y738689D01*
X1321054Y850929D02*
Y858266D01*
X1435608Y569722D02*
Y736375D01*
X1430020Y560070D02*
Y734060D01*
X1286510Y639658D02*
X1322918Y603250D01*
X1352607Y608838D02*
X1365307Y596138D01*
X1407668Y565375D02*
Y591079D01*
X1402609Y596138D02*
X1407668Y591079D01*
X1365307Y596138D02*
X1402609D01*
X1400294Y590550D02*
X1402080Y588764D01*
Y567690D02*
Y588764D01*
X1362993Y590550D02*
X1400294D01*
X1350293Y603250D02*
X1362993Y590550D01*
X1322918Y603250D02*
X1350293D01*
X1492250Y577850D02*
X1503680Y566420D01*
Y533400D02*
Y566420D01*
X1494790Y524510D02*
X1503680Y533400D01*
X1455420Y524510D02*
X1494790D01*
X1455420Y678180D02*
X1466850Y666750D01*
Y643890D02*
Y666750D01*
X1455420Y632460D02*
X1466850Y643890D01*
X1525270Y601980D02*
X1582420D01*
X1492250Y635000D02*
X1525270Y601980D01*
X1461008Y630145D02*
X1484151Y653288D01*
X1466596Y627831D02*
X1486465Y647700D01*
X1461008Y572262D02*
Y630145D01*
X1490980Y690880D02*
X1503680Y678180D01*
X1306740Y872580D02*
X1321054Y858266D01*
X1290320Y872580D02*
X1306740D01*
X1319813Y590550D02*
X1341120D01*
X1268447Y626110D02*
X1314450Y580107D01*
Y572770D02*
Y580107D01*
X1455420Y549910D02*
Y632460D01*
X1470660Y562610D02*
X1490980D01*
X1461008Y572262D02*
X1470660Y562610D01*
X1329690Y885190D02*
X1334770Y880110D01*
X1316990Y877570D02*
X1326642Y867918D01*
X1435608Y569722D02*
X1455420Y549910D01*
X1441196Y667004D02*
X1455420Y652780D01*
X1499870Y511810D02*
X1582420Y429260D01*
X1490980Y511810D02*
X1499870D01*
X1242060Y643890D02*
X1258570D01*
X1225550Y660400D02*
X1242060Y643890D01*
X1258570D02*
X1327150Y575310D01*
X1225550Y626110D02*
X1268447D01*
X1321365Y596900D02*
X1348740D01*
X1276350Y641915D02*
X1321365Y596900D01*
X1276350Y641915D02*
Y660400D01*
X1250950Y659413D02*
X1319813Y590550D01*
X1250950Y659413D02*
Y660400D01*
X1348740Y596900D02*
X1370330Y575310D01*
X1282710Y1121920D02*
X1283380Y1121250D01*
X1332710Y1270480D02*
X1333500Y1271270D01*
X1635760Y722913D02*
Y731520D01*
X1669063Y689610D02*
X1714500D01*
X1635760Y722913D02*
X1669063Y689610D01*
X1666748Y684022D02*
X1694688D01*
X1727200Y651510D01*
X1490980Y706120D02*
Y716280D01*
X1452372Y711991D02*
X1473483Y690880D01*
X1490980D01*
X1363980Y784860D02*
Y792197D01*
X1309087Y847090D02*
X1363980Y792197D01*
X1301750Y847090D02*
X1309087D01*
X1280160Y868680D02*
X1301750Y847090D01*
X1280160Y868680D02*
Y878840D01*
X1294130Y892810D01*
Y912209D01*
X1466596Y589534D02*
Y627831D01*
Y589534D02*
X1478280Y577850D01*
X1492250D01*
X1446784Y709676D02*
X1490980Y665480D01*
X1430020Y560070D02*
X1452880Y537210D01*
X1490980D01*
X1484151Y653288D02*
X1495298D01*
X1503680Y661670D01*
Y678180D01*
X1486465Y647700D02*
X1497613D01*
X1509268Y659355D01*
Y687832D01*
X1490980Y706120D02*
X1509268Y687832D01*
X1363980Y956310D02*
X1380490Y939800D01*
X1320800Y956310D02*
X1363980D01*
X1282700Y918210D02*
X1320800Y956310D01*
X1282700Y906780D02*
Y918210D01*
Y906780D02*
X1288542Y900938D01*
Y895125D02*
Y900938D01*
X1274572Y881155D02*
X1288542Y895125D01*
X1274572Y866365D02*
Y881155D01*
Y866365D02*
X1286510Y854427D01*
Y835090D02*
Y854427D01*
X1270000Y818580D02*
X1286510Y835090D01*
D59*
X1294130Y716280D02*
X1306830Y728980D01*
X1234440Y716280D02*
X1294130D01*
D65*
X1130300Y1161250D02*
X1149040D01*
X1130300Y1238250D02*
X1163320Y1271270D01*
X1149040Y1161250D02*
X1182710Y1194920D01*
X1232710D02*
X1282710D01*
X1332710D02*
Y1270480D01*
X1163320Y1271270D02*
X1333500D01*
X1357730D01*
X1390650Y1238350D01*
D66*
X1368380Y1101250D02*
X1390650Y1123520D01*
X1283380Y1075010D02*
Y1121250D01*
X1410870Y1187350D02*
X1443990Y1220470D01*
X1283380Y1075010D02*
X1308100Y1050290D01*
X1399540D02*
X1460500Y1111250D01*
X1308100Y1050290D02*
X1399540D01*
X1282710Y1121920D02*
Y1194920D01*
X1460500Y1111250D02*
Y1169670D01*
X1443990Y1220470D02*
X1460500D01*
X1390650Y1187350D02*
X1410870D01*
X1390650Y1123520D02*
Y1187350D01*
D68*
Y1238350D02*
D03*
Y1187350D02*
D03*
X1368380Y1101250D02*
D03*
X1283380Y1121250D02*
D03*
X1182710Y1194920D02*
D03*
X1232710D02*
D03*
X1282710D02*
D03*
X1332710D02*
D03*
X1460500Y1220470D02*
D03*
Y1169670D02*
D03*
Y915670D02*
D03*
X1638300D02*
D03*
Y966470D02*
D03*
X1130300Y1238250D02*
D03*
Y1161250D02*
D03*
D69*
X1003300Y660400D02*
D03*
Y685800D02*
D03*
Y584200D02*
D03*
Y558800D02*
D03*
Y914400D02*
D03*
Y939800D02*
D03*
X1380490Y914400D02*
D03*
X1355090Y939800D02*
D03*
Y914400D02*
D03*
X1329690Y939800D02*
D03*
Y914400D02*
D03*
X1397000Y469900D02*
D03*
X1371600D02*
D03*
X1346200D02*
D03*
X1270000D02*
D03*
X1244600D02*
D03*
X1219200D02*
D03*
X1143000D02*
D03*
X1066800D02*
D03*
X1714500Y774700D02*
D03*
X1003300Y762000D02*
D03*
X1752600Y524510D02*
D03*
Y549910D02*
D03*
Y575310D02*
D03*
Y600710D02*
D03*
Y626110D02*
D03*
Y651510D02*
D03*
Y676910D02*
D03*
Y702310D02*
D03*
Y727710D02*
D03*
X1727200Y524510D02*
D03*
Y549910D02*
D03*
Y575310D02*
D03*
Y600710D02*
D03*
Y626110D02*
D03*
Y651510D02*
D03*
Y676910D02*
D03*
Y702310D02*
D03*
D70*
X1003300Y635000D02*
D03*
Y533400D02*
D03*
Y889000D02*
D03*
X1714500Y800100D02*
D03*
X1003300Y736600D02*
D03*
X1727200Y727710D02*
D03*
D71*
X1380490Y939800D02*
D03*
X1422400Y469900D02*
D03*
X1295400D02*
D03*
X1168400D02*
D03*
X1092200D02*
D03*
D72*
X1727200Y457200D02*
D03*
X990600D02*
D03*
Y1244600D02*
D03*
X1727200D02*
D03*
D73*
X1130300Y1059250D02*
D03*
X1054300D02*
D03*
D74*
X1104900Y928370D02*
D03*
X1239520Y589280D02*
D03*
X1149061Y751924D02*
D03*
X1176958Y636431D02*
D03*
X1129968Y609761D02*
D03*
X1199818Y579281D02*
D03*
X1318260Y525780D02*
D03*
X1118870Y534670D02*
D03*
X1200150Y532130D02*
D03*
X1545590Y588010D02*
D03*
X1544320Y725170D02*
D03*
X1504950Y603250D02*
D03*
X1506220Y478790D02*
D03*
X1320800Y457200D02*
D03*
X1193800D02*
D03*
X1117600D02*
D03*
X1435100Y419100D02*
D03*
X1308100D02*
D03*
X1193800D02*
D03*
X1371600Y635000D02*
D03*
X1333500D02*
D03*
Y673100D02*
D03*
X1371600D02*
D03*
X1306830Y728980D02*
D03*
X1162050Y786130D02*
D03*
X1056640Y650240D02*
D03*
X1062990Y709930D02*
D03*
X1198880Y769620D02*
D03*
X1234440Y716280D02*
D03*
X1249680Y740410D02*
D03*
Y754380D02*
D03*
X1243330Y817880D02*
D03*
X1235140Y805880D02*
D03*
X1618090Y769620D02*
D03*
X1689100Y541020D02*
D03*
X1704340D02*
D03*
X1761490Y501650D02*
D03*
X1668780Y570230D02*
D03*
X1697990Y661670D02*
D03*
X1303020Y699770D02*
D03*
X1286510D02*
D03*
X1305560Y642620D02*
D03*
X1333500Y711200D02*
D03*
X1304290Y744220D02*
D03*
X1323340Y549910D02*
D03*
X1371600D02*
D03*
X1182370Y756920D02*
D03*
X1360170Y742950D02*
D03*
X1398270D02*
D03*
X1422400Y797560D02*
D03*
X1457960Y802640D02*
D03*
X1508760Y828040D02*
D03*
X1544320D02*
D03*
X1579880Y792480D02*
D03*
X1615440D02*
D03*
X1508760Y741680D02*
D03*
X1544320D02*
D03*
X1508760Y767080D02*
D03*
X1544320D02*
D03*
X1508760Y792480D02*
D03*
X1544320D02*
D03*
X1010920Y975360D02*
D03*
X1041400D02*
D03*
X1010920Y1000760D02*
D03*
X1041400D02*
D03*
X1010920Y1026160D02*
D03*
X1041400D02*
D03*
X995680Y838200D02*
D03*
X1026160D02*
D03*
X995680Y858520D02*
D03*
X1026160D02*
D03*
X1087120Y838200D02*
D03*
X1117600D02*
D03*
X1148080D02*
D03*
X1178560D02*
D03*
X1087120Y868680D02*
D03*
X1117600D02*
D03*
X1148080D02*
D03*
X1178560D02*
D03*
X1108710Y746760D02*
D03*
X952500Y787400D02*
D03*
X1503680Y421640D02*
D03*
Y447040D02*
D03*
X1409700Y635000D02*
D03*
X1263650Y589280D02*
D03*
X1200150Y694690D02*
D03*
X1409700Y673100D02*
D03*
X1200150Y660400D02*
D03*
X1371600Y711200D02*
D03*
X1409700D02*
D03*
X1083310Y619760D02*
D03*
X1129030Y642620D02*
D03*
X1108710Y674370D02*
D03*
X1156970Y669290D02*
D03*
X1103630Y709930D02*
D03*
X1154430Y715010D02*
D03*
X1701800Y889000D02*
D03*
X1737360D02*
D03*
X1562100Y914400D02*
D03*
X1600200D02*
D03*
X1485900D02*
D03*
X1524000D02*
D03*
X1562100Y952500D02*
D03*
X1600200D02*
D03*
X1524000D02*
D03*
X1485900D02*
D03*
X1492250Y635000D02*
D03*
X1490980Y716280D02*
D03*
X1455420Y524510D02*
D03*
X1342390Y892810D02*
D03*
X1316990Y877570D02*
D03*
X1329690Y885190D02*
D03*
X1290320Y872580D02*
D03*
X1490980Y537210D02*
D03*
Y562610D02*
D03*
Y511810D02*
D03*
Y690880D02*
D03*
Y665480D02*
D03*
X1455420Y678180D02*
D03*
Y652780D02*
D03*
Y549910D02*
D03*
X1582420Y429260D02*
D03*
Y601980D02*
D03*
X1346200Y570230D02*
D03*
X1276350Y660400D02*
D03*
X1327150Y575310D02*
D03*
X1391920D02*
D03*
X1370330D02*
D03*
X1225550Y626110D02*
D03*
Y660400D02*
D03*
X1250950D02*
D03*
X1270000Y818580D02*
D03*
X1635760Y731520D02*
D03*
X1363980Y784860D02*
D03*
X1294130Y912209D02*
D03*
X952500Y825500D02*
D03*
Y863600D02*
D03*
Y965200D02*
D03*
Y1003300D02*
D03*
Y1041400D02*
D03*
Y711200D02*
D03*
Y596900D02*
D03*
Y520700D02*
D03*
X1539240Y447040D02*
D03*
Y421640D02*
D03*
X1737360Y828040D02*
D03*
X1762760D02*
D03*
Y751840D02*
D03*
X1473200Y767080D02*
D03*
X1651000Y792480D02*
D03*
Y767080D02*
D03*
Y741680D02*
D03*
X1447800Y952500D02*
D03*
X1376680Y873760D02*
D03*
Y848360D02*
D03*
X1422400Y863600D02*
D03*
X1559560D02*
D03*
X1529080D02*
D03*
X1493520D02*
D03*
X1457960D02*
D03*
X1422400Y843280D02*
D03*
X1229360Y848360D02*
D03*
X1228090Y817880D02*
D03*
X1254760Y833120D02*
D03*
X1061720Y914400D02*
D03*
X1123950Y925830D02*
D03*
X1203960Y955040D02*
D03*
X1239520D02*
D03*
Y929640D02*
D03*
X1203960D02*
D03*
X1173480Y934720D02*
D03*
X1270000D02*
D03*
X1291590Y963930D02*
D03*
X1762760Y995680D02*
D03*
X1574800Y1051560D02*
D03*
X1630680D02*
D03*
X1686560D02*
D03*
X1574800Y1010920D02*
D03*
X1630680D02*
D03*
X1762760Y1051560D02*
D03*
X1305560Y858520D02*
D03*
X1402080Y966470D02*
D03*
X1352550D02*
D03*
X1140460Y580390D02*
D03*
X1076960D02*
D03*
M02*
