M48
;Layer_Color=9474304
;FILE_FORMAT=4:4
METRIC,LZ
;TYPE=PLATED
T1F00S00C0.4064
T2F00S00C0.8000
T3F00S00C1.0000
T4F00S00C1.0160
T5F00S00C1.2000
T6F00S00C3.2000
%
T01
X016891Y0054102
X0170434
X0166878Y0057023
X0169799Y0066167
X01651Y0074168
X0163576Y0073152
X01651Y0076708
Y0079248
X0161544
X0161809Y0076962
X0176276Y0075184
X0176149Y0050165
X0158242Y0042926
X0153924Y0042164
Y0044704
X0150368
Y0042164
X0150622Y0047879
X0149098Y0051181
Y0053721
Y0056261
X0145542Y0054991
Y0052451
X013716Y0054991
X0137033Y0057531
X0139192
X013462Y0057023
X0132715Y0057531
X0132334Y0054991
X0131826Y0052578
X013208Y004572
X013081Y004191
X011938
Y004572
X0120015Y0053213
X01199818Y00579281
X0123952Y0058928
X0126365
X0122555Y0062611
Y006604
X0120015
Y0069469
X0123444Y0071628
X0124968Y0074041
Y0075438
X0130429Y0074422
X0130683Y0072898
X0130302Y0069977
X0128651
X0127635Y006604
X0125095
X0130556Y0064262
X013335Y00635
X013716
Y006731
X013335
Y007112
X013716
X014097
Y006731
Y00635
X0145542Y0065278
Y0067818
X0149098Y0069088
Y0071628
X0150876Y0074168
Y0076708
Y0079248
X0154432
Y0076708
Y0074168
Y0072517
X0157988Y0079248
X014732Y0076708
X0139827Y0074295
X0136017
X0136398Y0078486
X0119888Y0076962
X0149098Y0066548
X0149225Y00635
X0150495Y0060325
X0154559Y0058801
X0158242Y0060198
X014351Y004191
X011176Y004572
X0111887Y0053467
X0114046Y0058039
X01129968Y00609761
X0112903Y0064262
X0110871Y0067437
X0110363Y0070993
X0106299
X0105664Y0065024
X0108331Y0061976
X0107696Y0058039
X009525Y005969
Y005207
Y007112
Y007874
X0110871Y0074676
X01149061Y00751924
X0118237Y0075692
X0116205Y0078613
X0115443Y0071501
X0115697Y0066929
X01176958Y00636431
X0117856Y008382
X0114808
X011176
X0108712
Y0086868
X011176
X0114808
X0117856
X0117348Y0093472
X0112395Y0092583
X011049Y0092837
X0106172Y009144
X010414Y0097536
Y0100076
Y0102616
X0101092
Y0100076
Y0097536
X009525Y009652
Y010033
Y010414
Y008636
Y008255
X0099568Y008382
Y0085852
X0102616
Y008382
X0122936Y0084836
X0122809Y0081788
X0124333
X0123514Y0080588
X0125476Y0083312
X0127Y0081858
X0129032Y0087258
X0130556Y0085852
X0131699Y0087757
X0132969Y0088519
X0134239Y0089281
X0137668Y0087376
Y0084836
X014224Y0084328
Y008636
X0145796
X0149352
X0152908
X0155956
X0154432Y0082804
X0150876
X0145796Y0080264
X014224Y0079756
X014859Y009144
X01524
X015621
Y009525
X01524
X014859
X014478
X0140208Y0096647
X0135255
X0129159Y0096393
X0127Y0093472
X0123952Y0092964
Y0095504
X0120396
Y0092964
X0129413Y00912209
X015748Y0101092
Y0105156
X0163068
Y0101092
X016002Y009525
Y009144
X017018Y00889
X0173736
Y0082804
X0176276
Y0099568
Y0105156
X0168656
T02
X0139065Y0118735
Y0123835
T03
X010543Y0105925
X011303
X014605Y0116967
Y0091567
X016383
Y0096647
X014605Y0122047
T04
X017272Y0052451
X017526
Y0054991
Y0057531
Y0060071
Y0062611
Y0065151
Y0067691
Y0070231
Y0072771
X017272
Y0070231
Y0067691
Y0065151
Y0062611
Y0060071
Y0057531
Y0054991
X017145Y007747
X014224Y004699
X01397
X013716
X013462
X012954
X0127
X012446
X012192
X011684
X01143
X010922
X010668
X010033Y005334
Y005588
Y005842
Y00635
Y006604
Y006858
Y007366
Y00762
Y00889
Y009144
Y009398
X0132969
X0135509
X0138049
Y009144
X0135509
X0132969
X017145Y008001
T05
X011303Y0116125
X0128338Y0112125
X0136838Y0110125
X0133271Y0119492
X0128271
X0123271
X0118271
X011303Y0123825
T06
X017272Y004572
X009906
X017272Y012446
X009906
M30
